<svg width="1194" height="470" viewBox="0 0 1194 470" fill="none" xmlns="http://www.w3.org/2000/svg">
<g clip-path="url(#clip0_865_1627)">
<rect width="1194" height="470" fill="white"/>
<rect width="1194" height="470" fill="url(#paint0_linear_865_1627)" fill-opacity="0.55"/>
<rect width="1194" height="470" fill="#171717"/>
<g clip-path="url(#clip1_865_1627)">
<path d="M464.082 511.719L597 188.124L383.918 -89L37.9181 -42.7185L-95 280.876L118.082 558L464.082 511.719Z" fill="#FB3429"/>
</g>
<path d="M1085.2 138.61L1095 114.04L1079.26 93L1053.7 96.495L1043.89 121.065L1059.63 142.14L1085.2 138.61Z" fill="#FB3429"/>
<path d="M943.793 183.341C942.196 183.382 940.617 182.991 939.228 182.208C937.98 181.512 936.96 180.475 936.288 179.22C935.613 177.927 935.269 176.488 935.285 175.031C935.242 173.115 935.67 171.218 936.53 169.503C937.301 167.936 938.499 166.615 939.989 165.692C941.568 164.729 943.393 164.24 945.245 164.284C946.586 164.269 947.916 164.526 949.153 165.039C950.219 165.511 951.147 166.244 951.851 167.168C952.544 168.065 952.975 169.134 953.096 170.258L949.119 171.048C949.121 170.544 949.017 170.046 948.813 169.584C948.61 169.123 948.311 168.709 947.936 168.369C947.561 168.03 947.119 167.772 946.638 167.612C946.156 167.452 945.647 167.395 945.142 167.443C944.305 167.436 943.482 167.649 942.755 168.061C942.037 168.493 941.404 169.052 940.888 169.709C940.335 170.453 939.925 171.291 939.677 172.181C939.395 173.164 939.255 174.181 939.262 175.203C939.238 176.104 939.427 176.998 939.816 177.813C940.14 178.57 940.697 179.207 941.407 179.632C942.198 180.108 943.111 180.346 944.035 180.319C944.896 180.319 945.737 180.069 946.456 179.598C947.23 179.113 947.806 178.37 948.081 177.503L951.782 178.808C951.161 180.266 950.065 181.476 948.669 182.242C947.17 183.029 945.487 183.408 943.793 183.341Z" fill="#FB3429"/>
<path d="M962.674 164.627L958.351 182.997H954.409L958.697 164.627H962.674ZM961.741 161.537C961.101 161.559 960.475 161.352 959.977 160.953C959.75 160.755 959.577 160.503 959.475 160.221C959.372 159.939 959.342 159.636 959.389 159.339C959.37 158.97 959.431 158.601 959.568 158.257C959.705 157.914 959.915 157.603 960.184 157.348C960.733 156.884 961.435 156.639 962.156 156.661C962.802 156.621 963.442 156.816 963.954 157.21C964.166 157.412 964.329 157.659 964.431 157.933C964.533 158.206 964.571 158.499 964.542 158.79C964.549 159.171 964.48 159.55 964.337 159.903C964.195 160.257 963.982 160.579 963.712 160.85C963.181 161.298 962.506 161.542 961.81 161.537H961.741Z" fill="#FB3429"/>
<path d="M964.302 182.998L968.729 164.627H972.187L971.392 169.263L971.011 168.988C971.492 167.553 972.473 166.336 973.778 165.554C975.075 164.755 976.574 164.339 978.101 164.353C979.315 164.322 980.514 164.631 981.559 165.245C982.518 165.844 983.239 166.754 983.6 167.821C984.003 169.153 984.003 170.574 983.6 171.907L980.971 183.101H976.994L979.588 172.079C979.786 171.512 979.851 170.909 979.779 170.314C979.707 169.719 979.5 169.148 979.173 168.645C978.841 168.232 978.412 167.907 977.923 167.697C977.435 167.488 976.902 167.4 976.372 167.443C975.438 167.433 974.519 167.67 973.709 168.13C972.909 168.597 972.243 169.259 971.772 170.053C971.192 171.034 970.772 172.1 970.527 173.212L968.244 182.963L964.302 182.998Z" fill="#FB3429"/>
<path d="M995.944 183.341C994.363 183.378 992.8 182.999 991.414 182.242C990.192 181.539 989.188 180.518 988.509 179.289C987.802 177.993 987.445 176.538 987.471 175.065C987.445 173.203 987.848 171.359 988.647 169.674C989.425 168.004 990.685 166.6 992.267 165.64C993.849 164.681 995.683 164.208 997.535 164.283C998.945 164.255 1000.34 164.586 1001.58 165.245C1002.69 165.866 1003.59 166.797 1004.18 167.923C1004.79 169.16 1005.1 170.526 1005.07 171.906C1005.11 172.409 1005.11 172.914 1005.07 173.417C1005.03 173.945 1004.91 174.464 1004.73 174.962H989.719V171.941H1002.48L1001.03 172.971C1001.13 172.692 1001.2 172.405 1001.24 172.112C1001.24 171.838 1001.24 171.563 1001.24 171.323C1001.25 170.595 1001.08 169.876 1000.75 169.228C1000.45 168.645 999.982 168.166 999.403 167.855C998.75 167.523 998.025 167.358 997.293 167.374C996.303 167.352 995.325 167.588 994.457 168.061C993.689 168.514 993.047 169.152 992.59 169.915C992.119 170.699 991.792 171.559 991.621 172.456C991.417 173.357 991.313 174.278 991.31 175.203C991.287 176.133 991.501 177.054 991.932 177.881C992.328 178.606 992.913 179.211 993.627 179.632C994.411 180.058 995.293 180.271 996.186 180.25C997.188 180.303 998.181 180.038 999.022 179.495C999.744 179.018 1000.35 178.384 1000.79 177.641L1003.97 179.323C1003.47 180.16 1002.81 180.894 1002.03 181.486C1001.2 182.079 1000.27 182.542 999.299 182.86C998.21 183.18 997.08 183.342 995.944 183.341Z" fill="#FB3429"/>
<path d="M1016.28 183.41C1014.96 183.423 1013.65 183.214 1012.41 182.792C1011.28 182.385 1010.25 181.767 1009.36 180.972C1008.51 180.195 1007.82 179.262 1007.32 178.225L1010.33 176.405C1010.77 177.588 1011.58 178.602 1012.64 179.305C1013.69 180.007 1014.94 180.362 1016.21 180.319C1017.13 180.365 1018.05 180.138 1018.84 179.667C1019.13 179.471 1019.37 179.205 1019.54 178.893C1019.7 178.581 1019.78 178.233 1019.77 177.882C1019.78 177.641 1019.74 177.401 1019.65 177.176C1019.56 176.952 1019.43 176.748 1019.25 176.577C1018.79 176.205 1018.24 175.936 1017.66 175.787L1014.69 174.929C1013.36 174.617 1012.16 173.924 1011.23 172.937C1010.46 172.121 1010.03 171.036 1010.06 169.915C1010.04 168.874 1010.36 167.854 1010.95 166.997C1011.6 166.105 1012.49 165.414 1013.51 165.005C1014.66 164.51 1015.9 164.253 1017.15 164.25C1018.8 164.223 1020.44 164.6 1021.92 165.349C1023.26 166.053 1024.33 167.175 1024.96 168.542L1022.09 170.465C1021.85 169.832 1021.46 169.266 1020.95 168.817C1019.91 167.892 1018.54 167.4 1017.15 167.443C1016.2 167.376 1015.26 167.591 1014.45 168.061C1014.17 168.231 1013.94 168.469 1013.79 168.752C1013.63 169.034 1013.55 169.352 1013.55 169.675C1013.53 169.949 1013.59 170.221 1013.71 170.468C1013.83 170.714 1014.01 170.926 1014.24 171.083C1014.76 171.422 1015.33 171.677 1015.93 171.838L1019.39 172.903C1020.54 173.193 1021.59 173.8 1022.4 174.654C1023.1 175.425 1023.49 176.43 1023.47 177.469C1023.51 178.6 1023.19 179.713 1022.58 180.663C1021.96 181.613 1021.07 182.355 1020.02 182.792C1018.83 183.252 1017.56 183.462 1016.28 183.41Z" fill="#FB3429"/>
<path d="M820.292 141.415V121.362L823.751 130.565L803 95.7469H819.358L833.503 119.542H823.889L838.172 95.7469H853.147L832.397 130.565L835.855 121.362V141.415H820.292Z" fill="white"/>
<path d="M870.576 142.068C866.61 142.156 862.678 141.321 859.095 139.63C856.004 138.188 853.373 135.931 851.486 133.106C849.686 130.273 848.76 126.978 848.823 123.629C848.74 120.245 849.666 116.912 851.486 114.049C853.255 111.251 855.769 108.994 858.749 107.525C861.967 105.924 865.525 105.112 869.124 105.156C872.512 105.136 875.864 105.85 878.946 107.25C881.888 108.619 884.39 110.77 886.174 113.465C888.091 116.554 889.031 120.142 888.872 123.766C888.872 124.281 888.872 124.865 888.872 125.483C888.872 126.101 888.872 126.719 888.872 127.234H861.204V119.886H880.883L875.349 121.775C875.368 120.587 875.108 119.411 874.588 118.341C874.13 117.414 873.424 116.63 872.548 116.075C871.588 115.505 870.484 115.219 869.366 115.251C868.249 115.225 867.147 115.51 866.184 116.075C865.29 116.62 864.571 117.406 864.109 118.341C863.616 119.419 863.368 120.591 863.383 121.775V123.972C863.339 125.336 863.661 126.687 864.317 127.887C864.911 128.963 865.83 129.828 866.945 130.359C868.256 130.913 869.671 131.182 871.095 131.149C872.497 131.195 873.894 130.974 875.211 130.496C876.453 130.013 877.617 129.354 878.669 128.539L886.451 136.299C884.647 138.21 882.421 139.679 879.949 140.591C876.942 141.649 873.765 142.15 870.576 142.068Z" fill="white"/>
<path d="M893.609 141.415V93H908.481V141.415H893.609Z" fill="white"/>
<path d="M962.607 105.052C965.153 105.006 967.671 105.584 969.938 106.735C972.159 107.875 973.953 109.692 975.057 111.92C976.428 114.765 977.07 117.903 976.924 121.053V141.415H962.088V123.594C962.233 121.938 961.845 120.28 960.981 118.856C960.649 118.404 960.211 118.04 959.704 117.794C959.198 117.549 958.639 117.43 958.076 117.448C957.247 117.448 956.433 117.673 955.724 118.1C954.969 118.608 954.38 119.324 954.03 120.161C953.564 121.376 953.352 122.673 953.407 123.972V141.415H938.57V123.594C938.713 121.947 938.352 120.296 937.533 118.856C937.194 118.394 936.745 118.023 936.226 117.778C935.706 117.532 935.133 117.419 934.559 117.448C933.729 117.448 932.916 117.673 932.207 118.1C931.443 118.599 930.851 119.318 930.512 120.161C930.046 121.376 929.835 122.673 929.89 123.972V141.415H915.053V105.636H929.164V115.937L926.293 113.053C927.45 110.542 929.342 108.436 931.723 107.01C934.048 105.684 936.685 104.997 939.366 105.018C942.346 104.966 945.269 105.829 947.735 107.49C950.309 109.346 952.066 112.111 952.646 115.216L947.977 114.529C949.191 111.732 951.197 109.346 953.753 107.662C956.362 105.905 959.455 104.993 962.607 105.052Z" fill="white"/>
<path d="M1003.04 142.068C999.285 142.147 995.57 141.322 992.211 139.664C989.196 138.176 986.64 135.911 984.81 133.106C982.99 130.243 982.064 126.91 982.147 123.526C982.064 120.141 982.99 116.808 984.81 113.946C986.632 111.142 989.191 108.886 992.211 107.421C995.603 105.86 999.297 105.051 1003.04 105.051C1006.77 105.051 1010.47 105.86 1013.86 107.421C1016.89 108.866 1019.46 111.126 1021.26 113.946C1023 116.842 1023.92 120.152 1023.92 123.526C1023.92 126.899 1023 130.21 1021.26 133.106C1019.45 135.926 1016.89 138.195 1013.86 139.664C1010.5 141.322 1006.79 142.147 1003.04 142.068ZM1003.04 130.565C1004.07 130.589 1005.09 130.315 1005.98 129.775C1006.91 129.219 1007.64 128.392 1008.08 127.406C1008.64 126.188 1008.91 124.862 1008.88 123.526C1008.92 122.188 1008.65 120.859 1008.08 119.645C1007.63 118.685 1006.9 117.883 1005.98 117.345C1005.09 116.805 1004.07 116.531 1003.04 116.555C1001.99 116.53 1000.96 116.804 1000.06 117.345C999.157 117.903 998.426 118.699 997.952 119.645C997.398 120.862 997.137 122.191 997.191 123.526C997.148 124.859 997.408 126.185 997.952 127.406C998.416 128.377 999.147 129.199 1000.06 129.775C1000.96 130.316 1001.99 130.59 1003.04 130.565Z" fill="white"/>
<rect width="1194" height="470" fill="url(#paint1_linear_865_1627)" fill-opacity="0.55"/>
</g>
<defs>
<linearGradient id="paint0_linear_865_1627" x1="0" y1="448" x2="843.5" y2="448" gradientUnits="userSpaceOnUse">
<stop/>
<stop offset="1" stop-opacity="0"/>
</linearGradient>
<linearGradient id="paint1_linear_865_1627" x1="-4.01727e-08" y1="263.5" x2="1194" y2="266.598" gradientUnits="userSpaceOnUse">
<stop/>
<stop offset="1" stop-opacity="0"/>
</linearGradient>
<clipPath id="clip0_865_1627">
<rect width="1194" height="470" fill="white"/>
</clipPath>
<clipPath id="clip1_865_1627">
<rect width="692" height="647" fill="white" transform="translate(-95 -89)"/>
</clipPath>
</defs>
</svg>
