<svg width="1920" height="1080" viewBox="0 0 1920 1080" fill="none" xmlns="http://www.w3.org/2000/svg">
<rect width="1920" height="1080" fill="black"/>
<g clip-path="url(#clip0_622_914)">
<path d="M1681 216H230V865H1681V216Z" fill="black"/>
<path d="M437.975 553.275V472.616L451.767 509.631L369.018 369.583H434.252L490.659 465.296H452.319L509.277 369.583H568.994L486.246 509.631L500.037 472.616V553.275H437.975Z" fill="white"/>
<path d="M638.365 555.9C622.594 556.238 606.961 552.88 592.715 546.094C580.412 540.265 569.924 531.194 562.374 519.852C555.171 508.416 551.478 495.113 551.755 481.595C551.424 467.982 555.118 454.576 562.374 443.061C569.429 431.808 579.452 422.726 591.336 416.819C604.171 410.381 618.357 407.113 632.711 407.289C646.223 407.209 659.591 410.084 671.879 415.714C683.61 421.218 693.587 429.871 700.703 440.713C708.347 453.135 712.094 467.569 711.46 482.147C711.46 484.219 711.46 486.567 711.46 489.053C711.46 491.539 711.46 494.025 711.46 496.097H601.128V466.678H679.602L657.535 474.275C657.612 469.497 656.573 464.767 654.501 460.463C652.675 456.735 649.86 453.582 646.364 451.348C642.536 449.057 638.134 447.907 633.676 448.033C629.221 447.929 624.825 449.078 620.988 451.348C617.423 453.539 614.553 456.7 612.713 460.463C610.748 464.798 609.759 469.514 609.817 474.275V483.114C609.641 488.6 610.927 494.034 613.541 498.859C615.91 503.189 619.576 506.667 624.022 508.803C629.25 511.031 634.892 512.114 640.572 511.98C646.16 512.167 651.732 511.277 656.984 509.356C661.92 507.378 666.561 504.729 670.775 501.483L701.668 532.697C694.555 540.412 685.716 546.329 675.878 549.961C663.843 554.227 651.127 556.24 638.365 555.9Z" fill="white"/>
<path d="M730.354 553.276V358.534H789.658V553.276H730.354Z" fill="white"/>
<path d="M1005.49 407.012C1015.64 406.894 1025.67 409.215 1034.73 413.78C1043.59 418.367 1050.74 425.676 1055.14 434.635C1060.61 446.079 1063.17 458.7 1062.59 471.374V553.276H1003.43V481.594C1004 474.933 1002.46 468.261 999.012 462.534C997.688 460.717 995.94 459.251 993.921 458.264C991.902 457.277 989.673 456.799 987.427 456.872C984.12 456.87 980.876 457.778 978.049 459.496C975.002 461.5 972.643 464.392 971.291 467.783C969.433 472.671 968.589 477.887 968.809 483.113V553.276H909.643V481.594C910.213 474.969 908.771 468.325 905.506 462.534C904.155 460.677 902.363 459.186 900.292 458.198C898.221 457.209 895.936 456.753 893.645 456.872C890.338 456.87 887.094 457.778 884.267 459.496C881.22 461.5 878.861 464.392 877.509 467.783C875.651 472.671 874.807 477.887 875.027 483.113V553.276H815.861V409.36H872.131V450.795L860.684 439.193C865.368 429.141 872.897 420.689 882.336 414.885C891.607 409.555 902.126 406.79 912.815 406.874C924.698 406.664 936.355 410.138 946.191 416.818C956.452 424.283 963.462 435.406 965.775 447.894L947.156 445.132C952.048 433.914 960.039 424.33 970.188 417.509C980.617 410.497 992.933 406.836 1005.49 407.012Z" fill="white"/>
<path d="M1166.72 555.9C1151.76 556.219 1136.95 552.902 1123.55 546.232C1111.53 540.247 1101.33 531.136 1094.04 519.852C1086.78 508.337 1083.08 494.931 1083.42 481.318C1083.08 467.706 1086.78 454.3 1094.04 442.784C1101.3 431.506 1111.51 422.432 1123.55 416.543C1137.08 410.261 1151.81 407.007 1166.72 407.007C1181.63 407.007 1196.36 410.261 1209.88 416.543C1221.98 422.353 1232.2 431.445 1239.4 442.784C1246.35 454.433 1250.02 467.749 1250.02 481.318C1250.02 494.888 1246.35 508.204 1239.4 519.852C1232.17 531.195 1221.96 540.323 1209.88 546.232C1196.49 552.902 1181.67 556.219 1166.72 555.9ZM1166.72 509.632C1170.85 509.73 1174.92 508.627 1178.44 506.455C1182.15 504.219 1185.09 500.892 1186.85 496.925C1189.07 492.028 1190.15 486.693 1190.02 481.318C1190.2 475.939 1189.11 470.593 1186.85 465.711C1185.04 461.847 1182.11 458.621 1178.44 456.458C1174.92 454.286 1170.85 453.183 1166.72 453.281C1162.54 453.18 1158.42 454.282 1154.86 456.458C1151.25 458.701 1148.34 461.905 1146.44 465.711C1144.23 470.607 1143.19 475.95 1143.41 481.318C1143.24 486.683 1144.28 492.017 1146.44 496.925C1148.29 500.833 1151.21 504.137 1154.86 506.455C1158.42 508.631 1162.54 509.733 1166.72 509.632Z" fill="white"/>
<path d="M1106.31 722.052V702.163H1058.87V683.656C1059.97 681.584 1061.49 678.96 1063.42 675.922C1065.35 672.883 1067.69 669.292 1070.31 665.287L1097.9 623.853H1133.07V681.584H1146.86V702.163H1133.07V722.052H1106.31ZM1081.76 682.275H1106.72V654.652C1106.72 652.995 1106.72 651.199 1106.72 649.266C1106.72 647.332 1106.72 645.26 1106.72 643.189C1105.76 645.122 1104.79 647.056 1103.69 648.851C1102.68 650.659 1101.58 652.411 1100.38 654.1L1086.59 675.784C1086.04 676.781 1085.44 677.749 1084.8 678.684L1081.76 682.275Z" fill="white"/>
<path d="M1203.4 624.543C1209.78 624.103 1216.18 625.007 1222.19 627.195C1228.2 629.384 1233.69 632.809 1238.29 637.249C1246.85 647.247 1251.24 660.15 1250.57 673.297C1251.35 686.389 1247.11 699.285 1238.71 709.345C1234.12 713.807 1228.63 717.246 1222.62 719.436C1216.61 721.626 1210.2 722.517 1203.82 722.052H1158.72V624.543H1203.4ZM1199.68 700.091C1202.58 700.4 1205.52 699.952 1208.2 698.791C1210.88 697.629 1213.22 695.794 1214.99 693.462C1218.23 687.261 1219.71 680.284 1219.26 673.297C1219.68 666.312 1218.2 659.345 1214.99 653.132C1213.19 650.846 1210.84 649.052 1208.17 647.917C1205.49 646.782 1202.57 646.343 1199.68 646.641H1188.78V700.091H1199.68Z" fill="white"/>
<path d="M1319.66 415.023V520.681L1536.47 575.374V360.33L1319.66 415.023Z" fill="white"/>
</g>
<defs>
<clipPath id="clip0_622_914">
<rect width="1451" height="649" fill="white" transform="translate(230 216)"/>
</clipPath>
</defs>
</svg>
