<svg width="1920" height="1080" viewBox="0 0 1920 1080" fill="none" xmlns="http://www.w3.org/2000/svg">
<rect width="1920" height="1080" fill="black"/>
<g clip-path="url(#clip0_622_814)">
<path d="M1681 216H230V865H1681V216Z" fill="black"/>
<path d="M952.673 751.607L976.808 646.64H990.599L986.876 666.805L985.083 667.91C986.181 663.485 988.202 659.343 991.013 655.756C993.613 652.409 997.034 649.792 1000.94 648.16C1004.97 646.334 1009.35 645.392 1013.77 645.397C1018.63 645.284 1023.42 646.579 1027.56 649.127C1031.64 651.757 1034.89 655.492 1036.94 659.899C1039.39 665.167 1040.57 670.94 1040.39 676.749C1040.47 682.711 1039.54 688.642 1037.63 694.29C1035.89 699.346 1033.23 704.031 1029.77 708.101C1026.6 712.166 1022.6 715.509 1018.04 717.908C1013.54 720.288 1008.52 721.521 1003.43 721.498C999.086 721.55 994.793 720.605 990.875 718.736C987.259 717.04 984.233 714.298 982.187 710.864C979.886 707.115 978.603 702.831 978.463 698.433L980.945 696.085L968.395 751.331L952.673 751.607ZM1001.36 709.344C1004.56 709.338 1007.7 708.48 1010.46 706.858C1013.46 705.134 1016.05 702.778 1018.04 699.953C1020.3 696.92 1021.98 693.504 1023.01 689.87C1024.24 685.938 1024.85 681.837 1024.8 677.716C1024.94 674 1024.19 670.304 1022.6 666.943C1021.31 664.199 1019.25 661.894 1016.67 660.314C1013.89 658.734 1010.75 657.924 1007.56 657.966C1004.18 657.921 1000.85 658.779 997.909 660.452C995.043 662.301 992.523 664.639 990.461 667.358C988.256 670.499 986.622 674.006 985.634 677.716C984.497 681.807 983.94 686.038 983.979 690.285C983.716 695.274 985.286 700.187 988.393 704.096C990.016 705.897 992.026 707.305 994.272 708.214C996.518 709.123 998.94 709.51 1001.36 709.344Z" fill="white"/>
<path d="M1072.93 721.637C1070.02 721.946 1067.08 721.513 1064.38 720.378C1061.68 719.244 1059.31 717.444 1057.49 715.146C1055.97 712.59 1055.03 709.736 1054.72 706.78C1054.41 703.823 1054.74 700.835 1055.69 698.02L1075.28 613.355H1091L1071.28 698.158C1070.64 699.471 1070.31 700.911 1070.31 702.37C1070.31 703.829 1070.64 705.269 1071.28 706.583C1072.32 707.528 1073.54 708.249 1074.87 708.701C1076.2 709.153 1077.6 709.325 1079 709.207H1082.59C1083.5 709.361 1084.43 709.361 1085.35 709.207L1081.9 720.809L1077.49 722.052C1075.96 722.029 1074.44 721.891 1072.93 721.637Z" fill="white"/>
<path d="M1125.2 721.637C1120.38 721.713 1115.63 720.522 1111.41 718.184C1107.49 715.847 1104.47 712.243 1102.86 707.964C1101.25 702.698 1101.25 697.071 1102.86 691.804L1112.65 646.641H1128.38L1118.17 690.561C1117.34 692.838 1117.06 695.283 1117.38 697.687C1117.69 700.092 1118.58 702.386 1119.96 704.373C1121.36 705.931 1123.09 707.15 1125.02 707.94C1126.96 708.729 1129.05 709.068 1131.13 708.931C1134.8 709.109 1138.45 708.244 1141.64 706.435C1144.84 704.627 1147.46 701.948 1149.2 698.71C1151.54 694.642 1153.17 690.205 1154.03 685.589L1163.27 646.503H1178.99L1161.89 720.394H1148.1L1151.27 701.749L1152.65 702.992C1150.99 708.702 1147.32 713.612 1142.31 716.803C1137.18 720.013 1131.25 721.69 1125.2 721.637Z" fill="white"/>
<path d="M1219.54 722.19C1214.29 722.241 1209.06 721.4 1204.09 719.703C1199.63 718.037 1195.51 715.555 1191.95 712.383C1188.56 709.259 1185.8 705.507 1183.82 701.334L1195.82 694.014C1197.58 698.732 1200.76 702.786 1204.92 705.616C1209 708.339 1213.8 709.781 1218.71 709.759C1222.39 709.941 1226.03 709.028 1229.19 707.135C1230.36 706.347 1231.32 705.276 1231.97 704.021C1232.62 702.766 1232.95 701.367 1232.92 699.953C1232.96 698.982 1232.8 698.012 1232.44 697.108C1232.08 696.203 1231.54 695.384 1230.85 694.705C1229 693.184 1226.83 692.098 1224.5 691.528L1212.64 687.937C1207.37 686.723 1202.58 683.985 1198.85 680.065C1195.81 676.751 1194.14 672.409 1194.16 667.911C1194.12 663.72 1195.37 659.62 1197.75 656.171C1200.32 652.582 1203.86 649.803 1207.95 648.16C1212.69 646.094 1217.82 645.058 1222.99 645.122C1229.6 645.014 1236.13 646.531 1242.02 649.541C1247.36 652.375 1251.62 656.888 1254.15 662.386L1242.85 670.12C1241.78 667.594 1240.18 665.332 1238.16 663.491C1236.22 661.585 1233.92 660.083 1231.4 659.071C1228.69 658.165 1225.83 657.79 1222.99 657.966C1219.23 657.695 1215.48 658.562 1212.23 660.452C1211.12 661.127 1210.2 662.081 1209.57 663.22C1208.94 664.359 1208.62 665.642 1208.64 666.944C1208.59 668.059 1208.82 669.17 1209.33 670.164C1209.84 671.158 1210.6 672.001 1211.54 672.606C1213.55 673.998 1215.79 675.027 1218.16 675.645L1231.95 679.926C1236.49 681.091 1240.61 683.536 1243.81 686.97C1246.64 690.056 1248.17 694.111 1248.09 698.296C1248.27 702.853 1247.05 707.357 1244.58 711.19C1242.11 715.023 1238.52 717.997 1234.29 719.703C1229.6 721.55 1224.58 722.397 1219.54 722.19Z" fill="white"/>
<path d="M1516.88 430.078H1498.81C1489.94 429.266 1481.68 425.213 1475.6 418.693C1469.52 412.172 1466.05 403.639 1465.85 394.72V381.738C1465.85 375.95 1463.56 370.399 1459.47 366.307C1455.38 362.215 1449.84 359.915 1444.06 359.915H1416.07C1413.19 359.897 1410.34 360.448 1407.68 361.537C1405.02 362.625 1402.61 364.23 1400.57 366.258C1398.53 368.286 1396.91 370.698 1395.81 373.355C1394.71 376.011 1394.14 378.86 1394.14 381.738V397.206C1393.67 405.733 1390.15 413.807 1384.23 419.946C1378.3 426.085 1370.36 429.879 1361.87 430.63H1343.8C1338.01 430.63 1332.45 432.925 1328.34 437.013C1324.23 441.102 1321.91 446.652 1321.87 452.452V481.18C1321.91 486.98 1324.23 492.53 1328.34 496.619C1332.45 500.708 1338.01 503.002 1343.8 503.002H1357.59C1366.46 502.884 1375.06 506.092 1381.69 511.994C1388.33 517.897 1392.52 526.068 1393.45 534.907V553C1393.41 555.959 1393.97 558.897 1395.1 561.632C1396.23 564.368 1397.9 566.844 1400.02 568.911C1402.14 570.979 1404.65 572.593 1407.41 573.657C1410.17 574.72 1413.11 575.211 1416.07 575.098H1444.75C1450.53 575.098 1456.07 572.799 1460.16 568.706C1464.25 564.614 1466.54 559.063 1466.54 553.276V535.321C1467.43 526.575 1471.43 518.441 1477.81 512.406C1484.19 506.37 1492.53 502.836 1501.3 502.45H1517.02C1522.8 502.45 1528.34 500.151 1532.43 496.058C1536.51 491.966 1538.81 486.415 1538.81 480.628V451.9C1538.81 449.022 1538.24 446.173 1537.14 443.517C1536.03 440.86 1534.42 438.448 1532.38 436.42C1530.34 434.392 1527.92 432.787 1525.26 431.699C1522.6 430.61 1519.75 430.059 1516.88 430.078Z" fill="white"/>
<path d="M437.975 553.275V472.616L451.767 509.631L369.018 369.583H434.252L490.659 465.296H452.319L509.277 369.583H568.994L486.246 509.631L500.037 472.616V553.275H437.975Z" fill="white"/>
<path d="M638.503 555.9C622.686 556.254 607.005 552.896 592.716 546.094C580.393 540.294 569.898 531.217 562.375 519.852C555.433 508.276 551.766 495.028 551.766 481.525C551.766 468.022 555.433 454.774 562.375 443.198C569.429 431.946 579.452 422.864 591.337 416.957C604.171 410.518 618.358 407.251 632.711 407.427C646.224 407.346 659.591 410.222 671.879 415.852C683.61 421.356 693.588 430.009 700.703 440.85C708.347 453.273 712.095 467.707 711.46 482.285C711.46 484.356 711.46 486.704 711.46 489.19C711.46 491.677 711.46 494.163 711.46 496.234H601.129V466.678H679.602L657.536 474.274C657.613 469.496 656.574 464.767 654.501 460.463C652.675 456.735 649.86 453.581 646.365 451.347C642.536 449.056 638.134 447.906 633.676 448.032C629.221 447.929 624.825 449.077 620.988 451.347C617.423 453.539 614.553 456.7 612.713 460.463C610.748 464.798 609.759 469.513 609.817 474.274V483.113C609.642 488.6 610.927 494.034 613.541 498.858C615.911 503.189 619.576 506.667 624.022 508.803C629.25 511.031 634.893 512.114 640.572 511.979C646.161 512.181 651.736 511.29 656.984 509.355C661.936 507.411 666.581 504.759 670.775 501.483L701.806 532.697C694.613 540.382 685.738 546.292 675.878 549.961C663.888 554.216 651.22 556.229 638.503 555.9Z" fill="white"/>
<path d="M730.354 553.276V358.534H789.658V553.276H730.354Z" fill="white"/>
<path d="M1005.49 407.012C1015.65 406.828 1025.69 409.152 1034.73 413.78C1043.59 418.367 1050.74 425.676 1055.14 434.635C1060.67 446.065 1063.27 458.688 1062.73 471.374V553.276H1003.43V481.594C1004 474.933 1002.46 468.261 999.012 462.534C997.688 460.717 995.94 459.251 993.921 458.264C991.902 457.277 989.673 456.799 987.427 456.872C984.12 456.87 980.876 457.778 978.049 459.496C975.036 461.538 972.687 464.419 971.291 467.783C969.433 472.671 968.589 477.887 968.809 483.113V553.276H909.643V481.594C910.213 474.969 908.771 468.325 905.506 462.534C904.155 460.677 902.363 459.186 900.292 458.198C898.221 457.209 895.936 456.753 893.645 456.872C890.338 456.87 887.094 457.778 884.267 459.496C881.22 461.5 878.861 464.392 877.509 467.783C875.651 472.671 874.807 477.887 875.027 483.113V553.276H815.861V409.36H872.131V450.795L860.684 439.193C865.298 429.095 872.843 420.624 882.336 414.885C891.607 409.555 902.126 406.79 912.815 406.874C924.698 406.664 936.355 410.138 946.191 416.818C956.452 424.283 963.462 435.406 965.775 447.894L947.156 445.132C952.048 433.914 960.039 424.33 970.188 417.509C980.625 410.513 992.936 406.853 1005.49 407.012Z" fill="white"/>
<path d="M1166.72 555.9C1151.76 556.219 1136.95 552.902 1123.55 546.232C1111.53 540.247 1101.33 531.136 1094.04 519.852C1086.78 508.337 1083.08 494.931 1083.42 481.318C1083.08 467.706 1086.78 454.3 1094.04 442.784C1101.3 431.506 1111.51 422.432 1123.55 416.543C1137.08 410.261 1151.81 407.007 1166.72 407.007C1181.63 407.007 1196.36 410.261 1209.88 416.543C1218.88 421.094 1226.83 427.459 1233.25 435.236C1239.67 443.014 1244.41 452.037 1247.19 461.738C1249.96 471.439 1250.7 481.609 1249.36 491.61C1248.02 501.611 1244.63 511.226 1239.4 519.852C1232.21 531.228 1221.98 540.365 1209.88 546.232C1196.49 552.902 1181.67 556.219 1166.72 555.9ZM1166.72 509.632C1170.85 509.73 1174.92 508.627 1178.44 506.455C1182.15 504.219 1185.09 500.892 1186.85 496.925C1189.07 492.028 1190.15 486.693 1190.02 481.318C1190.2 475.939 1189.11 470.593 1186.85 465.711C1185.04 461.847 1182.11 458.621 1178.44 456.458C1174.92 454.286 1170.85 453.183 1166.72 453.281C1162.54 453.18 1158.42 454.282 1154.86 456.458C1151.25 458.701 1148.34 461.905 1146.44 465.711C1144.23 470.607 1143.19 475.95 1143.41 481.318C1143.24 486.683 1144.28 492.017 1146.44 496.925C1148.29 500.833 1151.21 504.137 1154.86 506.455C1158.42 508.631 1162.54 509.733 1166.72 509.632Z" fill="white"/>
</g>
<defs>
<clipPath id="clip0_622_814">
<rect width="1451" height="649" fill="white" transform="translate(230 216)"/>
</clipPath>
</defs>
</svg>
