<svg width="1920" height="1080" viewBox="0 0 1920 1080" fill="none" xmlns="http://www.w3.org/2000/svg">
<rect width="1920" height="1080" fill="black"/>
<g clip-path="url(#clip0_622_874)">
<path d="M1681 216H230V865H1681V216Z" fill="black"/>
<path d="M437.975 553.275V472.616L451.767 509.631L369.018 369.583H434.252L490.659 465.296H452.318L509.277 369.583H568.994L486.245 509.631L500.037 472.616V553.275H437.975Z" fill="white"/>
<path d="M638.503 555.9C622.686 556.255 607.005 552.896 592.715 546.094C580.381 540.313 569.881 531.231 562.374 519.852C555.171 508.416 551.478 495.113 551.755 481.595C551.424 467.982 555.118 454.576 562.374 443.061C569.429 431.808 579.452 422.726 591.336 416.819C604.171 410.381 618.357 407.113 632.711 407.289C646.223 407.209 659.591 410.084 671.879 415.714C683.61 421.218 693.587 429.871 700.703 440.713C708.347 453.135 712.094 467.569 711.46 482.147C711.46 484.219 711.46 486.567 711.46 489.053C711.46 491.539 711.46 494.025 711.46 496.097H601.128V466.678H679.602L657.535 474.275C657.612 469.497 656.573 464.767 654.501 460.463C652.675 456.735 649.86 453.582 646.364 451.348C642.536 449.057 638.134 447.907 633.676 448.033C629.221 447.929 624.825 449.078 620.988 451.348C617.423 453.539 614.553 456.7 612.713 460.463C610.748 464.798 609.759 469.514 609.817 474.275V483.114C609.641 488.6 610.927 494.034 613.541 498.859C615.91 503.189 619.576 506.667 624.022 508.803C629.25 511.031 634.892 512.114 640.572 511.98C646.16 512.167 651.732 511.277 656.984 509.356C661.936 507.411 666.581 504.759 670.775 501.483L701.806 532.697C694.613 540.383 685.738 546.292 675.878 549.961C663.888 554.217 651.22 556.23 638.503 555.9Z" fill="white"/>
<path d="M730.354 553.276V358.534H789.658V553.276H730.354Z" fill="white"/>
<path d="M1005.49 407.012C1015.64 406.894 1025.67 409.215 1034.73 413.78C1043.59 418.367 1050.74 425.676 1055.14 434.635C1060.61 446.079 1063.17 458.7 1062.59 471.374V553.276H1003.43V481.594C1004 474.933 1002.46 468.261 999.012 462.534C997.688 460.717 995.94 459.251 993.921 458.264C991.902 457.277 989.673 456.799 987.427 456.872C984.12 456.87 980.876 457.778 978.049 459.496C975.036 461.538 972.687 464.419 971.291 467.783C969.444 472.674 968.6 477.888 968.809 483.113V553.276H909.643V481.594C910.213 474.969 908.771 468.325 905.506 462.534C904.155 460.677 902.363 459.186 900.292 458.198C898.221 457.209 895.936 456.753 893.645 456.872C890.338 456.87 887.094 457.778 884.267 459.496C881.22 461.5 878.861 464.392 877.509 467.783C875.662 472.674 874.818 477.888 875.027 483.113V553.276H815.861V409.36H872.131V450.795L860.684 439.193C865.368 429.141 872.897 420.689 882.336 414.885C891.607 409.555 902.126 406.79 912.815 406.874C924.698 406.664 936.355 410.138 946.191 416.818C956.452 424.283 963.462 435.406 965.775 447.894L947.156 445.132C951.994 433.881 959.997 424.283 970.188 417.509C980.59 410.44 992.925 406.773 1005.49 407.012Z" fill="white"/>
<path d="M1166.72 555.9C1151.76 556.219 1136.95 552.902 1123.55 546.232C1111.53 540.247 1101.33 531.136 1094.04 519.852C1086.78 508.337 1083.08 494.931 1083.42 481.318C1083.08 467.706 1086.78 454.3 1094.04 442.784C1101.3 431.506 1111.51 422.432 1123.55 416.543C1137.08 410.261 1151.81 407.007 1166.72 407.007C1181.63 407.007 1196.36 410.261 1209.88 416.543C1221.98 422.353 1232.2 431.445 1239.4 442.784C1246.35 454.433 1250.02 467.749 1250.02 481.318C1250.02 494.888 1246.35 508.204 1239.4 519.852C1232.17 531.195 1221.96 540.323 1209.88 546.232C1196.49 552.902 1181.67 556.219 1166.72 555.9ZM1166.72 509.632C1170.85 509.73 1174.92 508.627 1178.44 506.455C1182.15 504.219 1185.09 500.892 1186.85 496.925C1189.07 492.028 1190.15 486.693 1190.02 481.318C1190.2 475.939 1189.11 470.593 1186.85 465.711C1185.04 461.847 1182.11 458.621 1178.44 456.458C1174.92 454.286 1170.85 453.183 1166.72 453.281C1162.54 453.18 1158.42 454.282 1154.86 456.458C1151.25 458.701 1148.34 461.905 1146.44 465.711C1144.23 470.607 1143.19 475.95 1143.41 481.318C1143.24 486.683 1144.28 492.017 1146.44 496.925C1148.29 500.833 1151.21 504.137 1154.86 506.455C1158.42 508.631 1162.54 509.733 1166.72 509.632Z" fill="white"/>
<path d="M849.788 695.396L842.617 720.671H784.141V719.704L788.83 708.24V634.763L784.141 623.3V622.333H815.034V623.3L808.552 634.763V714.455C823.913 713.371 838.23 706.276 848.409 694.705L849.788 695.396Z" fill="white"/>
<path d="M937.778 708.379C937.001 712.198 934.956 715.642 931.976 718.15C928.996 720.657 925.257 722.081 921.366 722.19C913.781 722.19 909.781 716.942 909.092 706.859C907.038 711.457 903.713 715.37 899.509 718.136C895.306 720.901 890.4 722.404 885.37 722.466C869.372 722.466 861.373 710.312 861.373 691.529V663.353L856.684 652.304V651.337L879.44 645.122H880.405V688.766C880.405 701.749 885.095 708.102 894.197 708.102C899.605 707.923 904.758 705.76 908.678 702.025V663.353L903.989 652.304V651.337L926.745 645.122H927.71V699.401C927.71 705.754 929.089 708.931 932.813 708.931C934.036 708.991 935.246 708.652 936.261 707.964L937.778 708.379Z" fill="white"/>
<path d="M1009.36 660.867L991.978 682.413L1020.66 719.703V720.67H988.531V719.703L991.978 709.207L978.187 690.561L965.361 708.931L968.809 719.703V720.67H943.984V719.703L957.086 705.892L973.636 685.589L944.95 648.022V647.193H977.773V648.022L974.187 659.071L987.979 677.302L1000.94 658.795L997.495 648.022V647.193H1021.63V648.022L1009.36 660.867Z" fill="white"/>
<path d="M1111.69 708.379C1110.94 712.187 1108.92 715.627 1105.97 718.137C1103.01 720.646 1099.29 722.075 1095.41 722.19C1087.69 722.19 1083.69 716.942 1083 706.859C1080.96 711.467 1077.64 715.39 1073.43 718.158C1069.23 720.925 1064.31 722.421 1059.28 722.466C1043.28 722.466 1035.28 710.312 1035.28 691.529V663.353L1030.59 652.304V651.337L1053.49 645.122H1054.32V688.766C1054.32 701.749 1059 708.102 1068.11 708.102C1073.52 707.923 1078.67 705.76 1082.59 702.025V663.353L1077.9 652.304V651.337L1100.66 645.122H1101.62V699.401C1101.62 705.754 1103 708.931 1106.86 708.931C1108.04 709.015 1109.22 708.672 1110.17 707.964L1111.69 708.379Z" fill="white"/>
<path d="M1168.92 663.353H1167.82C1165.44 661.687 1162.59 660.816 1159.68 660.867C1154.58 661.27 1149.75 663.304 1145.89 666.668V708.102L1152.24 719.566V720.533H1121.76V719.566L1126.45 708.102V663.353L1121.76 652.304V651.337L1144.51 645.122H1145.48V661.282C1147.16 656.963 1149.96 653.174 1153.6 650.308C1157.24 647.443 1161.58 645.604 1166.16 644.984C1169.25 644.855 1172.28 645.834 1174.72 647.746L1168.92 663.353Z" fill="white"/>
<path d="M1257.46 648.022L1250.98 659.486L1233.33 714.732C1231.23 721.622 1228.56 728.322 1225.33 734.758C1223 739.82 1219.2 744.058 1214.43 746.917C1209.65 749.776 1204.13 751.123 1198.57 750.78C1192.93 750.885 1187.37 749.35 1182.58 746.36L1188.92 731.167H1189.89C1193.91 733.204 1198.34 734.29 1202.85 734.344C1212.92 734.344 1219.95 730.615 1224.92 717.08V715.699L1210.16 719.29H1209.19L1185.75 660.867L1178.58 648.851V648.022H1209.19V648.851L1206.16 660.177L1226.57 710.865H1227.67L1240.22 660.038L1236.09 648.851V648.022H1257.46Z" fill="white"/>
<path d="M1415.24 359.363L1318.84 506.455L1342.97 543.056V543.194L1366.97 579.932L1389.59 614.185L1439.24 690.286L1489.02 614.185L1511.5 579.932L1535.64 543.194L1511.5 506.455L1487.51 469.717H1487.37L1463.37 432.978L1439.24 396.24V396.102L1415.24 359.363Z" fill="white"/>
</g>
<defs>
<clipPath id="clip0_622_874">
<rect width="1451" height="649" fill="white" transform="translate(230 216)"/>
</clipPath>
</defs>
</svg>
