<svg width="1920" height="1080" viewBox="0 0 1920 1080" fill="none" xmlns="http://www.w3.org/2000/svg">
<rect width="1920" height="1080" fill="black"/>
<g clip-path="url(#clip0_622_894)">
<path d="M1681 216H230V865H1681V216Z" fill="black"/>
<path d="M437.975 553.275V472.616L451.767 509.631L369.018 369.583H434.252L490.659 465.296H452.318L509.277 369.583H568.994L486.245 509.631L500.037 472.616V553.275H437.975Z" fill="white"/>
<path d="M638.503 555.9C622.686 556.254 607.005 552.896 592.715 546.094C580.393 540.294 569.897 531.217 562.374 519.852C555.433 508.276 551.765 495.028 551.765 481.525C551.765 468.022 555.433 454.774 562.374 443.198C569.429 431.946 579.452 422.864 591.336 416.957C604.171 410.518 618.357 407.251 632.711 407.427C646.223 407.346 659.591 410.222 671.879 415.852C683.61 421.356 693.587 430.009 700.703 440.85C708.347 453.273 712.094 467.707 711.46 482.285C711.46 484.356 711.46 486.704 711.46 489.19C711.46 491.677 711.46 494.163 711.46 496.234H601.128V466.678H679.602L657.535 474.274C657.612 469.496 656.573 464.767 654.501 460.463C652.675 456.735 649.86 453.581 646.364 451.347C642.536 449.056 638.134 447.906 633.676 448.032C629.221 447.929 624.825 449.077 620.988 451.347C617.423 453.539 614.553 456.7 612.713 460.463C610.748 464.798 609.759 469.513 609.817 474.274V483.113C609.641 488.6 610.927 494.034 613.541 498.858C615.91 503.189 619.576 506.667 624.022 508.803C629.25 511.031 634.892 512.114 640.572 511.979C646.161 512.181 651.735 511.29 656.984 509.355C661.936 507.411 666.581 504.759 670.775 501.483L701.806 532.697C694.613 540.382 685.738 546.292 675.878 549.961C663.888 554.216 651.22 556.229 638.503 555.9Z" fill="white"/>
<path d="M730.354 553.276V358.534H789.658V553.276H730.354Z" fill="white"/>
<path d="M1005.49 407.012C1015.65 406.828 1025.69 409.152 1034.73 413.78C1043.59 418.367 1050.74 425.676 1055.14 434.635C1060.67 446.065 1063.27 458.688 1062.73 471.374V553.276H1003.43V481.594C1004 474.933 1002.46 468.261 999.012 462.534C997.688 460.717 995.94 459.251 993.921 458.264C991.902 457.277 989.673 456.799 987.427 456.872C984.12 456.87 980.876 457.778 978.049 459.496C975.036 461.538 972.687 464.419 971.291 467.783C969.433 472.671 968.589 477.887 968.809 483.113V553.276H909.643V481.594C910.213 474.969 908.771 468.325 905.506 462.534C904.155 460.677 902.363 459.186 900.292 458.198C898.221 457.209 895.937 456.753 893.645 456.872C890.338 456.87 887.094 457.778 884.267 459.496C881.22 461.5 878.861 464.392 877.509 467.783C875.651 472.671 874.807 477.887 875.027 483.113V553.276H815.861V409.36H872.131V450.795L860.684 439.193C865.368 429.141 872.897 420.689 882.336 414.885C891.607 409.555 902.126 406.79 912.815 406.874C924.698 406.664 936.355 410.138 946.191 416.818C956.452 424.283 963.462 435.406 965.775 447.894L947.156 445.132C952.048 433.914 960.039 424.33 970.188 417.509C980.617 410.497 992.933 406.836 1005.49 407.012Z" fill="white"/>
<path d="M1166.72 555.9C1151.76 556.219 1136.95 552.902 1123.55 546.232C1111.53 540.247 1101.33 531.136 1094.04 519.852C1086.78 508.337 1083.08 494.931 1083.42 481.318C1083.08 467.706 1086.78 454.3 1094.04 442.784C1101.3 431.506 1111.51 422.432 1123.55 416.543C1137.08 410.261 1151.81 407.007 1166.72 407.007C1181.63 407.007 1196.36 410.261 1209.88 416.543C1221.98 422.353 1232.2 431.445 1239.4 442.784C1246.35 454.433 1250.02 467.749 1250.02 481.318C1250.02 494.888 1246.35 508.204 1239.4 519.852C1232.17 531.195 1221.96 540.323 1209.88 546.232C1196.49 552.902 1181.67 556.219 1166.72 555.9ZM1166.72 509.632C1170.85 509.73 1174.92 508.627 1178.44 506.455C1182.15 504.219 1185.09 500.892 1186.85 496.925C1189.07 492.028 1190.15 486.693 1190.02 481.318C1190.2 475.939 1189.11 470.593 1186.85 465.711C1185.04 461.847 1182.11 458.621 1178.44 456.458C1174.92 454.286 1170.85 453.183 1166.72 453.281C1162.54 453.18 1158.42 454.282 1154.86 456.458C1151.25 458.701 1148.34 461.905 1146.44 465.711C1144.23 470.607 1143.19 475.95 1143.41 481.318C1143.24 486.683 1144.28 492.017 1146.44 496.925C1148.29 500.833 1151.21 504.137 1154.86 506.455C1158.42 508.631 1162.54 509.733 1166.72 509.632Z" fill="white"/>
<path d="M550.376 723.018C551.065 723.018 551.893 722.189 552.582 720.67C553.436 718.233 553.81 715.654 553.686 713.074V633.52C553.868 630.926 553.443 628.325 552.444 625.924C551.755 624.404 550.927 623.714 550.238 623.576H604.438C612.446 623.268 620.43 624.632 627.884 627.581C633.232 629.954 637.645 634.033 640.434 639.183C642.931 644.741 644.222 650.766 644.222 656.861C644.222 662.956 642.931 668.982 640.434 674.54C637.645 679.689 633.232 683.769 627.884 686.142C620.479 689.091 612.539 690.455 604.576 690.147H574.787V713.212C574.662 715.792 575.036 718.371 575.89 720.808C576.717 722.328 577.545 723.156 578.234 723.156L550.376 723.018ZM581.269 675.369H598.646C603.98 675.655 609.319 674.905 614.368 673.159C617.486 671.898 620.036 669.541 621.54 666.529C622.944 663.409 623.604 660.005 623.47 656.585C623.593 653.152 622.883 649.74 621.402 646.641C619.702 643.839 617.062 641.734 613.954 640.702C609.171 639.27 604.188 638.617 599.198 638.768H581.269C579.304 638.458 577.303 638.458 575.338 638.768C575.338 638.768 574.511 640.564 574.511 642.774V670.397C574.511 672.606 574.511 673.849 575.338 674.402C577.232 675.113 579.247 675.442 581.269 675.369Z" fill="white"/>
<path d="M657.535 723.018C658.363 723.018 659.052 722.19 659.742 720.671C660.392 718.241 660.579 715.711 660.294 713.212V657C660.437 654.464 660.062 651.926 659.19 649.542C658.501 648.022 657.811 647.194 656.984 647.055C661.607 647.163 666.228 646.792 670.775 645.951C673.88 645.544 676.932 644.803 679.878 643.741V651.613V654.376C681.381 652.398 683.144 650.633 685.118 649.127C687.445 647.359 690.057 646.004 692.842 645.122C696.116 643.958 699.573 643.396 703.047 643.465C707.736 643.413 712.4 644.16 716.839 645.674C719.887 646.691 722.734 648.234 725.252 650.232L721.39 667.082V671.778C719.592 669.405 717.455 667.31 715.046 665.563C712.192 663.44 709.089 661.677 705.806 660.314C702.468 658.816 698.844 658.062 695.186 658.105C693.114 658.06 691.058 658.484 689.172 659.345C687.285 660.206 685.617 661.481 684.291 663.077C680.933 667.812 679.369 673.589 679.878 679.374V713.212C679.753 715.792 680.127 718.371 680.981 720.809C680.981 722.328 682.498 723.157 683.188 723.157L657.535 723.018Z" fill="white"/>
<path d="M776.556 724.676C769.263 724.907 761.985 723.879 755.041 721.637C750.097 720.213 745.606 717.53 742.005 713.851C738.404 710.172 735.815 705.622 734.492 700.644C733.172 695.313 732.524 689.838 732.561 684.346C732.053 673.433 735.87 662.761 743.18 654.652C747.46 650.786 752.477 647.826 757.928 645.951C763.379 644.076 769.152 643.324 774.901 643.74C781.736 643.459 788.552 644.636 794.898 647.193C799.519 649.048 803.531 652.157 806.483 656.171C809.199 659.763 811.083 663.914 812 668.325C813.031 672.855 813.54 677.49 813.517 682.136V689.871C813.517 689.871 812 689.871 808.966 688.766C803.867 688.473 798.756 688.473 793.657 688.766H752.283C752.082 691.984 752.582 695.207 753.749 698.212C754.916 701.217 756.722 703.932 759.041 706.168C764.836 710.824 772.183 713.095 779.59 712.522C786.326 712.694 793.043 711.714 799.45 709.621C803.542 708.397 807.375 706.431 810.759 703.82V707.826L812.414 719.289C808.429 721.277 804.213 722.761 799.863 723.709C792.155 724.905 784.337 725.23 776.556 724.676ZM758.213 675.369H794.623C794.627 672.509 794.015 669.683 792.83 667.082C791.678 664.11 789.598 661.591 786.899 659.9C783.284 657.741 779.101 656.73 774.901 657C770.971 656.911 767.069 657.664 763.454 659.209C760.601 660.486 758.095 662.428 756.144 664.872C754.74 666.895 754.015 669.314 754.076 671.778C754.054 672.249 754.142 672.72 754.334 673.151C754.525 673.583 754.815 673.964 755.179 674.264C756.054 674.935 757.113 675.32 758.213 675.369Z" fill="white"/>
<path d="M826.343 723.018C827.17 723.018 827.86 722.189 828.687 720.67C829.481 718.221 829.808 715.644 829.653 713.074V656.999C829.825 654.474 829.497 651.939 828.687 649.541C827.86 648.022 827.17 647.193 826.343 647.055C830.965 647.151 835.586 646.78 840.134 645.95C843.232 645.508 846.281 644.768 849.237 643.74V653.823V656.032C850.629 654.094 852.198 652.291 853.926 650.646C856.198 648.491 858.868 646.802 861.787 645.674C865.729 644.321 869.909 643.804 874.061 644.155C878.393 643.869 882.737 644.51 886.803 646.034C890.868 647.558 894.564 649.93 897.645 652.994C903.782 660.822 906.693 670.706 905.782 680.617V713.212C905.657 715.791 906.032 718.371 906.885 720.808C907.575 722.327 908.402 723.156 909.092 723.156H883.44C884.267 723.156 884.957 722.327 885.784 720.808C886.578 718.359 886.905 715.782 886.75 713.212V680.617C886.901 675.914 886.152 671.226 884.543 666.805C883.422 663.774 881.274 661.232 878.475 659.623C875.655 658.198 872.53 657.486 869.372 657.552C865.774 657.523 862.223 658.377 859.029 660.038C855.791 661.888 853.193 664.682 851.581 668.048C849.623 672.621 848.727 677.58 848.961 682.55V713.212C848.805 715.782 849.133 718.359 849.926 720.808C850.754 722.327 851.443 723.156 852.271 723.156L826.343 723.018ZM940.26 723.018C941.088 723.018 941.777 722.189 942.467 720.67C943.321 718.233 943.695 715.653 943.57 713.074V681.031C943.727 676.34 943.026 671.659 941.502 667.22C940.438 664.09 938.348 661.412 935.571 659.623C932.747 657.913 929.492 657.05 926.193 657.137C923.456 657.047 920.731 657.529 918.19 658.551C915.65 659.574 913.35 661.115 911.436 663.076C907.154 668.615 905.133 675.576 905.782 682.55L897.231 671.501C897.617 668.537 898.454 665.649 899.714 662.938C901.228 659.59 903.278 656.511 905.782 653.823C908.661 650.759 912.133 648.315 915.987 646.641C920.713 644.737 925.796 643.889 930.882 644.155C936.907 643.966 942.882 645.296 948.26 648.022C953.07 650.666 956.857 654.848 959.017 659.9C961.651 666.621 962.872 673.815 962.603 681.031V713.212C962.478 715.791 962.852 718.371 963.706 720.808C963.706 722.327 965.085 723.156 965.913 723.156L940.26 723.018Z" fill="white"/>
<path d="M989.91 630.344C988.406 630.444 986.898 630.239 985.476 629.741C984.054 629.242 982.748 628.461 981.635 627.444C979.731 625.484 978.666 622.858 978.666 620.123C978.666 617.389 979.731 614.763 981.635 612.803C982.768 611.775 984.098 610.988 985.544 610.49C986.99 609.991 988.522 609.792 990.048 609.903C991.551 609.803 993.059 610.008 994.481 610.506C995.903 611.005 997.21 611.786 998.323 612.803C999.284 613.757 1000.04 614.9 1000.54 616.16C1001.03 617.419 1001.27 618.769 1001.22 620.123C1001.24 621.475 1001 622.818 1000.5 624.074C1000.01 625.331 999.265 626.476 998.323 627.444C997.18 628.458 995.849 629.237 994.405 629.735C992.961 630.233 991.434 630.44 989.91 630.344ZM978.601 722.743C979.428 722.743 980.118 721.914 980.945 720.395C981.799 717.957 982.173 715.378 982.049 712.798V655.343C982.192 652.807 981.816 650.269 980.945 647.884C980.256 646.365 979.566 645.537 978.739 645.398H1001.08V713.213C1000.96 715.792 1001.33 718.372 1002.18 720.809C1002.18 722.328 1003.56 723.157 1004.39 723.157L978.601 722.743Z" fill="white"/>
<path d="M1051.42 724.676C1045.67 724.832 1039.95 723.65 1034.73 721.223C1029.84 718.754 1026.01 714.579 1023.97 709.483C1020.97 701.895 1019.65 693.741 1020.11 685.59V655.343C1020.31 652.76 1019.93 650.166 1019.01 647.746C1018.32 646.227 1017.63 645.398 1016.8 645.398H1042.87C1042.04 645.398 1041.21 646.227 1040.39 647.746C1039.4 650.151 1038.98 652.749 1039.15 655.343V688.49C1038.37 694.791 1040 701.151 1043.7 706.307C1045.18 707.929 1046.99 709.213 1049.02 710.071C1051.04 710.929 1053.22 711.341 1055.42 711.279C1060.32 711.54 1065.16 710.181 1069.21 707.412C1072.78 704.783 1075.58 701.257 1077.35 697.191C1079.21 692.586 1080.15 687.658 1080.11 682.689V655.066C1080.25 652.531 1079.87 649.993 1079 647.608C1078.31 646.089 1077.62 645.26 1076.8 645.122H1098.86V713.213C1098.74 715.792 1099.11 718.372 1099.97 720.809C1099.97 722.328 1101.34 723.157 1102.17 723.157H1079.55V714.317V711.003C1078.55 712.666 1077.35 714.197 1075.97 715.56C1074.19 717.319 1072.19 718.85 1070.04 720.118C1067.53 721.726 1064.78 722.937 1061.9 723.709C1058.47 724.548 1054.94 724.874 1051.42 724.676Z" fill="white"/>
<path d="M1115.14 723.019C1115.14 723.019 1116.65 722.19 1117.34 720.671C1118.2 718.234 1118.57 715.654 1118.45 713.074V657C1118.59 654.465 1118.21 651.927 1117.34 649.542C1117.34 648.023 1115.83 647.194 1115.14 647.056C1119.76 647.151 1124.38 646.781 1128.93 645.951C1132.03 645.544 1135.08 644.803 1138.03 643.741V653.823V656.033C1139.46 654.128 1141.03 652.328 1142.72 650.647C1144.99 648.492 1147.66 646.803 1150.58 645.675C1154.56 644.061 1158.84 643.308 1163.13 643.465C1167.47 643.152 1171.82 643.78 1175.89 645.306C1179.96 646.831 1183.65 649.218 1186.71 652.304C1192.9 660.112 1195.86 669.998 1194.99 679.927V713.213C1194.79 715.795 1195.17 718.389 1196.09 720.809C1196.09 722.328 1197.47 723.157 1198.3 723.157H1172.23C1173.06 723.157 1173.75 722.328 1174.44 720.809C1175.29 718.372 1175.67 715.792 1175.54 713.213V680.618C1175.63 675.919 1174.88 671.243 1173.34 666.806C1172.12 663.788 1169.94 661.261 1167.13 659.624C1164.36 658.199 1161.28 657.487 1158.17 657.552C1154.57 657.524 1151.02 658.378 1147.82 660.039C1144.52 661.804 1141.9 664.623 1140.37 668.049C1138.36 672.608 1137.42 677.57 1137.62 682.551V713.213C1137.49 715.792 1137.87 718.372 1138.72 720.809C1138.72 722.328 1140.1 723.157 1140.93 723.157L1115.14 723.019ZM1228.92 723.019C1229.74 723.019 1230.43 722.19 1231.26 720.671C1232.05 718.221 1232.38 715.645 1232.23 713.074V681.032C1232.45 676.337 1231.75 671.643 1230.16 667.22C1229.09 664.09 1227 661.413 1224.23 659.624C1221.45 657.917 1218.24 657.054 1214.99 657.138C1212.25 657.039 1209.52 657.517 1206.98 658.54C1204.44 659.563 1202.14 661.109 1200.23 663.077C1195.91 668.652 1193.89 675.669 1194.58 682.689L1185.89 671.64C1186.26 668.656 1187.15 665.759 1188.51 663.077C1190.02 659.729 1192.07 656.65 1194.58 653.961C1197.43 650.867 1200.91 648.418 1204.78 646.78C1209.45 644.84 1214.49 643.945 1219.54 644.155C1225.57 643.931 1231.55 645.262 1236.91 648.023C1241.73 650.667 1245.51 654.848 1247.67 659.9C1250.37 666.603 1251.6 673.812 1251.26 681.032V713.213C1251.13 715.792 1251.51 718.372 1252.36 720.809C1253.05 722.328 1253.88 723.157 1254.57 723.157L1228.92 723.019Z" fill="white"/>
<path d="M1321.18 390.853L1539.36 443.474L1357.59 570.539L1321.18 390.853Z" fill="white"/>
</g>
<defs>
<clipPath id="clip0_622_894">
<rect width="1451" height="649" fill="white" transform="translate(230 216)"/>
</clipPath>
</defs>
</svg>
