<svg width="1920" height="1080" viewBox="0 0 1920 1080" fill="none" xmlns="http://www.w3.org/2000/svg">
<rect width="1920" height="1080" fill="black"/>
<g clip-path="url(#clip0_622_756)">
<path d="M1681 214H230V866H1681V214Z" fill="black"/>
<path d="M419.633 753.471L443.768 648.158H457.559L453.835 668.416L452.043 669.526C453.123 665.1 455.094 660.944 457.835 657.316C460.545 653.974 463.992 651.313 467.903 649.545C471.962 647.82 476.322 646.924 480.729 646.909C485.589 646.796 490.378 648.097 494.52 650.655C498.601 653.298 501.853 657.051 503.898 661.478C506.368 666.765 507.55 672.568 507.346 678.406C507.361 684.39 506.43 690.338 504.588 696.028C502.724 701.047 500.07 705.732 496.727 709.903C493.559 713.987 489.562 717.345 485.004 719.754C480.489 722.103 475.468 723.295 470.385 723.223C466.057 723.318 461.764 722.416 457.835 720.587C454.219 718.883 451.193 716.128 449.146 712.678C446.846 708.912 445.562 704.608 445.423 700.19L447.905 697.693L435.355 753.194L419.633 753.471ZM468.317 711.013C471.505 711.055 474.647 710.241 477.419 708.654C480.386 706.879 482.965 704.519 485.004 701.717C487.148 698.606 488.821 695.192 489.969 691.588C491.21 687.592 491.815 683.424 491.762 679.239C491.893 675.55 491.136 671.885 489.555 668.555C488.262 665.759 486.143 663.434 483.487 661.894C480.766 660.306 477.668 659.491 474.523 659.536C471.141 659.491 467.809 660.353 464.869 662.033C461.915 663.775 459.374 666.142 457.421 668.971C455.242 672.092 453.609 675.564 452.594 679.239C451.43 683.346 450.826 687.594 450.801 691.865C450.537 696.901 452.161 701.853 455.353 705.74C456.956 707.574 458.963 709.006 461.214 709.922C463.465 710.837 465.897 711.211 468.317 711.013Z" fill="white"/>
<path d="M549.41 723.501C544.349 723.677 539.348 722.349 535.032 719.684C530.715 717.02 527.274 713.135 525.137 708.515C522.652 703.279 521.423 697.528 521.552 691.726C521.479 685.874 522.412 680.053 524.31 674.521C526.028 669.492 528.594 664.799 531.895 660.646C535.112 656.556 539.155 653.198 543.756 650.794C548.402 648.385 553.561 647.146 558.789 647.187C562.523 647.131 566.23 647.839 569.684 649.268C572.911 650.637 575.787 652.724 578.097 655.373C580.396 658.23 581.96 661.614 582.648 665.225L586.509 648.713H602.37L585.268 722.946H571.477L574.097 709.07C571.675 713.537 568.163 717.309 563.891 720.032C559.521 722.627 554.474 723.836 549.41 723.501ZM554.927 710.874C558.083 710.863 561.179 710.001 563.891 708.377C566.775 706.593 569.263 704.231 571.201 701.439C573.344 698.278 575.017 694.819 576.166 691.171C577.424 687.176 578.074 683.013 578.097 678.822C578.199 675.27 577.442 671.747 575.89 668.555C574.613 665.756 572.552 663.393 569.96 661.756C567.256 660.127 564.146 659.308 560.995 659.397C557.568 659.334 554.187 660.196 551.203 661.894C548.18 663.592 545.585 665.966 543.618 668.832C541.449 671.928 539.773 675.345 538.653 678.961C537.482 682.83 536.878 686.85 536.86 690.894C536.745 694.611 537.451 698.308 538.929 701.717C540.221 704.548 542.337 706.919 544.997 708.515C548.013 710.245 551.46 711.064 554.927 710.874Z" fill="white"/>
<path d="M642.779 724.056C637.563 724.063 632.386 723.172 627.47 721.42C623.012 719.95 618.907 717.562 615.417 714.409C611.926 711.256 609.127 707.406 607.197 703.104L619.057 695.75C620.818 700.49 623.999 704.563 628.16 707.405C632.243 710.141 637.045 711.59 641.951 711.568C645.649 711.781 649.318 710.81 652.433 708.793C653.604 708.033 654.561 706.983 655.213 705.744C655.865 704.505 656.19 703.118 656.156 701.717C656.2 700.741 656.038 699.767 655.682 698.858C655.325 697.949 654.782 697.127 654.088 696.444C652.286 694.842 650.099 693.742 647.743 693.253L635.883 689.645C630.635 688.374 625.853 685.631 622.091 681.736C619.075 678.393 617.404 674.041 617.402 669.526C617.341 665.314 618.595 661.189 620.988 657.732C623.588 654.122 627.116 651.292 631.194 649.545C636.133 647.504 641.439 646.512 646.778 646.632C653.388 646.523 659.923 648.048 665.81 651.072C671.152 653.919 675.416 658.453 677.947 663.976L666.638 671.746C665.613 669.223 664.061 666.952 662.087 665.086C660.112 663.149 657.766 661.639 655.191 660.646C652.435 659.51 649.48 658.944 646.502 658.981C642.749 658.709 639 659.579 635.745 661.478C634.634 662.156 633.718 663.115 633.089 664.259C632.46 665.403 632.139 666.692 632.159 668C632.102 669.12 632.34 670.236 632.848 671.235C633.357 672.234 634.118 673.08 635.055 673.689C637.068 675.087 639.308 676.12 641.675 676.741L655.467 681.042C660.011 682.213 664.127 684.668 667.327 688.119C670.152 691.218 671.683 695.292 671.603 699.497C671.791 704.075 670.567 708.6 668.098 712.451C665.628 716.301 662.035 719.289 657.811 721.003C653.058 723.036 647.943 724.075 642.779 724.056Z" fill="white"/>
<path d="M718.907 724.056C713.647 724.074 708.422 723.182 703.461 721.42C699.003 719.95 694.898 717.562 691.408 714.409C687.917 711.256 685.118 707.406 683.188 703.104L695.048 695.75C696.809 700.49 699.989 704.563 704.151 707.405C708.234 710.141 713.036 711.59 717.942 711.568C721.64 711.781 725.309 710.81 728.424 708.793C729.595 708.033 730.552 706.983 731.204 705.744C731.856 704.505 732.181 703.118 732.147 701.717C732.191 700.741 732.029 699.767 731.673 698.858C731.316 697.949 730.773 697.127 730.078 696.444C728.276 694.842 726.089 693.742 723.734 693.253L712.701 689.645C707.204 688.506 702.165 685.754 698.22 681.736C695.243 678.38 693.619 674.025 693.669 669.526C693.558 665.328 694.764 661.201 697.117 657.732C699.717 654.122 703.245 651.292 707.323 649.545C712.262 647.504 717.568 646.512 722.907 646.632C729.517 646.523 736.052 648.048 741.939 651.072C747.281 653.919 751.545 658.453 754.076 663.976L742.767 671.746C741.742 669.223 740.189 666.952 738.215 665.086C736.241 663.149 733.894 661.639 731.32 660.646C728.564 659.51 725.609 658.944 722.631 658.981C718.878 658.709 715.129 659.579 711.874 661.478C710.762 662.156 709.847 663.115 709.218 664.259C708.589 665.403 708.268 666.692 708.288 668C708.231 669.12 708.469 670.236 708.977 671.235C709.486 672.234 710.247 673.08 711.184 673.689C713.197 675.087 715.437 676.12 717.804 676.741L731.596 681.042C736.14 682.213 740.256 684.668 743.456 688.119C746.281 691.218 747.812 695.292 747.732 699.497C747.896 704.112 746.644 708.666 744.146 712.539C741.597 716.319 738 719.263 733.802 721.003C729.093 723.022 724.026 724.06 718.907 724.056Z" fill="white"/>
<path d="M811.31 660.645L814.344 648.158H866.2L863.304 660.645H811.31ZM811.31 722.391L831.032 636.225C831.989 631.527 833.915 627.084 836.687 623.182C839.26 620.046 842.651 617.692 846.478 616.383C850.561 614.767 854.918 613.966 859.305 614.025C862.135 614.041 864.956 614.367 867.717 614.996C869.853 615.454 871.872 616.352 873.648 617.632L869.234 629.287C868.129 628.464 866.858 627.896 865.511 627.622C863.816 627.092 862.043 626.858 860.27 626.929C856.929 626.631 853.595 627.568 850.892 629.565C848.387 632.25 846.752 635.637 846.203 639.278L843.858 649.823V653.847L827.998 723.223L811.31 722.391Z" fill="white"/>
<path d="M895.576 723.501C890.711 723.512 885.937 722.167 881.785 719.616C877.495 716.938 874.052 713.088 871.855 708.516C869.369 703.279 868.141 697.528 868.269 691.727C868.266 685.88 869.197 680.07 871.027 674.521C872.793 669.485 875.405 664.792 878.751 660.646C881.919 656.562 885.915 653.204 890.473 650.794C895.125 648.4 900.28 647.163 905.506 647.187C909.284 647.139 913.035 647.847 916.539 649.268C919.726 650.638 922.557 652.727 924.814 655.373C927.114 658.23 928.677 661.614 929.365 665.225L933.365 648.158H949.087L931.986 722.391H918.194L920.677 708.516C918.308 712.976 914.842 716.75 910.609 719.477C906.129 722.343 900.879 723.748 895.576 723.501ZM901.093 710.874C904.249 710.863 907.345 710.001 910.057 708.377C912.941 706.593 915.429 704.232 917.367 701.439C919.608 698.316 921.331 694.849 922.469 691.172C923.681 687.169 924.285 683.006 924.262 678.823C924.337 675.288 923.631 671.781 922.194 668.555C920.828 665.815 918.786 663.474 916.263 661.756C913.551 660.148 910.447 659.331 907.299 659.397C903.873 659.347 900.495 660.209 897.507 661.895C894.54 663.67 891.96 666.03 889.922 668.832C887.752 671.928 886.077 675.345 884.957 678.961C883.833 682.837 883.275 686.857 883.302 690.894C883.116 694.616 883.826 698.329 885.37 701.717C886.612 704.539 888.681 706.911 891.301 708.516C894.282 710.205 897.674 711.023 901.093 710.874Z" fill="white"/>
<path d="M955.017 722.39L972.119 648.157H985.91L982.876 666.889L981.359 665.779C983.186 660.012 987.001 655.091 992.116 651.904C997.247 648.693 1003.18 647.009 1009.22 647.047C1014.07 646.876 1018.86 648.13 1023.01 650.655C1026.76 653.158 1029.53 656.881 1030.87 661.2C1032.46 666.588 1032.46 672.324 1030.87 677.712L1020.39 722.806H1004.25L1014.6 678.544C1015.42 676.282 1015.73 673.866 1015.52 671.467C1015.3 669.069 1014.56 666.748 1013.36 664.669C1012.17 662.982 1010.56 661.635 1008.7 660.759C1006.84 659.884 1004.78 659.51 1002.74 659.674C999.045 659.554 995.395 660.478 992.201 662.343C989.007 664.207 986.397 666.936 984.669 670.219C982.475 674.241 980.806 678.532 979.704 682.984L970.74 722.39H955.017ZM1053.63 722.39L1063.83 678.128C1064.57 675.852 1064.85 673.447 1064.63 671.062C1064.42 668.676 1063.72 666.359 1062.59 664.253C1061.45 662.588 1059.89 661.252 1058.08 660.376C1056.26 659.501 1054.25 659.115 1052.25 659.258C1048.54 659.208 1044.88 660.115 1041.63 661.894C1038.48 663.844 1035.87 666.565 1034.04 669.803C1031.72 673.75 1030.09 678.067 1029.22 682.568L1027.7 668.693C1029.89 662.025 1034.2 656.27 1039.97 652.32C1045.48 648.623 1051.97 646.688 1058.59 646.77C1063.44 646.574 1068.24 647.829 1072.38 650.377C1076.13 652.88 1078.9 656.604 1080.24 660.923C1081.78 666.318 1081.78 672.039 1080.24 677.434L1069.76 722.529L1053.63 722.39Z" fill="white"/>
<path d="M1126.45 648.158L1108.52 722.39H1092.79L1109.9 648.158H1126.45ZM1122.72 635.67C1120.12 635.793 1117.57 634.954 1115.55 633.311C1114.7 632.469 1114.05 631.446 1113.64 630.317C1113.24 629.189 1113.09 627.984 1113.21 626.79C1113.17 625.291 1113.45 623.801 1114.02 622.416C1114.59 621.031 1115.44 619.779 1116.52 618.742C1118.67 616.819 1121.5 615.823 1124.38 615.967C1126.92 615.786 1129.43 616.579 1131.41 618.187C1132.31 618.968 1133 619.957 1133.44 621.069C1133.87 622.181 1134.03 623.383 1133.89 624.57C1133.92 626.109 1133.64 627.64 1133.08 629.069C1132.51 630.499 1131.66 631.8 1130.58 632.895C1129.41 633.907 1128.05 634.674 1126.59 635.15C1125.12 635.627 1123.57 635.803 1122.03 635.67H1122.72Z" fill="white"/>
<path d="M1154.03 723.501C1151.11 723.838 1148.16 723.416 1145.46 722.273C1142.75 721.131 1140.38 719.308 1138.58 716.98C1137.05 714.391 1136.1 711.5 1135.79 708.506C1135.48 705.511 1135.82 702.485 1136.79 699.636L1156.37 614.58H1172.23L1152.51 699.636C1151.97 701.011 1151.76 702.496 1151.91 703.968C1152.05 705.44 1152.54 706.857 1153.34 708.1C1154.35 709.036 1155.55 709.743 1156.86 710.174C1158.17 710.605 1159.56 710.749 1160.92 710.597H1164.51C1165.42 710.764 1166.36 710.764 1167.27 710.597L1163.96 722.252L1159.41 723.501H1154.03Z" fill="white"/>
<path d="M1174.72 754.304C1171.22 754.397 1167.72 753.929 1164.37 752.917C1161.69 752.239 1159.19 750.958 1157.06 749.17L1162.58 736.96C1165.7 739.945 1169.86 741.587 1174.16 741.539C1177.01 741.602 1179.8 740.778 1182.16 739.18C1184.84 737.147 1187.09 734.601 1188.78 731.687L1194.58 722.391L1181.61 648.158H1197.33L1202.71 689.784L1205.06 708.238L1214.85 690.755L1238.85 648.158H1256.22L1202.99 734.324C1200.57 738.543 1197.6 742.416 1194.16 745.84C1191.55 748.582 1188.4 750.754 1184.92 752.223C1181.69 753.589 1178.22 754.297 1174.72 754.304Z" fill="white"/>
<path d="M1504.88 573.648C1497.55 573.647 1490.26 574.722 1483.23 576.839C1483.23 576.839 1419.51 585.303 1426.13 518.84V517.314C1430.49 504.813 1436.98 493.169 1445.3 482.903C1453.84 474.08 1464.4 467.504 1476.06 463.755C1493.33 460.349 1508.89 451.016 1520.08 437.351C1531.28 423.686 1537.41 406.536 1537.43 388.829C1537.43 380.144 1534 371.815 1527.9 365.674C1521.79 359.533 1513.52 356.083 1504.88 356.083C1488.18 356.055 1471.93 361.575 1458.67 371.786C1445.4 381.997 1435.86 396.328 1431.51 412.556C1428.24 425.491 1421.68 437.349 1412.48 446.966C1403.89 456.045 1393.17 462.818 1381.31 466.669C1364.2 470.216 1348.84 479.594 1337.81 493.22C1326.78 506.845 1320.76 523.884 1320.77 541.457C1320.77 550.142 1324.2 558.471 1330.3 564.612C1336.4 570.753 1344.68 574.203 1353.31 574.203C1360.56 574.1 1367.75 572.979 1374.69 570.873C1374.69 570.873 1438.82 561.715 1432.34 628.178C1430.23 635.243 1429.16 642.583 1429.17 649.962C1429.17 654.262 1430.01 658.52 1431.65 662.493C1433.28 666.466 1435.68 670.076 1438.7 673.116C1441.72 676.157 1445.31 678.569 1449.26 680.215C1453.21 681.861 1457.44 682.707 1461.72 682.707C1481.83 682.707 1501.13 674.667 1515.35 660.356C1529.58 646.044 1537.57 626.633 1537.57 606.393C1537.57 602.081 1536.72 597.812 1535.08 593.83C1533.43 589.848 1531.02 586.232 1527.99 583.189C1524.95 580.147 1521.35 577.738 1517.38 576.1C1513.42 574.463 1509.17 573.629 1504.88 573.648Z" fill="white"/>
<path d="M437.975 552.834V471.803L451.767 508.988L369.018 368.293H434.252L490.659 464.449H452.318L509.277 368.293H568.994L486.245 508.988L500.037 471.803V552.834H437.975Z" fill="white"/>
<path d="M638.503 555.471C622.686 555.827 607.005 552.453 592.716 545.619C580.393 539.793 569.897 530.674 562.374 519.256C555.197 507.807 551.505 494.495 551.755 480.961C551.424 467.285 555.118 453.817 562.374 442.248C569.429 430.944 579.452 421.82 591.336 415.885C604.171 409.417 618.357 406.135 632.711 406.311C646.223 406.231 659.591 409.119 671.879 414.775C683.61 420.305 693.587 428.998 700.703 439.89C708.347 452.37 712.095 466.87 711.46 481.516C711.46 483.597 711.46 485.956 711.46 488.453C711.46 490.951 711.46 493.448 711.46 495.53H601.128V465.836H679.602L657.535 473.468C657.613 468.668 656.574 463.917 654.501 459.593C652.675 455.847 649.86 452.679 646.364 450.435C642.536 448.133 638.134 446.978 633.676 447.105C629.221 447.001 624.825 448.154 620.988 450.435C617.423 452.637 614.553 455.813 612.713 459.593C610.748 463.948 609.759 468.685 609.817 473.468V482.348C609.641 487.86 610.927 493.319 613.541 498.166C615.91 502.517 619.576 506.01 624.022 508.156C629.25 510.394 634.892 511.482 640.572 511.347C646.16 511.536 651.732 510.641 656.984 508.711C661.936 506.758 666.581 504.094 670.775 500.802L701.806 532.16C694.613 539.882 685.738 545.819 675.878 549.504C663.888 553.779 651.22 555.802 638.503 555.471Z" fill="white"/>
<path d="M730.354 552.835V357.193H789.658V552.835H730.354Z" fill="white"/>
<path d="M1005.49 405.895C1015.65 405.709 1025.69 408.045 1034.73 412.694C1043.59 417.302 1050.74 424.645 1055.14 433.645C1060.61 445.142 1063.17 457.821 1062.59 470.554V552.834H1003.43V480.821C1004 474.13 1002.46 467.426 999.012 461.674C997.688 459.848 995.94 458.375 993.921 457.383C991.902 456.392 989.673 455.912 987.427 455.985C984.12 455.983 980.876 456.895 978.049 458.621C975.036 460.672 972.687 463.566 971.291 466.946C969.433 471.857 968.589 477.098 968.809 482.348V552.834H909.643V480.821C910.213 474.165 908.771 467.491 905.506 461.674C904.155 459.808 902.363 458.31 900.292 457.317C898.221 456.323 895.937 455.865 893.645 455.985C890.338 455.983 887.094 456.895 884.267 458.621C881.22 460.634 878.861 463.54 877.509 466.946C875.651 471.857 874.807 477.098 875.027 482.348V552.834H815.861V408.254H872.131V449.88L860.684 438.224C865.368 428.126 872.897 419.635 882.336 413.804C891.607 408.449 902.126 405.672 912.815 405.756C924.698 405.545 936.355 409.035 946.191 415.746C956.452 423.245 963.462 434.42 965.775 446.966L947.156 444.191C952.048 432.921 960.039 423.293 970.188 416.44C980.617 409.396 992.933 405.717 1005.49 405.895Z" fill="white"/>
<path d="M1166.72 555.471C1151.76 555.792 1136.95 552.459 1123.55 545.759C1111.53 539.746 1101.33 530.592 1094.04 519.257C1086.78 507.688 1083.08 494.22 1083.42 480.545C1083.08 466.87 1086.78 453.401 1094.04 441.833C1101.3 430.502 1111.51 421.386 1123.55 415.47C1137.08 409.159 1151.81 405.89 1166.72 405.89C1181.63 405.89 1196.36 409.159 1209.88 415.47C1221.98 421.307 1232.2 430.441 1239.4 441.833C1246.35 453.535 1250.02 466.913 1250.02 480.545C1250.02 494.177 1246.35 507.554 1239.4 519.257C1232.17 530.652 1221.96 539.822 1209.88 545.759C1196.49 552.459 1181.67 555.792 1166.72 555.471ZM1166.72 508.989C1170.85 509.088 1174.92 507.979 1178.44 505.798C1182.15 503.551 1185.09 500.209 1186.85 496.224C1189.07 491.304 1190.15 485.944 1190.02 480.545C1190.2 475.141 1189.11 469.77 1186.85 464.866C1185.04 460.983 1182.11 457.742 1178.44 455.569C1174.92 453.388 1170.85 452.279 1166.72 452.378C1162.54 452.276 1158.42 453.384 1154.86 455.569C1151.25 457.823 1148.34 461.042 1146.44 464.866C1144.23 469.783 1143.19 475.152 1143.41 480.545C1143.24 485.934 1144.28 491.293 1146.44 496.224C1148.29 500.15 1151.21 503.469 1154.86 505.798C1158.42 507.983 1162.54 509.091 1166.72 508.989Z" fill="white"/>
</g>
<defs>
<clipPath id="clip0_622_756">
<rect width="1451" height="652" fill="white" transform="translate(230 214)"/>
</clipPath>
</defs>
</svg>
