<svg width="1920" height="1080" viewBox="0 0 1920 1080" fill="none" xmlns="http://www.w3.org/2000/svg">
<rect width="1920" height="1080" fill="black"/>
<g clip-path="url(#clip0_622_775)">
<path d="M1681 214H230V866H1681V214Z" fill="black"/>
<path d="M437.975 552.834V471.803L451.767 508.988L369.018 368.293H434.252L490.659 464.449H452.318L509.277 368.293H568.994L486.245 508.988L500.037 471.803V552.834H437.975Z" fill="white"/>
<path d="M638.503 555.471C622.686 555.827 607.005 552.453 592.715 545.619C580.393 539.793 569.897 530.674 562.374 519.256C555.197 507.807 551.505 494.495 551.755 480.961C551.424 467.285 555.118 453.817 562.374 442.248C569.429 430.944 579.452 421.82 591.336 415.885C604.171 409.417 618.357 406.135 632.711 406.311C646.223 406.231 659.591 409.119 671.879 414.775C683.61 420.305 693.587 428.998 700.703 439.89C708.347 452.37 712.094 466.87 711.46 481.516C711.46 483.597 711.46 485.956 711.46 488.453C711.46 490.951 711.46 493.448 711.46 495.53H601.128V465.836H679.602L657.535 473.468C657.612 468.668 656.573 463.917 654.501 459.593C652.675 455.847 649.86 452.679 646.364 450.435C642.536 448.133 638.134 446.978 633.676 447.105C629.221 447.001 624.825 448.154 620.988 450.435C617.423 452.637 614.553 455.813 612.713 459.593C610.748 463.948 609.759 468.685 609.817 473.468V482.348C609.641 487.86 610.927 493.319 613.541 498.166C615.91 502.517 619.576 506.01 624.022 508.156C629.25 510.394 634.892 511.482 640.572 511.347C646.16 511.536 651.732 510.641 656.984 508.711C661.936 506.758 666.581 504.094 670.775 500.802L701.806 532.16C694.613 539.882 685.738 545.819 675.878 549.504C663.888 553.779 651.22 555.802 638.503 555.471Z" fill="white"/>
<path d="M730.354 552.835V357.193H789.658V552.835H730.354Z" fill="white"/>
<path d="M1005.49 405.895C1015.65 405.709 1025.69 408.045 1034.73 412.694C1043.59 417.302 1050.74 424.645 1055.14 433.645C1060.61 445.142 1063.17 457.821 1062.59 470.554V552.834H1003.43V480.821C1004 474.13 1002.46 467.426 999.012 461.674C997.688 459.848 995.94 458.375 993.921 457.383C991.902 456.392 989.673 455.912 987.427 455.985C984.12 455.983 980.876 456.895 978.049 458.621C975.036 460.672 972.687 463.566 971.291 466.946C969.433 471.857 968.589 477.098 968.809 482.348V552.834H909.643V480.821C910.213 474.165 908.771 467.491 905.506 461.674C904.155 459.808 902.363 458.31 900.292 457.317C898.221 456.323 895.936 455.865 893.645 455.985C890.338 455.983 887.094 456.895 884.267 458.621C881.22 460.634 878.861 463.54 877.509 466.946C875.651 471.857 874.807 477.098 875.027 482.348V552.834H815.861V408.254H872.131V449.88L860.684 438.224C865.368 428.126 872.897 419.635 882.336 413.804C891.607 408.449 902.126 405.672 912.815 405.756C924.698 405.545 936.355 409.035 946.191 415.746C956.452 423.245 963.462 434.42 965.775 446.966L947.156 444.191C952.048 432.921 960.039 423.293 970.188 416.44C980.617 409.396 992.933 405.717 1005.49 405.895Z" fill="white"/>
<path d="M1166.72 555.471C1151.76 555.792 1136.95 552.459 1123.55 545.759C1111.53 539.746 1101.33 530.592 1094.04 519.257C1086.78 507.688 1083.08 494.22 1083.42 480.545C1083.08 466.87 1086.78 453.401 1094.04 441.833C1101.3 430.502 1111.51 421.386 1123.55 415.47C1137.08 409.159 1151.81 405.89 1166.72 405.89C1181.63 405.89 1196.36 409.159 1209.88 415.47C1221.98 421.307 1232.2 430.441 1239.4 441.833C1246.35 453.535 1250.02 466.913 1250.02 480.545C1250.02 494.177 1246.35 507.554 1239.4 519.257C1232.17 530.652 1221.96 539.822 1209.88 545.759C1196.49 552.459 1181.67 555.792 1166.72 555.471ZM1166.72 508.989C1170.85 509.088 1174.92 507.979 1178.44 505.798C1182.15 503.551 1185.09 500.209 1186.85 496.224C1189.07 491.304 1190.15 485.944 1190.02 480.545C1190.2 475.141 1189.11 469.77 1186.85 464.866C1185.04 460.983 1182.11 457.742 1178.44 455.569C1174.92 453.388 1170.85 452.279 1166.72 452.378C1162.54 452.276 1158.42 453.384 1154.86 455.569C1151.25 457.823 1148.34 461.042 1146.44 464.866C1144.23 469.783 1143.19 475.152 1143.41 480.545C1143.24 485.934 1144.28 491.293 1146.44 496.224C1148.29 500.15 1151.21 503.469 1154.86 505.798C1158.42 507.983 1162.54 509.091 1166.72 508.989Z" fill="white"/>
<path d="M605.128 752.084L629.952 646.632H643.744L640.02 667.029L638.365 668C639.355 663.542 641.335 659.368 644.158 655.79C646.844 652.515 650.241 649.904 654.087 648.158C658.127 646.368 662.5 645.469 666.914 645.522C671.761 645.359 676.551 646.612 680.705 649.13C684.822 651.73 688.084 655.494 690.083 659.952C692.571 665.238 693.798 671.034 693.669 676.88C693.718 682.878 692.738 688.839 690.773 694.502C689.063 699.563 686.446 704.266 683.05 708.377C679.801 712.436 675.765 715.788 671.189 718.228C666.69 720.636 661.665 721.876 656.57 721.836C652.291 721.877 648.055 720.978 644.158 719.2C640.49 717.453 637.419 714.653 635.331 711.152C633.031 707.387 631.747 703.082 631.607 698.664L634.09 696.305L621.54 751.807L605.128 752.084ZM653.812 709.626C657.017 709.654 660.167 708.789 662.914 707.128C665.912 705.396 668.5 703.029 670.499 700.191C672.775 697.16 674.459 693.723 675.464 690.062C676.705 686.114 677.31 681.992 677.257 677.851C677.373 674.134 676.666 670.438 675.188 667.029C673.852 664.262 671.744 661.948 669.12 660.368C666.349 658.782 663.206 657.968 660.018 658.01C656.624 658.007 653.291 658.917 650.364 660.646C647.47 662.41 644.942 664.718 642.916 667.445C640.711 670.601 639.077 674.124 638.089 677.851C636.963 681.964 636.406 686.212 636.434 690.478C636.245 695.48 637.807 700.391 640.848 704.353C642.477 706.154 644.488 707.563 646.733 708.476C648.977 709.388 651.396 709.781 653.812 709.626Z" fill="white"/>
<path d="M735.043 722.113C730.166 722.075 725.393 720.683 721.252 718.089C716.968 715.467 713.521 711.662 711.322 707.128C708.865 701.881 707.638 696.137 707.736 690.339C707.721 684.491 708.653 678.68 710.495 673.133C711.93 667.712 714.311 662.591 717.528 658.009C720.697 653.925 724.693 650.567 729.251 648.158C733.909 645.779 739.06 644.542 744.284 644.55C748.062 644.502 751.812 645.21 755.317 646.631C758.524 647.965 761.363 650.06 763.592 652.737C765.891 655.594 767.455 658.977 768.143 662.588L772.005 646.076H787.865L770.625 720.864H756.834L759.317 706.989C756.944 711.409 753.476 715.138 749.249 717.812C745.045 720.637 740.099 722.135 735.043 722.113ZM740.422 709.486C743.603 709.516 746.722 708.599 749.387 706.85C752.301 705.107 754.797 702.738 756.696 699.913C758.963 696.806 760.689 693.334 761.799 689.645C763.019 685.692 763.624 681.573 763.592 677.435C763.683 673.854 762.976 670.298 761.523 667.028C760.193 664.302 758.141 661.997 755.593 660.368C752.92 658.653 749.797 657.783 746.628 657.87C743.183 657.806 739.789 658.72 736.836 660.507C733.874 662.229 731.292 664.543 729.251 667.306C727.108 670.416 725.434 673.83 724.286 677.435C723.177 681.314 722.62 685.331 722.631 689.367C722.516 693.084 723.222 696.781 724.7 700.19C725.932 703.054 728.001 705.473 730.63 707.128C733.595 708.73 736.919 709.542 740.284 709.486H740.422Z" fill="white"/>
<path d="M828.412 722.529C823.159 722.591 817.934 721.747 812.965 720.032C808.463 718.441 804.332 715.938 800.829 712.678C797.391 709.576 794.622 705.798 792.692 701.577L804.553 694.362C806.31 699.163 809.545 703.273 813.788 706.094C818.03 708.914 823.057 710.297 828.136 710.041C831.816 710.268 835.476 709.347 838.618 707.405C839.756 706.589 840.678 705.504 841.303 704.246C841.928 702.989 842.237 701.596 842.203 700.19C842.23 699.216 842.061 698.247 841.705 697.341C841.35 696.434 840.815 695.61 840.135 694.917C838.284 693.389 836.116 692.299 833.79 691.726L822.068 688.257C816.816 686.919 812.039 684.131 808.276 680.209C805.275 676.867 803.648 672.503 803.725 667.999C803.641 663.805 804.845 659.686 807.173 656.205C809.771 652.626 813.304 649.841 817.379 648.158C822.333 645.992 827.701 644.95 833.101 645.105C839.71 644.996 846.246 646.521 852.133 649.545C857.485 652.401 861.715 656.999 864.132 662.588L852.823 670.219C851.729 667.735 850.186 665.476 848.272 663.559C846.283 661.64 843.94 660.132 841.376 659.119C838.665 657.994 835.757 657.428 832.825 657.454C829.028 657.188 825.237 658.057 821.93 659.951C820.844 660.646 819.956 661.612 819.352 662.755C818.747 663.898 818.448 665.179 818.482 666.473C818.424 667.579 818.647 668.681 819.129 669.677C819.612 670.672 820.338 671.527 821.24 672.162C823.306 673.499 825.53 674.571 827.86 675.353L841.652 679.654C846.23 680.761 850.395 683.17 853.65 686.592C856.394 689.741 857.912 693.782 857.926 697.97C858.068 702.602 856.766 707.163 854.202 711.013C851.653 714.793 848.056 717.736 843.858 719.476C838.999 721.637 833.722 722.68 828.412 722.529Z" fill="white"/>
<path d="M904.403 722.529C899.15 722.592 893.925 721.747 888.956 720.032C884.453 718.441 880.323 715.938 876.82 712.678C873.382 709.576 870.613 705.798 868.683 701.578L880.681 694.363C882.466 699.05 885.584 703.104 889.646 706.018C893.972 708.767 899.011 710.167 904.127 710.042C907.809 710.287 911.474 709.365 914.608 707.405C915.85 706.559 916.839 705.388 917.471 704.02C918.102 702.651 918.352 701.136 918.194 699.635C918.221 698.661 918.051 697.692 917.696 696.786C917.34 695.88 916.806 695.055 916.125 694.363C914.275 692.835 912.107 691.744 909.781 691.171L898.058 687.702C892.774 686.444 887.976 683.645 884.267 679.655C881.179 676.357 879.496 671.975 879.578 667.444C879.494 663.25 880.698 659.131 883.026 655.65C885.624 652.071 889.156 649.286 893.231 647.603C898.186 645.437 903.554 644.395 908.954 644.55C915.563 644.442 922.098 645.966 927.986 648.99C933.35 651.873 937.617 656.458 940.122 662.033L928.675 669.665C927.582 667.18 926.039 664.921 924.124 663.004C922.136 661.086 919.793 659.577 917.229 658.564C914.518 657.44 911.61 656.873 908.678 656.899C904.882 656.65 901.096 657.517 897.783 659.397C896.697 660.092 895.809 661.057 895.204 662.2C894.6 663.343 894.3 664.624 894.335 665.918C894.277 667.024 894.499 668.127 894.982 669.122C895.464 670.117 896.191 670.972 897.093 671.607C899.159 672.944 901.383 674.016 903.713 674.798L917.504 679.1C922.082 680.207 926.248 682.615 929.503 686.037C932.247 689.186 933.765 693.228 933.778 697.415C933.921 702.047 932.618 706.608 930.055 710.458C927.505 714.238 923.909 717.181 919.711 718.922C914.938 721.253 909.708 722.486 904.403 722.529Z" fill="white"/>
<path d="M1025.35 722.113C1020.25 722.145 1015.24 720.752 1010.87 718.089C1006.69 715.39 1003.3 711.602 1001.08 707.127C998.624 701.881 997.397 696.137 997.495 690.338C997.48 684.491 998.411 678.679 1000.25 673.133C1001.91 667.696 1004.48 662.582 1007.84 658.009C1011.06 653.919 1015.1 650.561 1019.7 648.157C1024.35 645.748 1029.5 644.51 1034.73 644.55C1038.47 644.494 1042.17 645.202 1045.63 646.631C1048.85 648 1051.73 650.088 1054.04 652.736C1056.34 655.593 1057.9 658.977 1058.59 662.588L1069.9 612.637H1085.76L1061.07 720.309H1047.28L1049.76 706.434C1047.34 710.86 1043.82 714.586 1039.56 717.256C1035.42 720.279 1030.47 721.971 1025.35 722.113ZM1030.73 709.486C1033.95 709.495 1037.11 708.58 1039.83 706.85C1042.82 705.151 1045.37 702.776 1047.28 699.912C1049.46 696.792 1051.09 693.319 1052.11 689.645C1053.38 685.699 1054.03 681.58 1054.04 677.434C1054.15 673.837 1053.4 670.265 1051.83 667.028C1050.59 664.242 1048.52 661.915 1045.9 660.368C1043.28 658.656 1040.2 657.785 1037.08 657.87C1033.63 657.783 1030.23 658.698 1027.28 660.506C1024.3 662.191 1021.71 664.512 1019.7 667.305C1017.56 670.416 1015.88 673.83 1014.73 677.434C1013.58 681.307 1012.98 685.324 1012.94 689.367C1012.83 693.084 1013.53 696.781 1015.01 700.19C1016.29 703.063 1018.41 705.481 1021.08 707.127C1024.03 708.754 1027.36 709.567 1030.73 709.486Z" fill="white"/>
<path d="M1112.65 722.113C1107.82 722.147 1103.07 720.903 1098.86 718.506C1094.9 716.202 1091.87 712.566 1090.31 708.238C1088.62 702.96 1088.62 697.282 1090.31 692.004L1100.79 646.632H1116.65L1106.45 690.755C1105.63 693.037 1105.35 695.481 1105.64 697.891C1105.92 700.3 1106.77 702.608 1108.1 704.631C1109.51 706.215 1111.27 707.451 1113.23 708.245C1115.19 709.039 1117.3 709.369 1119.41 709.209C1123.06 709.362 1126.67 708.48 1129.84 706.665C1133.01 704.849 1135.61 702.173 1137.34 698.942C1139.62 695.026 1141.25 690.761 1142.17 686.315L1151.27 646.909H1166.99L1149.89 720.865H1136.1L1139.13 702.133L1140.65 703.382C1138.94 709.129 1135.21 714.058 1130.17 717.257C1124.93 720.574 1118.84 722.264 1112.65 722.113Z" fill="white"/>
<path d="M1211.95 722.252C1205.47 722.429 1199.05 720.899 1193.33 717.812C1188.41 714.871 1184.36 710.654 1181.61 705.602C1178.83 700.454 1177.4 694.673 1177.47 688.813C1177.32 681.029 1179.02 673.321 1182.44 666.335C1185.54 660.023 1190.31 654.694 1196.23 650.933C1202.43 647.052 1209.62 645.075 1216.92 645.245C1223.38 645.026 1229.78 646.61 1235.4 649.823C1240.33 652.587 1244.35 656.733 1246.98 661.756C1249.58 667.003 1250.81 672.827 1250.57 678.684C1250.74 686.365 1249.08 693.976 1245.74 700.884C1242.78 707.447 1237.94 712.978 1231.86 716.781C1225.77 720.584 1218.7 722.488 1211.54 722.252H1211.95ZM1211.95 709.765C1215.13 709.739 1218.26 708.929 1221.05 707.406C1223.9 705.685 1226.38 703.423 1228.36 700.746C1230.54 697.676 1232.18 694.249 1233.19 690.617C1234.43 686.669 1235.04 682.547 1234.98 678.407C1235.05 674.784 1234.34 671.189 1232.92 667.861C1231.69 664.799 1229.51 662.219 1226.71 660.507C1223.55 658.587 1219.91 657.624 1216.23 657.732C1213.04 657.722 1209.91 658.535 1207.13 660.091C1204.21 661.769 1201.68 664.037 1199.68 666.751C1197.48 669.756 1195.84 673.142 1194.85 676.741C1193.6 680.735 1193 684.904 1193.06 689.091C1193.09 692.733 1193.89 696.326 1195.4 699.636C1196.68 702.701 1198.84 705.31 1201.61 707.128C1204.83 709.004 1208.51 709.918 1212.23 709.765H1211.95Z" fill="white"/>
<path d="M1426.13 517.037C1429.43 504.068 1435.98 492.169 1445.17 482.487C1453.67 473.853 1464.13 467.425 1475.64 463.756C1492.93 460.374 1508.5 451.048 1519.7 437.378C1530.9 423.707 1537.02 406.543 1537.02 388.829C1537.04 384.524 1536.21 380.257 1534.58 376.276C1532.95 372.295 1530.55 368.678 1527.52 365.633C1524.5 362.589 1520.9 360.178 1516.95 358.539C1512.99 356.899 1508.75 356.065 1504.47 356.083C1487.79 356.086 1471.58 361.62 1458.34 371.829C1445.1 382.037 1435.57 396.352 1431.24 412.556C1427.91 425.499 1421.3 437.354 1412.07 446.966C1403.52 456.102 1392.79 462.884 1380.9 466.669C1363.79 470.216 1348.42 479.594 1337.39 493.22C1326.36 506.846 1320.34 523.884 1320.35 541.457C1320.35 550.142 1323.78 558.471 1329.89 564.612C1335.99 570.753 1344.27 574.203 1352.9 574.203C1369.67 574.136 1385.94 568.494 1399.18 558.154C1412.43 547.814 1421.9 533.358 1426.13 517.037Z" fill="white"/>
</g>
<defs>
<clipPath id="clip0_622_775">
<rect width="1451" height="652" fill="white" transform="translate(230 214)"/>
</clipPath>
</defs>
</svg>
