<svg width="1920" height="1080" viewBox="0 0 1920 1080" fill="none" xmlns="http://www.w3.org/2000/svg">
<rect width="1920" height="1080" fill="black"/>
<g clip-path="url(#clip0_622_794)">
<path d="M1684 216H230V865H1684V216Z" fill="black"/>
<path d="M438.405 553.275V472.616L452.225 509.631L369.305 369.583H434.674L491.198 465.296H452.778L509.855 369.583H569.695L486.775 509.631L500.595 472.616V553.275H438.405Z" fill="white"/>
<path d="M639.348 555.9C623.498 556.255 607.784 552.896 593.465 546.094C581.106 540.313 570.584 531.231 563.062 519.852C555.938 508.374 552.246 495.1 552.42 481.595C552.088 467.982 555.791 454.576 563.062 443.061C570.131 431.808 580.175 422.726 592.084 416.819C604.944 410.381 619.16 407.113 633.543 407.289C647.084 407.209 660.479 410.084 672.792 415.714C684.548 421.218 694.546 429.871 701.676 440.713C709.336 453.135 713.091 467.569 712.456 482.147C712.456 484.219 712.456 486.567 712.456 489.053C712.456 491.539 712.456 494.025 712.456 496.097H601.896V466.678H680.531L658.419 474.275C658.497 469.497 657.455 464.767 655.379 460.463C653.549 456.735 650.728 453.582 647.225 451.348C643.389 449.057 638.978 447.907 634.511 448.033C630.046 447.929 625.642 449.078 621.796 451.348C618.224 453.539 615.348 456.7 613.504 460.463C611.535 464.798 610.544 469.514 610.602 474.275V483.114C610.426 488.6 611.714 494.034 614.334 498.859C616.708 503.189 620.382 506.667 624.837 508.803C630.075 511.031 635.729 512.114 641.421 511.98C647.021 512.181 652.607 511.29 657.867 509.356C662.829 507.411 667.484 504.759 671.687 501.483L702.643 532.697C695.488 540.38 686.64 546.292 676.8 549.961C664.785 554.217 652.09 556.23 639.348 555.9Z" fill="white"/>
<path d="M731.389 553.276V358.534H790.815V553.276H731.389Z" fill="white"/>
<path d="M1007.1 407.012C1017.26 406.894 1027.31 409.215 1036.4 413.78C1045.27 418.367 1052.44 425.676 1056.85 434.635C1062.27 446.1 1064.83 458.705 1064.31 471.374V553.276H1005.02V481.594C1005.6 474.933 1004.05 468.261 1000.6 462.534C999.275 460.717 997.524 459.251 995.5 458.264C993.477 457.277 991.243 456.799 988.993 456.872C985.679 456.87 982.429 457.778 979.596 459.496C976.542 461.5 974.178 464.392 972.824 467.783C970.973 472.674 970.127 477.888 970.336 483.113V553.276H911.049V481.594C911.619 474.969 910.174 468.325 906.903 462.534C905.549 460.677 903.754 459.186 901.678 458.198C899.603 457.209 897.313 456.753 895.017 456.872C891.704 456.87 888.453 457.778 885.62 459.496C882.566 461.5 880.203 464.392 878.848 467.783C876.997 472.674 876.151 477.888 876.36 483.113V553.276H817.073V409.36H873.458V450.795L861.988 439.193C866.682 429.141 874.226 420.689 883.685 414.885C892.975 409.555 903.516 406.79 914.227 406.874C926.134 406.664 937.816 410.138 947.672 416.818C957.954 424.283 964.979 435.406 967.296 447.894L948.639 445.132C953.487 433.881 961.506 424.283 971.718 417.509C982.142 410.44 994.502 406.773 1007.1 407.012Z" fill="white"/>
<path d="M1168.65 555.9C1153.66 556.219 1138.82 552.902 1125.4 546.232C1113.35 540.247 1103.14 531.136 1095.82 519.852C1088.55 508.337 1084.85 494.931 1085.18 481.318C1084.85 467.706 1088.55 454.3 1095.82 442.784C1103.1 431.506 1113.33 422.432 1125.4 416.543C1138.95 410.261 1153.71 407.007 1168.65 407.007C1183.59 407.007 1198.36 410.261 1211.91 416.543C1224.03 422.353 1234.28 431.445 1241.48 442.784C1248.45 454.433 1252.12 467.749 1252.12 481.318C1252.12 494.888 1248.45 508.204 1241.48 519.852C1234.24 531.195 1224.01 540.323 1211.91 546.232C1198.48 552.902 1183.64 556.219 1168.65 555.9ZM1168.65 509.632C1172.79 509.73 1176.87 508.627 1180.4 506.455C1184.09 504.179 1187.02 500.864 1188.83 496.925C1191.05 492.028 1192.14 486.693 1192.01 481.318C1192.19 475.939 1191.1 470.593 1188.83 465.711C1186.97 461.879 1184.04 458.666 1180.4 456.458C1176.81 454.371 1172.73 453.272 1168.58 453.272C1164.43 453.272 1160.36 454.371 1156.77 456.458C1153.15 458.701 1150.23 461.905 1148.34 465.711C1146.12 470.607 1145.08 475.95 1145.3 481.318C1145.13 486.683 1146.17 492.017 1148.34 496.925C1150.19 500.833 1153.11 504.137 1156.77 506.455C1160.34 508.645 1164.47 509.749 1168.65 509.632Z" fill="white"/>
<path d="M605.765 624.267V721.914H579.093V682.827V651.337L557.672 721.914H534.04L512.895 651.337V682.827V721.914H486.084V624.267H528.65L542.47 670.535L547.307 689.871L552.144 670.535L565.964 624.267H605.765Z" fill="white"/>
<path d="M716.187 721.914H685.23L679.702 701.611H649.989L644.599 721.914H614.195L647.087 624.267H683.295L716.187 721.914ZM654.964 682.137H674.865L664.915 645.674L654.964 682.137Z" fill="white"/>
<path d="M810.439 692.91C808.959 699.415 805.87 705.446 801.456 710.45C797.338 714.995 792.095 718.377 786.254 720.256C779.884 722.37 773.203 723.397 766.492 723.295C757.423 723.556 748.436 721.512 740.372 717.356C733.132 713.441 727.252 707.421 723.512 700.092C719.597 691.628 717.57 682.415 717.57 673.09C717.57 663.766 719.597 654.553 723.512 646.089C727.215 638.734 733.105 632.704 740.372 628.825C748.392 624.686 757.33 622.642 766.354 622.886C773.006 622.829 779.627 623.808 785.978 625.786C791.657 627.575 796.823 630.701 801.042 634.902C805.391 639.335 808.325 644.959 809.472 651.061L782.799 661.558C782.447 656.833 780.441 652.383 777.133 648.989C774.067 646.839 770.372 645.769 766.63 645.951C763.049 645.857 759.526 646.87 756.541 648.851C753.551 651.179 751.335 654.357 750.184 657.967C748.621 662.829 747.874 667.915 747.973 673.021C747.846 678.164 748.546 683.293 750.046 688.214C751.055 691.818 753.245 694.979 756.265 697.191C759.524 699.374 763.404 700.441 767.321 700.23C770.994 700.36 774.587 699.13 777.409 696.777C780.48 693.807 782.391 689.841 782.799 685.59L810.439 692.91Z" fill="white"/>
<path d="M871.523 624.266C881.429 623.837 891.184 626.81 899.163 632.691C902.412 635.391 904.999 638.799 906.724 642.654C908.449 646.509 909.266 650.708 909.114 654.928C909.392 659.332 908.652 663.741 906.951 667.812C905.249 671.884 902.632 675.51 899.302 678.407C891.254 684.112 881.515 686.935 871.662 686.418L868.759 687.937H851.07V721.913H821.495V624.266H871.523ZM866.548 667.496C869.916 667.76 873.274 666.884 876.084 665.01C877.224 664.033 878.11 662.793 878.663 661.397C879.217 660.002 879.423 658.492 879.263 657C879.422 655.486 879.217 653.957 878.664 652.539C878.111 651.122 877.226 649.857 876.084 648.851C873.274 646.977 869.916 646.102 866.548 646.365H851.07V667.496H866.548ZM884.514 673.85L915.195 721.913H882.303L858.533 679.098L884.514 673.85Z" fill="white"/>
<path d="M968.954 622.885C978.023 622.625 987.01 624.668 995.074 628.824C1002.23 632.802 1008.05 638.81 1011.8 646.089C1015.62 654.577 1017.6 663.78 1017.6 673.09C1017.6 682.4 1015.62 691.603 1011.8 700.091C1008.05 707.371 1002.23 713.378 995.074 717.356C986.922 721.264 977.996 723.293 968.954 723.293C959.913 723.293 950.987 721.264 942.835 717.356C935.594 713.441 929.715 707.42 925.974 700.091C922.06 691.627 920.033 682.414 920.033 673.09C920.033 663.766 922.06 654.553 925.974 646.089C929.678 638.734 935.567 632.703 942.835 628.824C950.898 624.668 959.885 622.625 968.954 622.885ZM968.954 645.951C965.41 645.81 961.917 646.828 959.004 648.851C956.213 651.221 954.152 654.334 953.061 657.828C951.552 662.747 950.852 667.878 950.988 673.021C950.839 678.165 951.54 683.298 953.061 688.214C954.085 691.739 956.158 694.87 959.004 697.191C961.871 699.321 965.386 700.395 968.954 700.23C972.517 700.35 976.018 699.281 978.905 697.191C981.756 694.901 983.791 691.752 984.709 688.214C986.177 683.288 986.83 678.157 986.644 673.021C986.82 667.886 986.167 662.756 984.709 657.828C983.715 654.324 981.694 651.197 978.905 648.851C975.975 646.864 972.494 645.849 968.954 645.951Z" fill="white"/>
<path d="M1163.68 721.914H1127.33L1111.85 694.291L1098.03 721.914H1063.07L1095.96 673.021L1064.73 624.267H1100.66L1114.48 651.889L1128.3 624.267H1161.19L1130.1 671.778L1163.68 721.914Z" fill="white"/>
<path d="M1172.52 721.914V624.267H1251.16V646.917H1202.79V662.801H1241.48V683.656H1202.79V699.401H1252.68V722.052L1172.52 721.914Z" fill="white"/>
<path d="M1541.38 408.255H1324.13V552.999H1541.38V408.255Z" fill="white"/>
</g>
<defs>
<clipPath id="clip0_622_794">
<rect width="1454" height="649" fill="white" transform="translate(230 216)"/>
</clipPath>
</defs>
</svg>
