<svg width="1920" height="1080" viewBox="0 0 1920 1080" fill="none" xmlns="http://www.w3.org/2000/svg">
<rect width="1920" height="1080" fill="black"/>
<g clip-path="url(#clip0_622_834)">
<path d="M1578 216H230V865H1578V216Z" fill="black"/>
<path d="M390.568 751.608L414.709 646.641H428.503L424.779 666.944L422.985 667.91C424.094 663.515 426.063 659.384 428.779 655.756C431.505 652.48 434.952 649.88 438.849 648.16C442.889 646.378 447.263 645.483 451.678 645.536C456.429 645.323 461.137 646.521 465.211 648.978C469.285 651.435 472.543 655.043 474.577 659.347C477.198 664.764 478.475 670.733 478.301 676.75C478.332 682.707 477.401 688.631 475.542 694.29C473.694 699.294 471.037 703.96 467.679 708.102C464.508 712.129 460.509 715.426 455.954 717.77C451.448 720.15 446.426 721.383 441.332 721.361C437.009 721.387 432.73 720.492 428.779 718.736C425.111 716.998 422.039 714.21 419.95 710.726C417.759 706.938 416.527 702.67 416.364 698.295L418.847 695.948L406.294 751.193L390.568 751.608ZM439.263 709.345C442.464 709.338 445.606 708.48 448.367 706.859C451.366 705.134 453.955 702.778 455.954 699.953C458.124 696.872 459.799 693.47 460.92 689.871C462.095 685.926 462.699 681.833 462.713 677.716C462.856 674 462.099 670.304 460.506 666.944C459.212 664.161 457.093 661.846 454.437 660.314C451.704 658.775 448.604 658.011 445.47 658.104C442.088 658.059 438.755 658.917 435.814 660.59C432.866 662.273 430.323 664.583 428.365 667.358C426.185 670.514 424.553 674.016 423.537 677.716C422.298 681.789 421.693 686.028 421.744 690.285C421.506 695.294 423.127 700.213 426.296 704.096C427.919 705.897 429.93 707.305 432.176 708.214C434.422 709.123 436.846 709.51 439.263 709.345Z" fill="white"/>
<path d="M520.375 721.775C515.269 721.808 510.255 720.421 505.89 717.77C501.703 715.083 498.319 711.313 496.096 706.859C493.431 701.695 492.059 695.96 492.096 690.147C492.012 684.321 492.945 678.525 494.855 673.021C496.579 667.555 499.291 662.452 502.856 657.967C506.073 653.895 510.117 650.553 514.719 648.16C519.366 645.762 524.526 644.529 529.755 644.569C533.49 644.514 537.197 645.219 540.652 646.641C543.99 647.957 546.935 650.108 549.206 652.889C551.476 655.67 552.995 658.987 553.619 662.524L557.482 646.089H573.208L556.102 719.98H542.308L544.929 706.168C542.502 710.574 538.988 714.283 534.721 716.941C530.541 719.976 525.536 721.662 520.375 721.775ZM525.892 709.207C529.009 709.22 532.068 708.359 534.721 706.721C537.681 704.937 540.222 702.534 542.17 699.677C544.341 696.547 546.016 693.099 547.136 689.457C548.403 685.53 549.055 681.43 549.067 677.303C549.115 673.728 548.36 670.188 546.86 666.944C545.618 664.171 543.545 661.854 540.928 660.314C538.289 658.659 535.212 657.84 532.1 657.967C528.616 657.948 525.189 658.853 522.168 660.591C519.22 662.273 516.677 664.584 514.719 667.358C510.247 673.8 507.885 681.474 507.959 689.319C507.844 693.019 508.551 696.698 510.029 700.091C511.313 702.952 513.428 705.358 516.098 706.997C519.114 708.579 522.491 709.341 525.892 709.207Z" fill="white"/>
<path d="M613.763 722.189C608.554 722.252 603.374 721.411 598.452 719.703C593.905 718.123 589.728 715.632 586.174 712.383C582.777 709.259 580.014 705.507 578.036 701.334L590.037 694.152C591.787 698.907 595.003 702.982 599.218 705.788C603.434 708.593 608.431 709.984 613.488 709.759C617.17 710.003 620.837 709.085 623.971 707.135C625.144 706.347 626.1 705.276 626.751 704.021C627.402 702.766 627.727 701.367 627.696 699.953C627.723 698.984 627.553 698.019 627.198 697.117C626.842 696.215 626.308 695.394 625.627 694.705C623.776 693.184 621.607 692.098 619.281 691.528L607.418 688.075C602.156 686.764 597.373 683.986 593.623 680.065C590.583 676.751 588.908 672.409 588.933 667.91C588.89 663.72 590.143 659.62 592.52 656.171C595.129 652.618 598.659 649.848 602.728 648.16C608.266 645.892 614.229 644.854 620.206 645.116C626.184 645.378 632.034 646.935 637.352 649.679C642.734 652.462 647.013 656.99 649.491 662.524L638.18 670.12C637.085 667.613 635.489 665.357 633.49 663.491C631.516 661.628 629.227 660.132 626.73 659.071C623.974 657.941 621.018 657.377 618.04 657.414C614.285 657.143 610.536 658.009 607.28 659.9C606.167 660.607 605.253 661.587 604.625 662.747C603.997 663.908 603.677 665.21 603.693 666.529C603.647 667.624 603.891 668.712 604.399 669.682C604.908 670.652 605.664 671.47 606.59 672.054C608.627 673.437 610.859 674.508 613.212 675.231L627.006 679.512C631.56 680.578 635.691 682.983 638.869 686.418C641.67 689.518 643.198 693.563 643.146 697.743C643.245 702.372 641.999 706.931 639.559 710.864C636.932 714.555 633.357 717.466 629.213 719.289C624.316 721.306 619.058 722.293 613.763 722.189Z" fill="white"/>
<path d="M689.771 722.19C684.563 722.242 679.384 721.401 674.459 719.704C669.913 718.123 665.736 715.633 662.182 712.384C658.785 709.291 656.061 705.529 654.181 701.334L666.045 694.152C667.795 698.908 671.011 702.983 675.226 705.788C679.441 708.593 684.439 709.984 689.495 709.759C693.178 710.003 696.844 709.086 699.979 707.135C701.152 706.347 702.108 705.276 702.759 704.021C703.41 702.766 703.735 701.367 703.704 699.953C703.731 698.984 703.561 698.019 703.205 697.117C702.85 696.215 702.315 695.395 701.635 694.705C699.783 693.184 697.615 692.098 695.289 691.528L683.426 688.075C678.164 686.764 673.381 683.986 669.631 680.065C666.591 676.752 664.916 672.41 664.941 667.911C664.898 663.721 666.151 659.62 668.528 656.171C671.137 652.618 674.667 649.848 678.736 648.16C684.197 645.975 690.06 644.98 695.935 645.242C701.811 645.504 707.563 647.017 712.808 649.68C718.224 652.417 722.517 656.959 724.947 662.524L713.636 670.121C712.542 667.647 710.998 665.399 709.084 663.491C707.036 661.658 704.707 660.165 702.186 659.071C699.391 658.129 696.437 657.753 693.496 657.966C689.741 657.696 685.992 658.562 682.736 660.453C681.623 661.159 680.709 662.14 680.081 663.3C679.454 664.461 679.133 665.762 679.149 667.082C679.103 668.177 679.347 669.264 679.855 670.235C680.364 671.205 681.12 672.023 682.046 672.607C684.083 673.99 686.315 675.061 688.668 675.783L702.462 680.065C707.016 681.131 711.147 683.536 714.325 686.971C717.126 690.071 718.654 694.116 718.602 698.296C718.701 702.925 717.455 707.483 715.015 711.417C712.388 715.108 708.813 718.019 704.669 719.842C699.909 721.611 694.844 722.41 689.771 722.19Z" fill="white"/>
<path d="M807.576 721.776C802.743 721.809 797.987 720.571 793.782 718.185C789.856 715.848 786.84 712.244 785.229 707.964C783.649 702.741 783.649 697.166 785.229 691.943L795.575 646.641H811.439L801.231 690.562C800.411 692.834 800.133 695.266 800.421 697.664C800.708 700.063 801.552 702.36 802.886 704.373C804.283 705.975 806.031 707.232 807.993 708.047C809.955 708.861 812.078 709.211 814.198 709.069C817.858 709.102 821.467 708.198 824.682 706.445C827.799 704.52 830.402 701.866 832.269 698.711C834.578 694.641 836.165 690.202 836.959 685.59L846.063 646.365H861.927L844.822 720.256H831.027L834.2 701.611L835.579 702.854C833.958 708.582 830.272 713.504 825.233 716.666C819.973 720.061 813.835 721.838 807.576 721.776Z" fill="white"/>
<path d="M867.996 720.533L885.102 646.641H898.896L895.723 665.287L894.206 664.182C896.125 658.409 900.038 653.512 905.242 650.37C910.416 647.156 916.396 645.48 922.485 645.536C927.344 645.439 932.129 646.733 936.279 649.265C940.084 651.664 942.919 655.333 944.28 659.624C945.917 664.933 945.917 670.613 944.28 675.922L933.796 720.947H918.622L928.968 676.612C929.747 674.333 930.002 671.908 929.716 669.517C929.429 667.126 928.608 664.83 927.313 662.801C925.973 661.166 924.255 659.884 922.308 659.066C920.36 658.247 918.243 657.917 916.139 658.105C912.429 658.023 908.764 658.929 905.517 660.729C902.328 662.609 899.67 665.27 897.792 668.463C895.504 672.472 893.83 676.802 892.826 681.308L883.722 720.394L867.996 720.533Z" fill="white"/>
<path d="M989.94 646.641L972.835 720.532H956.971L974.076 646.641H989.94ZM986.215 634.211C984.946 634.303 983.671 634.143 982.464 633.74C981.256 633.337 980.14 632.699 979.18 631.863C978.276 631.065 977.587 630.052 977.178 628.918C976.768 627.783 976.65 626.564 976.835 625.372C976.759 623.887 977.002 622.402 977.55 621.02C978.097 619.638 978.936 618.39 980.008 617.361C982.196 615.496 984.998 614.511 987.871 614.599C990.475 614.421 993.047 615.263 995.044 616.947C995.888 617.731 996.539 618.7 996.946 619.778C997.353 620.857 997.504 622.015 997.389 623.162C997.419 624.694 997.141 626.218 996.572 627.641C996.003 629.064 995.155 630.359 994.078 631.449C991.89 633.314 989.088 634.298 986.215 634.211Z" fill="white"/>
<path d="M1041.12 751.608L1052.7 701.749H1053.67C1051.89 707.284 1048.42 712.118 1043.74 715.56C1039.32 719.101 1033.81 721.004 1028.15 720.947C1023.29 720.896 1018.53 719.562 1014.36 717.079C1010.07 714.469 1006.62 710.682 1004.42 706.168C1001.89 700.924 1000.66 695.143 1000.84 689.318C1000.77 683.403 1001.7 677.518 1003.6 671.916C1005.39 666.914 1008 662.246 1011.32 658.104C1014.51 654.037 1018.56 650.733 1023.18 648.436C1027.75 646.071 1032.81 644.839 1037.94 644.845C1042.24 644.786 1046.49 645.732 1050.36 647.608C1053.81 649.37 1056.75 651.985 1058.91 655.204C1061.04 658.761 1062.22 662.801 1062.36 666.944L1060.43 669.015L1065.67 646.365H1081.54L1057.26 751.332L1041.12 751.608ZM1033.39 709.207C1036.64 709.253 1039.84 708.392 1042.63 706.721C1045.57 704.898 1048.1 702.502 1050.08 699.677C1052.25 696.546 1053.93 693.099 1055.05 689.456C1056.16 685.501 1056.72 681.411 1056.71 677.302C1056.8 673.738 1056.09 670.199 1054.64 666.944C1053.35 664.2 1051.29 661.895 1048.7 660.314C1046.02 658.655 1042.89 657.838 1039.74 657.966C1036.3 657.965 1032.92 658.87 1029.94 660.59C1027 662.273 1024.45 664.583 1022.49 667.358C1020.24 670.39 1018.56 673.806 1017.53 677.44C1016.31 681.28 1015.7 685.289 1015.74 689.318C1015.62 693.018 1016.33 696.698 1017.8 700.091C1019.14 702.92 1021.24 705.315 1023.87 706.997C1026.8 708.562 1030.08 709.325 1033.39 709.207Z" fill="white"/>
<path d="M1116.02 721.775C1111.19 721.808 1106.43 720.57 1102.23 718.184C1098.3 715.847 1095.29 712.243 1093.67 707.963C1092.09 702.74 1092.09 697.165 1093.67 691.942L1104.16 646.641H1119.88L1109.68 690.561C1108.83 692.836 1108.55 695.282 1108.86 697.689C1109.18 700.096 1110.07 702.39 1111.47 704.372C1112.85 705.955 1114.58 707.201 1116.51 708.015C1118.45 708.828 1120.55 709.189 1122.64 709.068C1126.3 709.092 1129.89 708.113 1133.02 706.238C1136.16 704.364 1138.72 701.664 1140.44 698.434C1142.69 694.535 1144.27 690.287 1145.13 685.865L1154.23 646.641H1169.96L1152.85 720.532H1139.06L1142.23 701.886L1143.61 703.129C1141.99 708.857 1138.3 713.779 1133.26 716.941C1128.1 720.169 1122.11 721.847 1116.02 721.775Z" fill="white"/>
<path d="M1214.1 721.913C1207.65 722.138 1201.27 720.611 1195.62 717.493C1190.74 714.665 1186.74 710.558 1184.03 705.616C1181.21 700.405 1179.78 694.553 1179.89 688.628C1179.79 681.137 1181.39 673.721 1184.58 666.944C1187.71 660.246 1192.75 654.62 1199.05 650.764C1205.35 646.909 1212.65 644.994 1220.03 645.26C1225.7 645.144 1231.3 646.475 1236.31 649.127C1240.74 651.625 1244.34 655.371 1246.66 659.9C1249.31 664.827 1250.73 670.324 1250.79 675.921C1250.79 677.855 1250.79 679.926 1250.79 681.998C1250.48 684.113 1249.98 686.194 1249.28 688.213H1189.27V676.059H1240.17L1234.52 680.203C1234.87 679.079 1235.1 677.921 1235.21 676.75C1235.27 675.692 1235.27 674.631 1235.21 673.573C1235.31 670.66 1234.7 667.765 1233.41 665.148C1232.18 662.832 1230.31 660.916 1228.03 659.623C1225.43 658.308 1222.54 657.644 1219.62 657.69C1215.67 657.587 1211.76 658.541 1208.31 660.452C1205.18 662.199 1202.6 664.781 1200.86 667.91C1198.94 671.058 1197.59 674.517 1196.86 678.131C1196.04 681.758 1195.63 685.463 1195.62 689.18C1195.52 692.923 1196.38 696.629 1198.1 699.953C1199.64 702.894 1201.98 705.337 1204.86 706.997C1208.03 708.72 1211.6 709.578 1215.2 709.483C1219.13 709.653 1223.03 708.643 1226.38 706.582C1229.24 704.579 1231.63 701.99 1233.41 698.986L1246.1 705.754C1244.1 709.119 1241.48 712.073 1238.38 714.455C1235.09 716.916 1231.41 718.786 1227.48 719.98C1223.14 721.275 1218.63 721.927 1214.1 721.913Z" fill="white"/>
<path d="M1429.75 499.354C1429.71 509.382 1427.69 519.304 1423.8 528.547C1419.92 537.791 1414.24 546.175 1407.11 553.216C1399.98 560.258 1391.53 565.819 1382.24 569.579C1372.96 573.339 1363.02 575.225 1353 575.127C1348.66 575.114 1344.36 574.231 1340.36 572.529C1336.36 570.826 1332.74 568.34 1329.72 565.216C1326.7 562.091 1324.33 558.392 1322.75 554.337C1321.18 550.282 1320.43 545.952 1320.56 541.603C1320.79 521.421 1329.02 502.158 1343.44 488.052C1357.85 473.946 1377.28 466.151 1397.43 466.384C1406.07 466.483 1414.31 470.013 1420.34 476.195C1426.38 482.378 1429.71 490.708 1429.61 499.352L1429.75 499.354Z" fill="white"/>
<path d="M438.021 553.275V472.616L451.816 509.631L369.049 369.583H434.297L490.716 465.296H452.368L509.339 369.583H569.069L486.302 509.631L500.097 472.616V553.275H438.021Z" fill="white"/>
<path d="M638.594 555.9C622.773 556.255 607.088 552.896 592.796 546.094C580.459 540.313 569.956 531.231 562.448 519.852C555.338 508.374 551.652 495.1 551.826 481.595C551.495 467.982 555.19 454.576 562.448 443.061C569.504 431.808 579.53 422.726 591.416 416.819C604.253 410.381 618.443 407.113 632.8 407.289C646.316 407.209 659.686 410.084 671.976 415.714C683.71 421.218 693.69 429.871 700.807 440.713C708.453 453.135 712.201 467.569 711.567 482.147C711.567 484.219 711.567 486.567 711.567 489.053C711.567 491.539 711.567 494.025 711.567 496.097H601.21V466.678H679.701L657.63 474.275C657.688 469.514 656.699 464.798 654.733 460.463C652.812 456.756 649.96 453.614 646.456 451.348C642.627 449.057 638.225 447.907 633.766 448.033C629.309 447.929 624.913 449.078 621.075 451.348C617.508 453.539 614.638 456.7 612.798 460.463C610.832 464.798 609.843 469.514 609.901 474.275V483.114C609.726 488.6 611.011 494.034 613.626 498.859C615.996 503.189 619.662 506.667 624.109 508.803C629.338 511.031 634.982 512.114 640.663 511.98C646.253 512.181 651.829 511.29 657.078 509.356C662.031 507.411 666.678 504.759 670.873 501.483L701.91 532.697C694.716 540.383 685.839 546.292 675.977 549.961C663.984 554.217 651.313 556.23 638.594 555.9Z" fill="white"/>
<path d="M730.465 553.276V358.534H789.782V553.276H730.465Z" fill="white"/>
<path d="M1005.67 407.012C1015.82 406.878 1025.85 409.2 1034.91 413.78C1043.77 418.367 1050.92 425.676 1055.33 434.635C1060.85 446.065 1063.46 458.688 1062.91 471.374V553.276H1003.6V481.594C1004.17 474.933 1002.63 468.261 999.182 462.534C997.857 460.717 996.109 459.251 994.09 458.264C992.07 457.277 989.841 456.799 987.595 456.872C984.287 456.87 981.042 457.778 978.214 459.496C975.201 461.538 972.851 464.419 971.455 467.783C969.597 472.671 968.752 477.887 968.972 483.113V553.276H909.794V481.594C910.363 474.969 908.921 468.325 905.655 462.534C904.304 460.677 902.512 459.186 900.441 458.198C898.369 457.209 896.084 456.753 893.792 456.872C890.484 456.87 887.24 457.778 884.412 459.496C881.364 461.5 879.004 464.392 877.652 467.783C875.794 472.671 874.949 477.887 875.169 483.113V553.276H815.991V409.36H872.273V450.795L860.823 439.193C865.509 429.141 873.039 420.689 882.481 414.885C891.753 409.555 902.275 406.79 912.966 406.874C924.852 406.664 936.511 410.138 946.349 416.818C956.613 424.283 963.624 435.406 965.937 447.894L947.315 445.132C952.208 433.914 960.2 424.33 970.352 417.509C980.791 410.513 993.105 406.853 1005.67 407.012Z" fill="white"/>
<path d="M1166.92 555.9C1151.96 556.219 1137.15 552.902 1123.75 546.232C1111.72 540.247 1101.53 531.136 1094.23 519.852C1087.28 508.204 1083.61 494.888 1083.61 481.318C1083.61 467.749 1087.28 454.433 1094.23 442.784C1101.49 431.506 1111.7 422.432 1123.75 416.543C1137.28 410.261 1152.01 407.007 1166.92 407.007C1181.84 407.007 1196.57 410.261 1210.1 416.543C1219.09 421.094 1227.05 427.459 1233.47 435.236C1239.89 443.014 1244.64 452.037 1247.41 461.738C1250.18 471.439 1250.92 481.609 1249.58 491.61C1248.24 501.611 1244.85 511.226 1239.62 519.852C1232.43 531.228 1222.2 540.365 1210.1 546.232C1196.7 552.902 1181.88 556.219 1166.92 555.9ZM1166.92 509.632C1171.06 509.73 1175.13 508.627 1178.65 506.455C1182.36 504.219 1185.3 500.892 1187.06 496.925C1189.28 492.028 1190.36 486.693 1190.24 481.318C1190.41 475.939 1189.33 470.593 1187.06 465.711C1185.26 461.847 1182.32 458.621 1178.65 456.458C1175.13 454.286 1171.06 453.183 1166.92 453.281C1162.75 453.18 1158.63 454.282 1155.06 456.458C1151.45 458.701 1148.54 461.905 1146.65 465.711C1144.44 470.607 1143.4 475.95 1143.61 481.318C1143.44 486.683 1144.48 492.017 1146.65 496.925C1148.5 500.833 1151.41 504.137 1155.06 506.455C1158.63 508.631 1162.75 509.733 1166.92 509.632Z" fill="white"/>
</g>
<defs>
<clipPath id="clip0_622_834">
<rect width="1348" height="649" fill="white" transform="translate(230 216)"/>
</clipPath>
</defs>
</svg>
