<svg width="1920" height="1080" viewBox="0 0 1920 1080" fill="none" xmlns="http://www.w3.org/2000/svg">
<rect width="1920" height="1080" fill="black"/>
<g clip-path="url(#clip0_622_854)">
<path d="M1681 216H230V865H1681V216Z" fill="black"/>
<path d="M437.975 553.275V472.616L451.767 509.631L369.018 369.583H434.252L490.659 465.296H452.319L509.277 369.583H568.994L486.246 509.631L500.037 472.616V553.275H437.975Z" fill="white"/>
<path d="M638.365 555.9C622.594 556.238 606.961 552.88 592.715 546.094C580.393 540.294 569.897 531.217 562.374 519.852C555.433 508.276 551.765 495.028 551.765 481.525C551.765 468.022 555.433 454.774 562.374 443.198C569.429 431.946 579.452 422.864 591.336 416.957C604.171 410.518 618.357 407.251 632.711 407.427C646.223 407.346 659.591 410.222 671.879 415.852C683.61 421.356 693.587 430.009 700.703 440.85C708.347 453.273 712.094 467.707 711.46 482.285C711.46 484.356 711.46 486.704 711.46 489.19C711.46 491.677 711.46 494.163 711.46 496.234H601.128V466.678H679.602L657.535 474.274C657.612 469.496 656.573 464.767 654.501 460.463C652.675 456.735 649.86 453.581 646.364 451.347C642.536 449.056 638.134 447.906 633.676 448.032C629.221 447.929 624.825 449.077 620.988 451.347C617.423 453.539 614.553 456.7 612.713 460.463C610.748 464.798 609.759 469.513 609.817 474.274V483.113C609.641 488.6 610.927 494.034 613.541 498.858C615.91 503.189 619.576 506.667 624.022 508.803C629.25 511.031 634.892 512.114 640.572 511.979C646.16 512.167 651.732 511.276 656.984 509.355C661.92 507.377 666.561 504.728 670.775 501.483L701.668 532.697C694.555 540.412 685.716 546.328 675.878 549.961C663.843 554.227 651.127 556.24 638.365 555.9Z" fill="white"/>
<path d="M730.354 553.276V358.534H789.658V553.276H730.354Z" fill="white"/>
<path d="M1005.49 407.012C1015.65 406.828 1025.69 409.152 1034.73 413.78C1043.59 418.367 1050.74 425.676 1055.14 434.635C1060.61 446.079 1063.17 458.7 1062.59 471.374V553.276H1003.43V481.594C1004 474.933 1002.46 468.261 999.012 462.534C997.688 460.717 995.94 459.251 993.921 458.264C991.902 457.277 989.673 456.799 987.427 456.872C984.12 456.87 980.876 457.778 978.049 459.496C975.002 461.5 972.643 464.392 971.291 467.783C969.433 472.671 968.589 477.887 968.809 483.113V553.276H909.643V481.594C910.213 474.969 908.771 468.325 905.506 462.534C904.155 460.677 902.363 459.186 900.292 458.198C898.221 457.209 895.936 456.753 893.645 456.872C890.338 456.87 887.094 457.778 884.267 459.496C881.22 461.5 878.861 464.392 877.509 467.783C875.651 472.671 874.807 477.887 875.027 483.113V553.276H815.861V409.36H872.131V450.795L860.684 439.193C865.298 429.095 872.843 420.624 882.336 414.885C891.607 409.555 902.126 406.79 912.815 406.874C924.698 406.664 936.355 410.138 946.191 416.818C956.452 424.283 963.462 435.406 965.775 447.894L947.156 445.132C951.994 433.881 959.997 424.283 970.188 417.509C980.59 410.44 992.925 406.773 1005.49 407.012Z" fill="white"/>
<path d="M1166.72 555.9C1151.76 556.219 1136.95 552.902 1123.55 546.232C1111.53 540.247 1101.33 531.136 1094.04 519.852C1086.78 508.337 1083.08 494.931 1083.42 481.318C1083.08 467.706 1086.78 454.3 1094.04 442.784C1101.3 431.506 1111.51 422.432 1123.55 416.543C1137.08 410.261 1151.81 407.007 1166.72 407.007C1181.63 407.007 1196.36 410.261 1209.88 416.543C1221.98 422.353 1232.2 431.445 1239.4 442.784C1246.35 454.433 1250.02 467.749 1250.02 481.318C1250.02 494.888 1246.35 508.204 1239.4 519.852C1232.17 531.195 1221.96 540.323 1209.88 546.232C1196.49 552.902 1181.67 556.219 1166.72 555.9ZM1166.72 509.632C1170.85 509.73 1174.92 508.627 1178.44 506.455C1182.15 504.219 1185.09 500.892 1186.85 496.925C1189.07 492.028 1190.15 486.693 1190.02 481.318C1190.2 475.939 1189.11 470.593 1186.85 465.711C1185.04 461.847 1182.11 458.621 1178.44 456.458C1174.92 454.286 1170.85 453.183 1166.72 453.281C1162.54 453.18 1158.42 454.282 1154.86 456.458C1151.25 458.701 1148.34 461.905 1146.44 465.711C1144.23 470.607 1143.19 475.95 1143.41 481.318C1143.24 486.683 1144.28 492.017 1146.44 496.925C1148.29 500.833 1151.21 504.137 1154.86 506.455C1158.42 508.631 1162.54 509.733 1166.72 509.632Z" fill="white"/>
<path d="M1028.94 661.557L1031.84 649.127H1083.83L1080.93 661.557H1028.94ZM1028.94 723.018L1048.8 637.249C1049.7 632.555 1051.63 628.12 1054.45 624.266C1056.87 621.059 1060.11 618.575 1063.83 617.084C1067.92 615.522 1072.28 614.772 1076.66 614.875C1079.52 615.055 1082.35 615.612 1085.07 616.532C1087.19 616.978 1089.2 617.821 1091 619.018L1086.45 630.62C1085.32 629.936 1084.12 629.38 1082.86 628.962C1081.11 628.511 1079.3 628.279 1077.49 628.272C1074.17 628.049 1070.89 629.03 1068.25 631.034C1065.64 633.65 1063.94 637.042 1063.42 640.702L1061.07 651.199V655.204L1045.35 724.261L1028.94 723.018Z" fill="white"/>
<path d="M1112.65 724.262C1107.59 724.342 1102.61 722.984 1098.29 720.343C1093.97 717.703 1090.49 713.889 1088.24 709.345C1085.93 704.089 1084.84 698.373 1085.07 692.633C1085 686.763 1085.93 680.924 1087.83 675.369C1089.57 670.375 1092.14 665.708 1095.41 661.558C1098.63 657.486 1102.67 654.144 1107.27 651.752C1111.88 649.369 1116.99 648.137 1122.17 648.161C1125.95 648.086 1129.71 648.792 1133.2 650.232C1136.41 651.56 1139.25 653.645 1141.48 656.309C1143.87 659.109 1145.49 662.491 1146.17 666.115L1150.03 649.68H1165.75L1148.65 723.571H1134.86L1137.34 709.76C1135.02 714.198 1131.54 717.922 1127.27 720.533C1122.89 723.231 1117.79 724.531 1112.65 724.262ZM1118.17 711.693C1121.31 711.704 1124.37 710.791 1127 709.069C1129.95 707.339 1132.49 704.982 1134.44 702.163C1136.61 699.033 1138.29 695.585 1139.41 691.943C1140.64 687.964 1141.25 683.816 1141.2 679.651C1141.28 676.132 1140.57 672.642 1139.13 669.43C1137.81 666.673 1135.76 664.333 1133.2 662.663C1130.49 661.062 1127.39 660.249 1124.24 660.315C1120.79 660.251 1117.4 661.16 1114.45 662.939C1111.5 664.621 1108.96 666.932 1107 669.706C1104.8 672.772 1103.13 676.178 1102.03 679.789C1100.81 683.628 1100.21 687.637 1100.24 691.667C1100.13 695.367 1100.83 699.046 1102.31 702.44C1103.59 705.3 1105.71 707.706 1108.38 709.345C1111.54 711.073 1115.12 711.885 1118.72 711.693H1118.17Z" fill="white"/>
<path d="M1172.51 723.018L1189.61 649.127H1203.4L1200.23 667.772L1198.85 666.667C1200.71 660.905 1204.58 656.004 1209.75 652.856C1214.93 649.662 1220.9 647.988 1226.99 648.022C1231.84 647.924 1236.63 649.218 1240.78 651.751C1244.55 654.124 1247.38 657.737 1248.78 661.971C1250.32 667.341 1250.32 673.037 1248.78 678.407L1238.29 723.432H1222.99L1233.33 679.097C1234.12 676.82 1234.38 674.394 1234.09 672.001C1233.81 669.608 1232.98 667.312 1231.67 665.286C1230.33 663.651 1228.62 662.369 1226.67 661.551C1224.72 660.732 1222.61 660.403 1220.5 660.59C1216.79 660.508 1213.13 661.414 1209.88 663.214C1206.7 665.094 1204.04 667.756 1202.16 670.949C1199.87 674.908 1198.2 679.192 1197.2 683.655L1188.23 722.88L1172.51 723.018Z" fill="white"/>
<path d="M1515.64 358.672H1443.65C1432.5 358.68 1421.67 362.363 1412.82 369.153C1403.97 375.943 1397.6 385.462 1394.69 396.239C1392.48 404.838 1388.11 412.729 1382 419.166C1376.28 425.198 1369.11 429.667 1361.18 432.149C1349.76 434.529 1339.52 440.77 1332.16 449.825C1324.8 458.88 1320.78 470.196 1320.77 481.87V548.303C1320.77 548.303 1320.77 548.303 1320.77 549.27V552.033C1320.77 552.861 1320.77 553.69 1320.77 554.519C1320.77 555.347 1320.77 555.485 1320.77 556.038V620.814C1321.8 610.247 1326.11 600.268 1333.08 592.27C1340.05 584.273 1349.34 578.655 1359.66 576.203H1414.82C1421.48 576.221 1428.08 574.923 1434.24 572.384C1440.39 569.845 1445.99 566.114 1450.7 561.405C1455.42 556.697 1459.16 551.103 1461.71 544.944C1464.26 538.785 1465.58 532.183 1465.58 525.515C1465.56 522.649 1464.98 519.815 1463.87 517.174C1462.75 514.533 1461.13 512.138 1459.1 510.124C1457.06 508.111 1454.65 506.519 1452 505.439C1449.35 504.359 1446.51 503.812 1443.65 503.831H1393.03V471.097C1393.02 460.81 1396.97 450.914 1404.07 443.475C1407.63 439.732 1411.91 436.741 1416.65 434.677C1421.38 432.614 1426.48 431.519 1431.65 431.459H1485.99C1492.73 431.551 1499.43 430.295 1505.69 427.764C1511.94 425.234 1517.63 421.48 1522.42 416.722C1527.21 411.963 1531.01 406.297 1533.58 400.053C1536.16 393.809 1537.47 387.113 1537.43 380.356C1537.43 377.497 1536.87 374.666 1535.77 372.026C1534.67 369.386 1533.07 366.99 1531.04 364.974C1529.01 362.959 1526.61 361.365 1523.97 360.283C1521.33 359.202 1518.5 358.654 1515.64 358.672Z" fill="white"/>
</g>
<defs>
<clipPath id="clip0_622_854">
<rect width="1451" height="649" fill="white" transform="translate(230 216)"/>
</clipPath>
</defs>
</svg>
