<svg width="1920" height="1080" viewBox="0 0 1920 1080" fill="none" xmlns="http://www.w3.org/2000/svg">
<rect width="1920" height="1080" fill="black"/>
<g clip-path="url(#clip0_622_554)">
<path d="M1681 214H230V866H1681V214Z" fill="black"/>
<path d="M437.975 552.834V471.803L451.767 508.988L369.018 368.293H434.252L490.659 464.449H452.319L509.277 368.293H568.994L486.246 508.988L500.037 471.803V552.834H437.975Z" fill="white"/>
<path d="M638.365 555.471C622.594 555.811 606.961 552.437 592.715 545.619C580.381 539.811 569.881 530.688 562.374 519.256C555.171 507.767 551.478 494.403 551.755 480.822C551.424 467.147 555.118 453.678 562.374 442.11C569.429 430.805 579.452 421.682 591.336 415.747C604.171 409.279 618.357 405.996 632.711 406.173C646.223 406.092 659.591 408.981 671.879 414.637C683.61 420.166 693.587 428.859 700.703 439.751C708.347 452.231 712.094 466.731 711.46 481.377C711.46 483.458 711.46 485.817 711.46 488.315C711.46 490.812 711.46 493.31 711.46 495.391H601.128V465.837H679.602L657.535 473.468C657.612 468.668 656.573 463.917 654.501 459.593C652.675 455.847 649.86 452.679 646.364 450.435C642.536 448.133 638.134 446.978 633.676 447.105C629.221 447.001 624.825 448.155 620.988 450.435C617.423 452.637 614.553 455.813 612.713 459.593C610.748 463.948 609.759 468.685 609.817 473.468V482.348C609.641 487.86 610.927 493.319 613.541 498.166C615.91 502.517 619.576 506.01 624.022 508.156C629.25 510.394 634.892 511.483 640.572 511.348C646.16 511.536 651.732 510.641 656.984 508.711C661.92 506.724 666.561 504.063 670.775 500.802L701.668 532.16C694.555 539.911 685.716 545.855 675.878 549.505C663.843 553.79 651.127 555.813 638.365 555.471Z" fill="white"/>
<path d="M730.354 552.835V357.193H789.658V552.835H730.354Z" fill="white"/>
<path d="M1005.49 405.895C1015.64 405.776 1025.67 408.108 1034.73 412.694C1043.59 417.302 1050.74 424.645 1055.14 433.645C1060.61 445.142 1063.17 457.821 1062.59 470.554V552.834H1003.43V480.821C1004 474.13 1002.46 467.426 999.012 461.674C997.688 459.848 995.94 458.375 993.921 457.383C991.902 456.392 989.673 455.912 987.427 455.985C984.12 455.983 980.876 456.895 978.049 458.621C975.002 460.634 972.643 463.54 971.291 466.946C969.444 471.86 968.6 477.098 968.809 482.348V552.834H909.643V480.821C910.213 474.165 908.771 467.491 905.506 461.674C904.155 459.808 902.363 458.31 900.292 457.317C898.221 456.323 895.936 455.865 893.645 455.985C890.338 455.983 887.094 456.895 884.267 458.621C881.22 460.634 878.861 463.54 877.509 466.946C875.662 471.86 874.818 477.098 875.027 482.348V552.834H815.861V408.254H872.131V449.88L860.684 438.224C865.368 428.126 872.897 419.635 882.336 413.804C891.607 408.449 902.126 405.672 912.815 405.756C924.698 405.545 936.355 409.035 946.191 415.746C956.452 423.245 963.462 434.42 965.775 446.966L947.156 444.191C951.994 432.888 959.997 423.246 970.188 416.44C980.59 409.338 992.925 405.654 1005.49 405.895Z" fill="white"/>
<path d="M1166.72 555.471C1151.76 555.792 1136.95 552.459 1123.55 545.759C1111.53 539.746 1101.33 530.592 1094.04 519.257C1086.78 507.688 1083.08 494.22 1083.42 480.545C1083.08 466.87 1086.78 453.401 1094.04 441.833C1101.3 430.502 1111.51 421.386 1123.55 415.47C1137.08 409.159 1151.81 405.89 1166.72 405.89C1181.63 405.89 1196.36 409.159 1209.88 415.47C1221.98 421.307 1232.2 430.441 1239.4 441.833C1246.35 453.535 1250.02 466.913 1250.02 480.545C1250.02 494.177 1246.35 507.554 1239.4 519.257C1232.17 530.652 1221.96 539.822 1209.88 545.759C1196.49 552.459 1181.67 555.792 1166.72 555.471ZM1166.72 508.989C1170.85 509.088 1174.92 507.979 1178.44 505.798C1182.15 503.551 1185.09 500.209 1186.85 496.224C1189.07 491.304 1190.15 485.944 1190.02 480.545C1190.2 475.141 1189.11 469.77 1186.85 464.866C1185.04 460.983 1182.11 457.742 1178.44 455.569C1174.92 453.388 1170.85 452.279 1166.72 452.378C1162.54 452.276 1158.42 453.384 1154.86 455.569C1151.25 457.823 1148.34 461.042 1146.44 464.866C1144.23 469.783 1143.19 475.152 1143.41 480.545C1143.24 485.934 1144.28 491.293 1146.44 496.224C1148.29 500.15 1151.21 503.469 1154.86 505.798C1158.42 507.983 1162.54 509.091 1166.72 508.989Z" fill="white"/>
<path d="M810.207 755.136C809.128 755.198 808.049 755.019 807.048 754.611C806.046 754.203 805.147 753.577 804.415 752.777C803.626 752 803 751.071 802.574 750.047C802.147 749.022 801.929 747.922 801.932 746.811V745.007C801.913 743.894 802.124 742.789 802.551 741.762C802.979 740.735 803.613 739.808 804.415 739.041C806.017 737.481 808.119 736.546 810.345 736.404C814.769 736.649 819.144 735.377 822.757 732.797C825.072 729.383 826.099 725.25 825.653 721.142V653.43C825.625 652.328 825.818 651.232 826.221 650.206C826.623 649.181 827.228 648.248 827.998 647.464C828.745 646.675 829.644 646.046 830.639 645.617C831.635 645.188 832.707 644.966 833.79 644.966H842.341C843.424 644.966 844.496 645.188 845.492 645.617C846.488 646.046 847.386 646.675 848.133 647.464C848.941 648.234 849.588 649.159 850.038 650.183C850.488 651.207 850.731 652.311 850.754 653.43V720.725C851.287 725.372 850.824 730.08 849.397 734.532C847.969 738.983 845.61 743.076 842.479 746.533C832.909 752.79 821.601 755.804 810.207 755.136ZM842.341 610.833C843.424 610.833 844.496 611.054 845.492 611.484C846.488 611.913 847.386 612.541 848.133 613.331C848.941 614.101 849.588 615.025 850.038 616.05C850.488 617.074 850.731 618.177 850.754 619.297V621.656C850.731 622.775 850.488 623.879 850.038 624.903C849.588 625.927 848.941 626.851 848.133 627.622C847.386 628.411 846.488 629.04 845.492 629.469C844.496 629.898 843.424 630.12 842.341 630.12H833.79C832.707 630.12 831.635 629.898 830.639 629.469C829.644 629.04 828.745 628.411 827.998 627.622C827.228 626.838 826.623 625.905 826.221 624.88C825.818 623.854 825.625 622.758 825.653 621.656V619.297C825.625 618.195 825.818 617.098 826.221 616.073C826.623 615.048 827.228 614.115 827.998 613.331C828.745 612.541 829.644 611.913 830.639 611.484C831.635 611.054 832.707 610.833 833.79 610.833H842.341Z" fill="white"/>
<path d="M897.783 723.64C894.295 723.962 890.781 723.479 887.507 722.229C884.233 720.978 881.285 718.993 878.888 716.425C874.339 708.943 872.308 700.184 873.096 691.449V653.431C873.093 652.32 873.311 651.22 873.738 650.195C874.164 649.171 874.79 648.242 875.579 647.465C877.149 645.875 879.281 644.977 881.509 644.967H887.991C889.097 644.948 890.196 645.16 891.216 645.59C892.237 646.02 893.158 646.658 893.921 647.465C894.71 648.242 895.336 649.171 895.762 650.195C896.188 651.22 896.406 652.32 896.404 653.431V689.784C896.031 693.861 896.845 697.959 898.748 701.578C899.687 702.731 900.899 703.628 902.273 704.185C903.647 704.743 905.138 704.944 906.609 704.77C910.199 704.681 913.613 703.188 916.125 700.607C918.645 698.205 920.172 694.934 920.401 691.449V653.431C920.398 652.32 920.616 651.22 921.043 650.195C921.469 649.171 922.095 648.242 922.883 647.465C923.646 646.658 924.567 646.02 925.588 645.59C926.609 645.16 927.707 644.948 928.814 644.967H935.847C938.078 644.967 940.218 645.859 941.796 647.446C943.374 649.033 944.26 651.186 944.26 653.431V713.511C944.279 714.624 944.068 715.729 943.641 716.756C943.213 717.783 942.579 718.71 941.778 719.477C941.005 720.271 940.082 720.9 939.063 721.329C938.045 721.758 936.951 721.978 935.847 721.975H929.779C928.682 722.02 927.587 721.834 926.565 721.428C925.544 721.021 924.618 720.404 923.849 719.616C922.222 717.999 921.283 715.811 921.228 713.511V712.401C918.424 715.941 914.856 718.793 910.794 720.74C906.731 722.687 902.282 723.679 897.783 723.64Z" fill="white"/>
<path d="M971.981 722.113C970.897 722.113 969.825 721.892 968.83 721.463C967.834 721.033 966.935 720.405 966.188 719.616C965.369 718.832 964.725 717.883 964.297 716.831C963.869 715.779 963.667 714.647 963.706 713.511V653.431C963.703 652.32 963.921 651.22 964.348 650.195C964.774 649.17 965.4 648.242 966.188 647.464C966.935 646.675 967.834 646.047 968.83 645.618C969.825 645.188 970.897 644.967 971.981 644.967H978.049C979.157 644.939 980.257 645.147 981.279 645.578C982.301 646.008 983.221 646.651 983.979 647.464C985.585 649.039 986.524 651.176 986.6 653.431V654.68C989.381 651.227 992.89 648.44 996.873 646.52C1000.86 644.601 1005.21 643.596 1009.63 643.579C1013.22 643.254 1016.83 643.775 1020.18 645.1C1023.53 646.424 1026.53 648.517 1028.94 651.211C1033.6 659.058 1035.68 668.189 1034.87 677.296V713.511C1034.9 715.732 1034.05 717.875 1032.53 719.477C1031.76 720.284 1030.84 720.922 1029.82 721.352C1028.8 721.782 1027.7 721.994 1026.59 721.975H1020.11C1017.89 721.965 1015.75 721.067 1014.18 719.477C1013.38 718.71 1012.75 717.783 1012.32 716.756C1011.89 715.729 1011.68 714.624 1011.7 713.511V677.99C1012.05 673.736 1011.24 669.466 1009.36 665.641C1008.31 664.426 1006.98 663.487 1005.49 662.907C1004 662.326 1002.39 662.122 1000.8 662.311C997.195 662.436 993.779 663.98 991.289 666.612C989.955 667.741 988.873 669.14 988.113 670.718C987.352 672.296 986.931 674.017 986.875 675.77V713.511C986.894 714.604 986.698 715.69 986.299 716.707C985.9 717.725 985.305 718.653 984.55 719.439C983.794 720.225 982.892 720.853 981.895 721.288C980.898 721.723 979.825 721.957 978.738 721.975L971.981 722.113Z" fill="white"/>
<path d="M1066.31 630.259C1065.21 630.278 1064.11 630.065 1063.09 629.636C1062.07 629.206 1061.15 628.567 1060.38 627.761C1059.6 626.983 1058.97 626.055 1058.54 625.03C1058.12 624.006 1057.9 622.905 1057.9 621.795V619.436C1057.9 618.325 1058.12 617.225 1058.54 616.2C1058.97 615.175 1059.6 614.247 1060.38 613.469C1061.15 612.663 1062.07 612.025 1063.09 611.595C1064.11 611.165 1065.21 610.953 1066.31 610.972H1074.59C1076.8 611.041 1078.9 611.955 1080.46 613.528C1082.02 615.1 1082.93 617.213 1083 619.436V621.795C1082.93 624.017 1082.02 626.13 1080.46 627.702C1078.9 629.275 1076.8 630.189 1074.59 630.259H1066.31ZM1066.31 722.252C1065.15 722.31 1063.99 722.125 1062.9 721.708C1061.81 721.291 1060.82 720.652 1059.99 719.83C1059.16 719.009 1058.51 718.023 1058.08 716.935C1057.65 715.847 1057.45 714.681 1057.49 713.51V653.43C1057.48 652.319 1057.7 651.219 1058.13 650.195C1058.56 649.17 1059.18 648.241 1059.97 647.464C1060.73 646.658 1061.65 646.019 1062.68 645.589C1063.7 645.159 1064.79 644.947 1065.9 644.966H1074.18C1076.38 645.036 1078.48 645.95 1080.05 647.522C1081.61 649.095 1082.52 651.208 1082.59 653.43V713.51C1082.61 714.636 1082.38 715.753 1081.93 716.783C1081.48 717.814 1080.81 718.733 1079.97 719.477C1079.22 720.266 1078.32 720.894 1077.33 721.324C1076.33 721.753 1075.26 721.974 1074.18 721.974L1066.31 722.252Z" fill="white"/>
<path d="M1167.82 713.51C1159.87 720.305 1149.77 724.035 1139.34 724.035C1128.91 724.035 1118.81 720.305 1110.86 713.51C1107.3 709.51 1104.56 704.838 1102.81 699.764C1101.06 694.69 1100.32 689.317 1100.66 683.956C1100.11 673.144 1103.77 662.543 1110.86 654.401C1118.81 647.606 1128.91 643.876 1139.34 643.876C1149.77 643.876 1159.87 647.606 1167.82 654.401C1174.91 662.543 1178.57 673.144 1178.03 683.956C1178.36 689.317 1177.62 694.69 1175.87 699.764C1174.12 704.838 1171.38 709.51 1167.82 713.51ZM1150.3 666.195C1149.02 664.498 1147.36 663.123 1145.46 662.176C1143.56 661.229 1141.46 660.737 1139.34 660.737C1137.22 660.737 1135.13 661.229 1133.22 662.176C1131.32 663.123 1129.66 664.498 1128.38 666.195C1125.52 671.65 1124.28 677.813 1124.79 683.956C1124.3 690.142 1125.55 696.341 1128.38 701.855C1129.66 703.552 1131.32 704.927 1133.22 705.874C1135.13 706.821 1137.22 707.313 1139.34 707.313C1141.46 707.313 1143.56 706.821 1145.46 705.874C1147.36 704.927 1149.02 703.552 1150.3 701.855C1153.27 696.238 1154.57 689.878 1154.03 683.539C1154.59 677.409 1153.39 671.246 1150.58 665.779L1150.3 666.195Z" fill="white"/>
<path d="M1200.92 722.113C1199.81 722.132 1198.71 721.92 1197.69 721.49C1196.67 721.06 1195.75 720.422 1194.99 719.616C1194.21 718.806 1193.61 717.849 1193.21 716.8C1192.8 715.752 1192.61 714.634 1192.64 713.511V653.431C1192.65 651.215 1193.48 649.082 1194.99 647.464C1195.75 646.658 1196.67 646.02 1197.69 645.59C1198.71 645.16 1199.81 644.948 1200.92 644.967H1208.09C1209.18 644.932 1210.26 645.137 1211.26 645.569C1212.26 646 1213.16 646.647 1213.88 647.464C1214.67 648.242 1215.3 649.17 1215.72 650.195C1216.15 651.22 1216.37 652.32 1216.37 653.431V659.675C1219.43 655.714 1223.29 652.437 1227.68 650.048C1232.07 647.66 1236.9 646.214 1241.88 645.799C1242.96 645.637 1244.07 645.742 1245.1 646.105C1246.13 646.467 1247.06 647.077 1247.81 647.881C1249.34 649.541 1250.17 651.725 1250.15 653.986V655.234C1250.15 657.408 1249.31 659.494 1247.81 661.062C1246.21 662.755 1244.05 663.793 1241.74 663.976C1234.81 664.398 1228.25 667.302 1223.26 672.162C1221.03 674.55 1219.29 677.364 1218.15 680.438C1217.01 683.512 1216.5 686.784 1216.64 690.061V713.511C1216.69 714.615 1216.5 715.716 1216.1 716.744C1215.69 717.771 1215.08 718.703 1214.3 719.477C1213.53 720.283 1212.61 720.922 1211.59 721.352C1210.57 721.782 1209.47 721.994 1208.37 721.975L1200.92 722.113Z" fill="white"/>
<path d="M1319.53 464.727C1319.48 459.196 1320.7 453.729 1323.09 448.749C1325.49 443.769 1328.98 439.408 1333.32 436.005C1334.43 435.136 1335.34 434.021 1335.96 432.747C1336.58 431.472 1336.9 430.071 1336.9 428.651C1336.9 427.231 1336.58 425.83 1335.96 424.555C1335.34 423.28 1334.43 422.166 1333.32 421.297C1327.32 416.679 1322.92 410.288 1320.72 403.023C1318.52 395.757 1318.64 387.981 1321.06 380.787C1323.48 373.592 1328.08 367.341 1334.21 362.91C1340.34 358.479 1347.7 356.092 1355.25 356.083C1364.24 356.158 1372.88 359.617 1379.47 365.781C1386.05 371.944 1390.1 380.364 1390.83 389.384C1393.17 431.01 1426.96 428.235 1426.96 428.235C1436.04 428.315 1444.75 431.828 1451.37 438.075C1457.98 444.322 1462.02 452.845 1462.68 461.951C1464.75 498.999 1492.06 500.941 1497.85 500.941H1498.81C1505.08 500.624 1511.32 501.953 1516.91 504.796C1522.51 507.639 1527.28 511.9 1530.75 517.158C1534.21 522.417 1536.26 528.493 1536.68 534.788C1537.11 541.083 1535.89 547.38 1533.17 553.062C1530.44 558.743 1526.29 563.612 1521.12 567.19C1515.96 570.769 1509.95 572.933 1503.71 573.47C1497.46 574.007 1491.18 572.898 1485.48 570.253C1479.79 567.609 1474.88 563.518 1471.23 558.385C1470.32 557.436 1469.21 556.697 1467.99 556.219C1466.77 555.74 1465.46 555.533 1464.15 555.612C1462.84 555.691 1461.56 556.054 1460.4 556.677C1459.24 557.299 1458.23 558.166 1457.44 559.217C1454.04 563.813 1449.6 567.531 1444.49 570.065C1439.39 572.6 1433.75 573.879 1428.06 573.798C1422.37 573.717 1416.77 572.277 1411.74 569.598C1406.7 566.918 1402.37 563.075 1399.1 558.385C1398.18 557.457 1397.07 556.737 1395.85 556.271C1394.63 555.806 1393.32 555.606 1392.02 555.684C1390.72 555.763 1389.45 556.118 1388.29 556.727C1387.13 557.336 1386.12 558.185 1385.31 559.217C1381.99 562.652 1378.02 565.395 1373.65 567.288C1369.27 569.182 1364.57 570.19 1359.8 570.254C1350.18 570.384 1340.9 566.664 1334.01 559.911C1330.59 556.567 1327.87 552.58 1325.98 548.177C1324.1 543.773 1323.1 539.04 1323.04 534.247C1322.91 524.567 1326.61 515.232 1333.32 508.295C1334.43 507.426 1335.34 506.312 1335.96 505.037C1336.58 503.762 1336.9 502.361 1336.9 500.941C1336.9 499.521 1336.58 498.12 1335.96 496.845C1335.34 495.57 1334.43 494.456 1333.32 493.587C1328.97 490.162 1325.47 485.778 1323.08 480.774C1320.69 475.769 1319.47 470.279 1319.53 464.727Z" fill="white"/>
</g>
<defs>
<clipPath id="clip0_622_554">
<rect width="1451" height="652" fill="white" transform="translate(230 214)"/>
</clipPath>
</defs>
</svg>
