<svg width="1920" height="1080" viewBox="0 0 1920 1080" fill="none" xmlns="http://www.w3.org/2000/svg">
<rect width="1920" height="1080" fill="black"/>
<g clip-path="url(#clip0_622_737)">
<path d="M1681 214H230V866H1681V214Z" fill="black"/>
<path d="M1497.85 549.782L1540.05 446.827L1472.47 358.58L1362.69 373.288L1320.63 476.381L1388.07 564.628L1497.85 549.782Z" fill="white"/>
<path d="M930.468 722.252C924.099 722.42 917.805 720.837 912.264 717.673C907.287 714.862 903.219 710.672 900.541 705.602C897.85 700.374 896.476 694.561 896.541 688.674C896.371 680.932 898.075 673.266 901.506 666.335C904.578 660.002 909.357 654.665 915.298 650.933C921.595 647.044 928.874 645.069 936.261 645.244C941.608 645.185 946.911 646.223 951.845 648.297C956.095 650.205 959.796 653.165 962.603 656.899C965.368 660.523 967.086 664.844 967.567 669.387L951.707 672.578C951.717 670.543 951.301 668.528 950.489 666.663C949.677 664.798 948.485 663.126 946.991 661.753C945.496 660.381 943.732 659.338 941.813 658.693C939.894 658.049 937.861 657.816 935.847 658.009C932.512 657.982 929.228 658.844 926.331 660.507C923.467 662.254 920.944 664.511 918.884 667.167C916.681 670.172 915.045 673.558 914.057 677.157C912.929 681.127 912.372 685.239 912.402 689.368C912.303 693.008 913.059 696.621 914.608 699.913C915.902 702.974 918.122 705.548 920.952 707.267C924.108 709.187 927.747 710.15 931.434 710.042C934.866 710.043 938.223 709.03 941.088 707.128C944.175 705.166 946.471 702.167 947.57 698.664L962.327 703.937C959.849 709.829 955.479 714.715 949.914 717.812C943.935 720.992 937.226 722.523 930.468 722.252Z" fill="white"/>
<path d="M1005.77 646.632L988.531 720.864H972.809L989.91 646.632H1005.77ZM1002.05 634.144C999.496 634.233 997 633.396 995.013 631.785C994.109 630.984 993.42 629.966 993.011 628.826C992.601 627.686 992.483 626.461 992.668 625.264C992.592 623.772 992.836 622.281 993.383 620.892C993.93 619.503 994.768 618.25 995.84 617.216C998.028 615.342 1000.83 614.353 1003.7 614.441C1006.28 614.278 1008.83 615.068 1010.87 616.661C1011.72 617.476 1012.37 618.474 1012.78 619.58C1013.18 620.686 1013.33 621.87 1013.22 623.044C1013.25 624.583 1012.97 626.114 1012.4 627.543C1011.83 628.973 1010.98 630.274 1009.91 631.369C1007.79 633.179 1005.1 634.163 1002.32 634.144H1002.05Z" fill="white"/>
<path d="M1012.25 720.864L1029.91 646.631H1043.7L1040.52 665.363L1039.01 664.253C1040.93 658.454 1044.84 653.534 1050.04 650.378C1055.21 647.148 1061.19 645.464 1067.28 645.521C1072.12 645.397 1076.9 646.647 1081.07 649.129C1084.9 651.549 1087.77 655.226 1089.21 659.535C1090.81 664.92 1090.81 670.662 1089.21 676.047L1078.73 721.28H1062.87L1073.21 676.741C1074 674.453 1074.26 672.015 1073.97 669.611C1073.69 667.207 1072.86 664.9 1071.56 662.865C1070.23 661.198 1068.52 659.883 1066.57 659.036C1064.62 658.19 1062.5 657.837 1060.38 658.009C1056.66 657.969 1053 658.927 1049.76 660.784C1046.58 662.672 1043.92 665.346 1042.04 668.554C1039.73 672.52 1038.05 676.828 1037.08 681.319L1027.97 720.725L1012.25 720.864Z" fill="white"/>
<path d="M1138.44 722.252C1132.14 722.403 1125.9 720.871 1120.38 717.812C1115.51 714.971 1111.5 710.844 1108.79 705.879C1105.97 700.644 1104.55 694.765 1104.65 688.813C1104.55 681.287 1106.16 673.837 1109.34 667.028C1112.45 660.277 1117.47 654.604 1123.78 650.727C1130.09 646.849 1137.4 644.941 1144.79 645.244C1150.41 645.128 1155.96 646.465 1160.92 649.129C1165.35 651.639 1168.95 655.402 1171.27 659.952C1173.73 664.951 1174.96 670.471 1174.85 676.047C1174.99 678.08 1174.99 680.12 1174.85 682.152C1174.66 684.284 1174.2 686.382 1173.47 688.396H1113.62V676.186H1164.51L1158.72 680.349C1159.11 679.223 1159.38 678.061 1159.54 676.88C1159.54 675.77 1159.54 674.66 1159.54 673.688C1159.61 670.75 1158.94 667.842 1157.61 665.225C1156.42 662.869 1154.55 660.933 1152.24 659.674C1149.63 658.336 1146.74 657.669 1143.82 657.732C1139.88 657.642 1135.98 658.599 1132.51 660.507C1129.45 662.341 1126.89 664.916 1125.07 668C1123.19 671.168 1121.88 674.644 1121.2 678.267C1120.39 681.911 1119.97 685.633 1119.96 689.368C1119.87 693.128 1120.73 696.851 1122.45 700.19C1124.02 703.119 1126.36 705.565 1129.2 707.267C1132.33 708.987 1135.85 709.848 1139.41 709.764C1143.41 709.977 1147.37 708.908 1150.72 706.712C1153.6 704.784 1156 702.222 1157.75 699.219L1170.44 706.018C1168.44 709.399 1165.82 712.366 1162.72 714.759C1159.39 717.154 1155.71 719.025 1151.82 720.309C1147.48 721.602 1142.97 722.256 1138.44 722.252Z" fill="white"/>
<path d="M1219.54 722.529C1214.29 722.581 1209.06 721.736 1204.09 720.032C1199.61 718.387 1195.49 715.891 1191.95 712.678C1188.56 709.539 1185.8 705.77 1183.82 701.577L1195.82 694.224C1197.58 699.002 1200.79 703.102 1205 705.941C1209.21 708.78 1214.2 710.214 1219.26 710.041C1222.94 710.224 1226.59 709.307 1229.74 707.405C1230.92 706.614 1231.87 705.538 1232.52 704.277C1233.17 703.016 1233.5 701.61 1233.47 700.19C1233.49 699.216 1233.32 698.247 1232.97 697.341C1232.61 696.434 1232.08 695.61 1231.4 694.917C1229.53 693.416 1227.37 692.328 1225.05 691.726L1213.19 688.257C1207.91 686.999 1203.11 684.199 1199.4 680.209C1196.31 676.912 1194.63 672.529 1194.71 667.999C1194.67 663.79 1195.92 659.67 1198.3 656.205C1200.87 652.6 1204.41 649.808 1208.5 648.158C1213.07 646.157 1218 645.119 1222.99 645.105C1229.6 644.997 1236.13 646.521 1242.02 649.545C1247.36 652.392 1251.62 656.926 1254.15 662.449L1242.71 670.219C1241.75 667.662 1240.19 665.377 1238.16 663.559C1233.99 659.823 1228.56 657.837 1222.99 658.009C1219.23 657.737 1215.48 658.607 1212.23 660.507C1211.13 661.195 1210.22 662.155 1209.59 663.297C1208.96 664.439 1208.64 665.723 1208.64 667.028C1208.58 668.134 1208.81 669.236 1209.29 670.232C1209.77 671.227 1210.5 672.082 1211.4 672.717C1213.48 674.088 1215.76 675.119 1218.16 675.769L1231.95 680.071C1236.53 681.245 1240.69 683.698 1243.95 687.147C1246.75 690.262 1248.28 694.326 1248.22 698.525C1248.35 703.092 1247.1 707.591 1244.64 711.43C1242.18 715.269 1238.62 718.268 1234.43 720.032C1229.69 721.89 1224.62 722.741 1219.54 722.529Z" fill="white"/>
<path d="M437.975 552.834V471.803L451.767 508.988L369.018 368.293H434.252L490.659 464.449H452.319L509.277 368.293H568.994L486.246 508.988L500.037 471.803V552.834H437.975Z" fill="white"/>
<path d="M638.503 555.471C622.686 555.827 607.005 552.453 592.715 545.619C580.393 539.793 569.897 530.674 562.374 519.256C555.197 507.807 551.505 494.495 551.755 480.961C551.424 467.285 555.118 453.817 562.374 442.248C569.429 430.944 579.452 421.82 591.336 415.885C604.171 409.417 618.357 406.135 632.711 406.311C646.223 406.231 659.591 409.119 671.879 414.775C683.61 420.305 693.587 428.998 700.703 439.89C708.347 452.37 712.094 466.87 711.46 481.516C711.46 483.597 711.46 485.956 711.46 488.453C711.46 490.951 711.46 493.448 711.46 495.53H601.128V465.836H679.602L657.535 473.468C657.612 468.668 656.573 463.917 654.501 459.593C652.675 455.847 649.86 452.679 646.364 450.435C642.536 448.133 638.134 446.978 633.676 447.105C629.221 447.001 624.825 448.154 620.988 450.435C617.423 452.637 614.553 455.813 612.713 459.593C610.748 463.948 609.759 468.685 609.817 473.468V482.348C609.641 487.86 610.927 493.319 613.541 498.166C615.91 502.517 619.576 506.01 624.022 508.156C629.25 510.394 634.892 511.482 640.572 511.347C646.16 511.536 651.732 510.641 656.984 508.711C661.936 506.758 666.581 504.094 670.775 500.802L701.806 532.16C694.613 539.882 685.738 545.819 675.878 549.504C663.888 553.779 651.22 555.802 638.503 555.471Z" fill="white"/>
<path d="M730.354 552.835V357.193H789.658V552.835H730.354Z" fill="white"/>
<path d="M1005.49 405.895C1015.65 405.709 1025.69 408.045 1034.73 412.694C1043.59 417.302 1050.74 424.645 1055.14 433.645C1060.61 445.142 1063.17 457.821 1062.59 470.554V552.834H1003.43V480.821C1004 474.13 1002.46 467.426 999.012 461.674C997.688 459.848 995.94 458.375 993.921 457.383C991.902 456.392 989.673 455.912 987.427 455.985C984.12 455.983 980.876 456.895 978.049 458.621C975.036 460.672 972.687 463.566 971.291 466.946C969.433 471.857 968.589 477.098 968.809 482.348V552.834H909.643V480.821C910.213 474.165 908.771 467.491 905.506 461.674C904.155 459.808 902.363 458.31 900.292 457.317C898.221 456.323 895.936 455.865 893.645 455.985C890.338 455.983 887.094 456.895 884.267 458.621C881.22 460.634 878.861 463.54 877.509 466.946C875.651 471.857 874.807 477.098 875.027 482.348V552.834H815.861V408.254H872.131V449.88L860.684 438.224C865.298 428.08 872.843 419.57 882.336 413.804C891.607 408.449 902.126 405.672 912.815 405.756C924.698 405.545 936.355 409.035 946.191 415.746C956.452 423.245 963.462 434.42 965.775 446.966L947.156 444.191C951.994 432.888 959.997 423.246 970.188 416.44C980.59 409.338 992.925 405.654 1005.49 405.895Z" fill="white"/>
<path d="M1166.72 555.471C1151.76 555.792 1136.95 552.459 1123.55 545.759C1111.53 539.746 1101.33 530.592 1094.04 519.257C1086.78 507.688 1083.08 494.22 1083.42 480.545C1083.08 466.87 1086.78 453.401 1094.04 441.833C1101.3 430.502 1111.51 421.386 1123.55 415.47C1137.08 409.159 1151.81 405.89 1166.72 405.89C1181.63 405.89 1196.36 409.159 1209.88 415.47C1221.98 421.307 1232.2 430.441 1239.4 441.833C1246.35 453.535 1250.02 466.913 1250.02 480.545C1250.02 494.177 1246.35 507.554 1239.4 519.257C1232.17 530.652 1221.96 539.822 1209.88 545.759C1196.49 552.459 1181.67 555.792 1166.72 555.471ZM1166.72 508.989C1170.85 509.088 1174.92 507.979 1178.44 505.798C1182.15 503.551 1185.09 500.209 1186.85 496.224C1189.07 491.304 1190.15 485.944 1190.02 480.545C1190.2 475.141 1189.11 469.77 1186.85 464.866C1185.04 460.983 1182.11 457.742 1178.44 455.569C1174.92 453.388 1170.85 452.279 1166.72 452.378C1162.54 452.276 1158.42 453.384 1154.86 455.569C1151.25 457.823 1148.34 461.042 1146.44 464.866C1144.23 469.783 1143.19 475.152 1143.41 480.545C1143.24 485.934 1144.28 491.293 1146.44 496.224C1148.29 500.15 1151.21 503.469 1154.86 505.798C1158.42 507.983 1162.54 509.091 1166.72 508.989Z" fill="white"/>
</g>
<defs>
<clipPath id="clip0_622_737">
<rect width="1451" height="652" fill="white" transform="translate(230 214)"/>
</clipPath>
</defs>
</svg>
