<svg xmlns="http://www.w3.org/2000/svg" viewBox="0 0 105.21 46.99"><defs><style>.cls-1{fill:#0f0f14;}.cls-2{fill:#fb3429;}.cls-3{fill:#fff;}</style></defs><g id="Logos_Finales" data-name="Logos Finales"><rect class="cls-1" x="-1.82" y="-0.81" width="108.85" height="48.62"/><polygon class="cls-2" points="91.93 24.2 94.99 16.78 90.09 10.42 82.13 11.48 79.08 18.91 83.97 25.27 91.93 24.2"/><path class="cls-2" d="M50.79,36.63a2.54,2.54,0,0,1-1.32-.33,2.16,2.16,0,0,1-.85-.87,2.59,2.59,0,0,1-.29-1.22,3.44,3.44,0,0,1,.36-1.61,2.71,2.71,0,0,1,1-1.11,2.78,2.78,0,0,1,1.52-.41,2.85,2.85,0,0,1,1.13.22,2,2,0,0,1,.78.62,1.79,1.79,0,0,1,.36.9l-1.15.23A1.05,1.05,0,0,0,51.18,32a1.37,1.37,0,0,0-.69.18,2,2,0,0,0-.54.48,2.2,2.2,0,0,0-.35.72,3.12,3.12,0,0,0-.12.88,1.67,1.67,0,0,0,.16.76,1.14,1.14,0,0,0,.46.53,1.39,1.39,0,0,0,.76.2,1.27,1.27,0,0,0,.7-.21,1.12,1.12,0,0,0,.47-.61l1.07.38a2.06,2.06,0,0,1-.9,1A2.78,2.78,0,0,1,50.79,36.63Z"/><path class="cls-2" d="M56.25,31.18,55,36.53H53.86l1.24-5.35Zm-.27-.9a.77.77,0,0,1-.51-.17.52.52,0,0,1-.17-.47.75.75,0,0,1,.23-.58.84.84,0,0,1,.57-.2.77.77,0,0,1,.52.16.56.56,0,0,1,.17.46.83.83,0,0,1-.24.6A.84.84,0,0,1,56,30.28Z"/><path class="cls-2" d="M56.72,36.53,58,31.18h1l-.23,1.35-.11-.08a1.85,1.85,0,0,1,.8-1,2.33,2.33,0,0,1,1.25-.35,1.87,1.87,0,0,1,1,.26,1.42,1.42,0,0,1,.59.75,2.07,2.07,0,0,1,0,1.19l-.76,3.26H60.39l.75-3.21a1.15,1.15,0,0,0-.12-1,.94.94,0,0,0-.81-.35,1.52,1.52,0,0,0-.77.2,1.58,1.58,0,0,0-.56.56,3.15,3.15,0,0,0-.36.92l-.66,2.84Z"/><path class="cls-2" d="M65.87,36.63a2.59,2.59,0,0,1-1.31-.32,2.24,2.24,0,0,1-.84-.86,2.49,2.49,0,0,1-.3-1.23,3.57,3.57,0,0,1,.34-1.57,2.71,2.71,0,0,1,2.57-1.57,2.38,2.38,0,0,1,1.17.28,1.88,1.88,0,0,1,.75.78,2.51,2.51,0,0,1,.26,1.16,3.37,3.37,0,0,1,0,.44,1.82,1.82,0,0,1-.1.45H64.07v-.88h3.69l-.42.3a1.29,1.29,0,0,0,.06-.25c0-.08,0-.16,0-.23a1.28,1.28,0,0,0-.14-.61.94.94,0,0,0-.39-.4,1.28,1.28,0,0,0-.61-.14,1.63,1.63,0,0,0-.82.2,1.55,1.55,0,0,0-.54.54,2.27,2.27,0,0,0-.28.74,3.7,3.7,0,0,0-.09.8,1.61,1.61,0,0,0,.18.78,1.33,1.33,0,0,0,.49.51,1.47,1.47,0,0,0,.74.18,1.37,1.37,0,0,0,.82-.22,1.65,1.65,0,0,0,.51-.54l.92.49a2.23,2.23,0,0,1-.56.63,2.93,2.93,0,0,1-.79.4A3.41,3.41,0,0,1,65.87,36.63Z"/><path class="cls-2" d="M71.75,36.65a3.37,3.37,0,0,1-1.12-.18,2.69,2.69,0,0,1-.88-.53,2.6,2.6,0,0,1-.59-.8l.87-.53a1.75,1.75,0,0,0,1.7,1.14,1.35,1.35,0,0,0,.76-.19.61.61,0,0,0,.27-.52.52.52,0,0,0-.15-.38,1.23,1.23,0,0,0-.46-.23l-.86-.25a2,2,0,0,1-1-.58,1.25,1.25,0,0,1-.34-.88,1.47,1.47,0,0,1,.26-.85,1.68,1.68,0,0,1,.74-.58A2.65,2.65,0,0,1,72,31.07a2.93,2.93,0,0,1,1.38.32,2,2,0,0,1,.88.93l-.83.56a1.22,1.22,0,0,0-.33-.48A1.58,1.58,0,0,0,72,32a1.36,1.36,0,0,0-.78.18.55.55,0,0,0-.26.47.47.47,0,0,0,.2.41,1.7,1.7,0,0,0,.49.22l1,.31a1.82,1.82,0,0,1,.87.51,1.2,1.2,0,0,1,.31.82,1.63,1.63,0,0,1-1,1.55A2.67,2.67,0,0,1,71.75,36.65Z"/><path class="cls-3" d="M15.08,24.42V18.58l1,2.68-6-10.14h4.73l4.09,6.93H16.12l4.13-6.93h4.33l-6,10.14,1-2.68v5.84Z"/><path class="cls-3" d="M29.62,24.61a7.35,7.35,0,0,1-3.32-.71A5.39,5.39,0,0,1,24.1,22a5,5,0,0,1-.77-2.76,5,5,0,0,1,.77-2.79,5.22,5.22,0,0,1,2.1-1.9,6.52,6.52,0,0,1,3-.69,6.73,6.73,0,0,1,2.84.61,5.08,5.08,0,0,1,2.09,1.81,5.28,5.28,0,0,1,.78,3c0,.15,0,.32,0,.5s0,.36,0,.51h-8V18.15H32.6L31,18.7a2.22,2.22,0,0,0-.22-1,1.64,1.64,0,0,0-.59-.66,1.7,1.7,0,0,0-.92-.24,1.73,1.73,0,0,0-.92.24,1.6,1.6,0,0,0-.6.66,2.35,2.35,0,0,0-.21,1v.64a2.24,2.24,0,0,0,.27,1.14,1.71,1.71,0,0,0,.76.72,2.89,2.89,0,0,0,1.2.23,3.16,3.16,0,0,0,1.19-.19,4,4,0,0,0,1-.57l2.25,2.26a4.93,4.93,0,0,1-1.88,1.25A7.53,7.53,0,0,1,29.62,24.61Z"/><path class="cls-3" d="M36.28,24.42V10.32h4.3v14.1Z"/><path class="cls-3" d="M56.23,13.83a4.48,4.48,0,0,1,2.12.49,3.38,3.38,0,0,1,1.48,1.51,5.57,5.57,0,0,1,.54,2.66v5.93H56.08V19.23a2.29,2.29,0,0,0-.32-1.38,1,1,0,0,0-.84-.41,1.31,1.31,0,0,0-.68.19,1.35,1.35,0,0,0-.49.6,2.79,2.79,0,0,0-.18,1.11v5.08H49.28V19.23a2.39,2.39,0,0,0-.3-1.38,1,1,0,0,0-.86-.41,1.31,1.31,0,0,0-.68.19,1.29,1.29,0,0,0-.49.6,2.79,2.79,0,0,0-.18,1.11v5.08H42.48V14h4.08v3l-.83-.84a4,4,0,0,1,1.57-1.76,4.37,4.37,0,0,1,2.21-.58,4.18,4.18,0,0,1,2.42.72,3.59,3.59,0,0,1,1.42,2.25L52,16.59a4.57,4.57,0,0,1,1.67-2A4.41,4.41,0,0,1,56.23,13.83Z"/><path class="cls-3" d="M67.92,24.61a6.71,6.71,0,0,1-3.13-.7A5.43,5.43,0,0,1,62.65,22a5,5,0,0,1-.77-2.79,5,5,0,0,1,.77-2.79,5.33,5.33,0,0,1,2.14-1.9,7.44,7.44,0,0,1,6.26,0,5.2,5.2,0,0,1,2.14,1.9,5.44,5.44,0,0,1,0,5.58,5.3,5.3,0,0,1-2.14,1.91A6.71,6.71,0,0,1,67.92,24.61Zm0-3.35a1.55,1.55,0,0,0,.85-.23,1.53,1.53,0,0,0,.61-.69,2.59,2.59,0,0,0,.23-1.13,2.49,2.49,0,0,0-.23-1.13,1.53,1.53,0,0,0-.61-.67,1.55,1.55,0,0,0-.85-.23,1.58,1.58,0,0,0-.86.23,1.66,1.66,0,0,0-.61.67,2.5,2.5,0,0,0-.22,1.13,2.59,2.59,0,0,0,.22,1.13,1.66,1.66,0,0,0,.61.69A1.58,1.58,0,0,0,67.92,21.26Z"/></g></svg>