<svg width="381" height="386" viewBox="0 0 381 386" fill="none" xmlns="http://www.w3.org/2000/svg">
<path d="M378 6L4 380" stroke="#959595" stroke-width="2"/>
<path d="M185.167 6C185.167 8.94552 187.554 11.3333 190.5 11.3333C193.446 11.3333 195.833 8.94552 195.833 6C195.833 3.05448 193.446 0.666667 190.5 0.666667C187.554 0.666667 185.167 3.05448 185.167 6ZM378 5H190.5V7H378V5Z" fill="#959595"/>
<path d="M296.167 380C296.167 382.946 298.554 385.333 301.5 385.333C304.446 385.333 306.833 382.946 306.833 380C306.833 377.054 304.446 374.667 301.5 374.667C298.554 374.667 296.167 377.054 296.167 380ZM4 381H301.5V379H4V381Z" fill="#959595"/>
<path d="M3 380.5C66.3333 380.5 186.841 367.499 235.5 183C284.159 -1.50006 350 2.49994 378 7.49862" stroke="#FB3429" stroke-width="5" stroke-linecap="round"/>
</svg>
