<svg width="21" height="21" viewBox="0 0 21 21" fill="none" xmlns="http://www.w3.org/2000/svg">
<path d="M17.9883 8.69583C17.9558 8.5014 17.8554 8.3248 17.7049 8.1974C17.5545 8.07 17.3638 8.00006 17.1666 8H13.8333V9.66667H16.4608L17.8491 18H3.15081L4.53915 9.66667H7.16665V8H3.83331C3.63618 8.00006 3.44545 8.07 3.29501 8.1974C3.14458 8.3248 3.04417 8.5014 3.01165 8.69583L1.34498 18.6958C1.33734 18.7413 1.33344 18.7873 1.33331 18.8333C1.33331 19.0543 1.42111 19.2663 1.57739 19.4226C1.73367 19.5789 1.94563 19.6667 2.16665 19.6667H18.8333C18.8794 19.6665 18.9254 19.6626 18.9708 19.655C19.1887 19.6185 19.3832 19.4969 19.5115 19.3171C19.6398 19.1372 19.6914 18.9137 19.655 18.6958L17.9883 8.69583Z" fill="#FB3429"/>
<path d="M6.74999 11.3333C6.66934 11.3331 6.59038 11.3564 6.5227 11.4003C6.45502 11.4441 6.40153 11.5067 6.3687 11.5804C6.33588 11.654 6.32515 11.7356 6.3378 11.8153C6.35046 11.8949 6.38596 11.9692 6.43999 12.0291L10.19 16.1958C10.2291 16.2393 10.2769 16.2741 10.3303 16.2979C10.3837 16.3217 10.4415 16.334 10.5 16.334C10.5585 16.334 10.6163 16.3217 10.6697 16.2979C10.7231 16.2741 10.7709 16.2393 10.81 16.1958L14.56 12.0291C14.614 11.9692 14.6495 11.8949 14.6622 11.8153C14.6748 11.7356 14.6641 11.654 14.6313 11.5804C14.5985 11.5067 14.545 11.4441 14.4773 11.4003C14.4096 11.3564 14.3306 11.3331 14.25 11.3333H11.3333V2.16659C11.3333 1.94557 11.2455 1.73361 11.0892 1.57733C10.933 1.42105 10.721 1.33325 10.5 1.33325C10.279 1.33325 10.067 1.42105 9.91074 1.57733C9.75446 1.73361 9.66666 1.94557 9.66666 2.16659V11.3333H6.74999Z" fill="#FB3429"/>
</svg>
