<svg xmlns="http://www.w3.org/2000/svg" viewBox="0 0 105.21 46.99"><defs><style>.cls-1{fill:none;}.cls-2{fill:#0f0f14;}.cls-3{fill:#fb3429;}</style></defs><g id="Logos_Finales" data-name="Logos Finales"><rect class="cls-1" x="0.1" width="105.21" height="46.99"/><path class="cls-2" d="M15.18,24.42V18.58l1,2.68-6-10.14h4.73L19,18.05H16.22l4.13-6.93h4.33l-6,10.14,1-2.68v5.84Z"/><path class="cls-2" d="M29.71,24.61a7.34,7.34,0,0,1-3.31-.71A5.32,5.32,0,0,1,24.2,22a5,5,0,0,1-.77-2.76,5.12,5.12,0,0,1,.76-2.79,5.31,5.31,0,0,1,2.11-1.9,6.51,6.51,0,0,1,3-.69,6.75,6.75,0,0,1,2.85.61,5,5,0,0,1,2.08,1.81,5.2,5.2,0,0,1,.79,3,4.44,4.44,0,0,1,0,.5q0,.28,0,.51H27V18.15H32.7l-1.62.55a2.22,2.22,0,0,0-.22-1,1.6,1.6,0,0,0-.6-.66,1.65,1.65,0,0,0-.91-.24,1.73,1.73,0,0,0-.92.24,1.6,1.6,0,0,0-.6.66,2.35,2.35,0,0,0-.21,1v.64a2.24,2.24,0,0,0,.27,1.14,1.71,1.71,0,0,0,.76.72,2.89,2.89,0,0,0,1.2.23A3.07,3.07,0,0,0,31,21.24a4,4,0,0,0,1-.57l2.24,2.26a4.89,4.89,0,0,1-1.87,1.25A7.55,7.55,0,0,1,29.71,24.61Z"/><path class="cls-2" d="M36.38,24.42V10.32h4.3v14.1Z"/><path class="cls-2" d="M56.33,13.83a4.48,4.48,0,0,1,2.12.49,3.38,3.38,0,0,1,1.48,1.51,5.69,5.69,0,0,1,.54,2.66v5.93H56.18V19.23a2.29,2.29,0,0,0-.32-1.38,1,1,0,0,0-.84-.41,1.31,1.31,0,0,0-.68.19,1.29,1.29,0,0,0-.49.6,2.79,2.79,0,0,0-.18,1.11v5.08H49.38V19.23a2.3,2.3,0,0,0-.31-1.38,1,1,0,0,0-.85-.41,1.38,1.38,0,0,0-.69.19,1.34,1.34,0,0,0-.48.6,2.79,2.79,0,0,0-.18,1.11v5.08H42.58V14h4.08v3l-.84-.84a4.13,4.13,0,0,1,1.58-1.76,4.34,4.34,0,0,1,2.21-.58,4.21,4.21,0,0,1,2.42.72,3.54,3.54,0,0,1,1.41,2.25l-1.31-.21a4.57,4.57,0,0,1,1.67-2A4.41,4.41,0,0,1,56.33,13.83Z"/><path class="cls-2" d="M68,24.61a6.71,6.71,0,0,1-3.13-.7A5.43,5.43,0,0,1,62.75,22a5.38,5.38,0,0,1,0-5.58,5.33,5.33,0,0,1,2.14-1.9,7.44,7.44,0,0,1,6.26,0,5.2,5.2,0,0,1,2.14,1.9,5.44,5.44,0,0,1,0,5.58,5.3,5.3,0,0,1-2.14,1.91A6.74,6.74,0,0,1,68,24.61Zm0-3.35a1.55,1.55,0,0,0,.85-.23,1.59,1.59,0,0,0,.61-.69,2.59,2.59,0,0,0,.23-1.13,2.49,2.49,0,0,0-.23-1.13,1.6,1.6,0,0,0-.61-.67,1.7,1.7,0,0,0-1.71,0,1.6,1.6,0,0,0-.61.67,2.49,2.49,0,0,0-.23,1.13,2.59,2.59,0,0,0,.23,1.13,1.59,1.59,0,0,0,.61.69A1.56,1.56,0,0,0,68,21.26Z"/><path class="cls-3" d="M58,32.26l.21-.9H62l-.22.9Zm0,4.45,1.43-6.21a2.48,2.48,0,0,1,.42-.94,1.63,1.63,0,0,1,.67-.52,2.54,2.54,0,0,1,.94-.16,2.37,2.37,0,0,1,.61.07,1.18,1.18,0,0,1,.42.18l-.32.84a1.29,1.29,0,0,0-.26-.12,1.6,1.6,0,0,0-.39-.05,1,1,0,0,0-.67.2,1.18,1.18,0,0,0-.35.7l-.17.76,0,.29-1.14,5Z"/><path class="cls-3" d="M64.14,36.8a2,2,0,0,1-1-.29,1.9,1.9,0,0,1-.72-.79,2.73,2.73,0,0,1-.25-1.21,4,4,0,0,1,.19-1.25,3.71,3.71,0,0,1,.56-1,2.56,2.56,0,0,1,.86-.71,2.33,2.33,0,0,1,1.08-.26,2.07,2.07,0,0,1,.8.15,1.56,1.56,0,0,1,.6.44,1.52,1.52,0,0,1,.34.71l.27-1.19H68l-1.24,5.35h-1l.18-1a2.1,2.1,0,0,1-.73.78A1.84,1.84,0,0,1,64.14,36.8Zm.39-.91a1.17,1.17,0,0,0,.65-.19,1.81,1.81,0,0,0,.54-.5,2.68,2.68,0,0,0,.36-.74,2.9,2.9,0,0,0,.13-.89,1.72,1.72,0,0,0-.15-.74,1.21,1.21,0,0,0-.43-.49,1.23,1.23,0,0,0-.65-.17,1.33,1.33,0,0,0-.71.19,1.68,1.68,0,0,0-.54.49,2.26,2.26,0,0,0-.36.73,2.76,2.76,0,0,0-.13.86,1.81,1.81,0,0,0,.15.78,1.13,1.13,0,0,0,.44.5A1.39,1.39,0,0,0,64.53,35.89Z"/><path class="cls-3" d="M68.44,36.71l1.24-5.35h1l-.23,1.35-.11-.08a1.85,1.85,0,0,1,.8-1,2.33,2.33,0,0,1,1.25-.35,1.79,1.79,0,0,1,1,.27,1.36,1.36,0,0,1,.59.74,2.07,2.07,0,0,1,0,1.19l-.76,3.26H72.11l.75-3.21a1.15,1.15,0,0,0-.12-1,.94.94,0,0,0-.81-.34,1.52,1.52,0,0,0-.77.19,1.58,1.58,0,0,0-.56.56,3.27,3.27,0,0,0-.36.92l-.66,2.84Z"/><path class="cls-3" d="M93.32,10.33H88.1a3.68,3.68,0,0,0-3.55,2.72h0a3.89,3.89,0,0,1-.92,1.66,3.66,3.66,0,0,1-1.51.94,3.67,3.67,0,0,0-2.93,3.6v4.81s0,0,0,.07v.2c0,.06,0,.12,0,.18s0,.07,0,.11v4.69A3.69,3.69,0,0,1,82,26.09h4a3.67,3.67,0,0,0,3.68-3.67h0a1.58,1.58,0,0,0-1.58-1.58H84.42V18.47a2.9,2.9,0,0,1,.81-2h0a2.84,2.84,0,0,1,2-.87h3.94a3.67,3.67,0,0,0,3.67-3.68h0A1.57,1.57,0,0,0,93.32,10.33Z"/></g></svg>