<svg xmlns="http://www.w3.org/2000/svg" viewBox="0 0 480.93 221.79"><defs><style>.cls-1,.cls-10,.cls-15,.cls-2,.cls-3,.cls-4,.cls-5,.cls-6,.cls-7,.cls-8,.cls-9{fill:none;stroke:#dadada;stroke-miterlimit:10;}.cls-1,.cls-10,.cls-2,.cls-3,.cls-6,.cls-7,.cls-8,.cls-9{stroke-width:0.75px;}.cls-2{stroke-dasharray:6.58 6.58;}.cls-3{stroke-dasharray:7.36 7.36;}.cls-4,.cls-5{stroke-width:0.75px;}.cls-5{stroke-dasharray:7.36 7.36;}.cls-6{stroke-dasharray:6.56 6.56;}.cls-7{stroke-dasharray:6.58 6.58;}.cls-8{stroke-dasharray:6.46 6.46;}.cls-9{stroke-dasharray:7.36 7.36;}.cls-10{stroke-dasharray:7.35 7.35;}.cls-11{fill:#fb3429;}.cls-12{fill:#0f0f14;}.cls-13{opacity:0.6;}.cls-14{fill:#c6c6c5;}</style></defs><g id="Guias"><line class="cls-1" x1="335.9" y1="5.32" x2="335.9" y2="8.66"/><line class="cls-2" x1="335.9" y1="15.24" x2="335.9" y2="209.46"/><line class="cls-1" x1="335.9" y1="212.75" x2="335.9" y2="216.08"/><line class="cls-1" x1="475.97" y1="115" x2="472.33" y2="115"/><line class="cls-3" x1="464.96" y1="115" x2="12.09" y2="115"/><line class="cls-1" x1="8.41" y1="115" x2="4.76" y2="115"/><line class="cls-1" x1="475.97" y1="169.91" x2="472.33" y2="169.91"/><line class="cls-3" x1="464.96" y1="169.91" x2="12.09" y2="169.92"/><line class="cls-1" x1="8.41" y1="169.92" x2="4.76" y2="169.92"/><line class="cls-1" x1="475.97" y1="145.15" x2="472.33" y2="145.15"/><line class="cls-3" x1="464.96" y1="145.15" x2="12.09" y2="145.15"/><line class="cls-1" x1="8.41" y1="145.15" x2="4.76" y2="145.15"/><line class="cls-1" x1="475.97" y1="138.1" x2="472.33" y2="138.1"/><line class="cls-3" x1="464.96" y1="138.1" x2="12.09" y2="138.1"/><line class="cls-1" x1="8.41" y1="138.1" x2="4.76" y2="138.1"/><line class="cls-4" x1="475.97" y1="52.18" x2="472.32" y2="52.18"/><line class="cls-5" x1="464.96" y1="52.18" x2="12.28" y2="52.18"/><line class="cls-4" x1="8.6" y1="52.18" x2="4.95" y2="52.18"/><line class="cls-1" x1="50.31" y1="6.03" x2="50.31" y2="9.36"/><line class="cls-6" x1="50.31" y1="15.92" x2="50.31" y2="209.47"/><line class="cls-1" x1="50.31" y1="212.75" x2="50.31" y2="216.09"/><line class="cls-1" x1="358.98" y1="5.32" x2="358.98" y2="8.66"/><line class="cls-7" x1="358.98" y1="15.24" x2="358.98" y2="209.46"/><line class="cls-1" x1="358.98" y1="212.75" x2="358.98" y2="216.08"/><line class="cls-1" x1="4.76" y1="6.03" x2="4.76" y2="9.36"/><line class="cls-6" x1="4.76" y1="15.92" x2="4.76" y2="209.47"/><line class="cls-1" x1="4.76" y1="212.75" x2="4.76" y2="216.09"/><line class="cls-1" x1="475.97" y1="8.51" x2="475.97" y2="11.77"/><line class="cls-8" x1="475.97" y1="18.22" x2="475.97" y2="208.66"/><line class="cls-1" x1="475.97" y1="211.89" x2="475.97" y2="215.14"/><line class="cls-1" x1="475.97" y1="216.08" x2="472.3" y2="216.08"/><line class="cls-9" x1="464.94" y1="216.08" x2="12.3" y2="216.08"/><line class="cls-1" x1="8.62" y1="216.08" x2="4.95" y2="216.08"/><line class="cls-1" x1="475.97" y1="5.71" x2="472.31" y2="5.71"/><line class="cls-10" x1="464.96" y1="5.71" x2="13.13" y2="5.71"/><line class="cls-1" x1="9.46" y1="5.71" x2="5.8" y2="5.71"/><line class="cls-1" x1="429.02" y1="5.32" x2="429.02" y2="8.66"/><line class="cls-7" x1="429.02" y1="15.24" x2="429.02" y2="209.46"/><line class="cls-1" x1="429.02" y1="212.75" x2="429.02" y2="216.08"/></g><g id="Logotipo"><polygon class="cls-11" points="416.54 114.06 430.23 80.83 408.29 52.36 372.67 57.12 358.98 90.35 380.92 118.82 416.54 114.06"/><path class="cls-11" d="M231.47,169.4a11.6,11.6,0,0,1-5.91-1.43,9.76,9.76,0,0,1-3.79-3.91,11.41,11.41,0,0,1-1.32-5.48,15.6,15.6,0,0,1,1.61-7.21,12.4,12.4,0,0,1,4.5-5,12.6,12.6,0,0,1,6.83-1.82,12.26,12.26,0,0,1,5.05,1,8.75,8.75,0,0,1,3.5,2.76,8.36,8.36,0,0,1,1.6,4l-5.12,1.05a5.27,5.27,0,0,0-1.37-3.4,5,5,0,0,0-3.86-1.39,6.17,6.17,0,0,0-3.06.79,8,8,0,0,0-2.42,2.16,10.24,10.24,0,0,0-1.58,3.21,13.66,13.66,0,0,0-.55,3.95,7.88,7.88,0,0,0,.72,3.43,5.63,5.63,0,0,0,2.08,2.37,6.26,6.26,0,0,0,3.38.86,5.85,5.85,0,0,0,3.16-.93,5.14,5.14,0,0,0,2.11-2.71l4.79,1.67a9.45,9.45,0,0,1-4,4.44A12.6,12.6,0,0,1,231.47,169.4Z"/><path class="cls-11" d="M255.9,145,250.34,169h-5.12L250.77,145Zm-1.2-4a3.3,3.3,0,0,1-2.29-.77,2.39,2.39,0,0,1-.77-2.11,3.45,3.45,0,0,1,1.05-2.59,3.68,3.68,0,0,1,2.54-.91,3.34,3.34,0,0,1,2.32.75,2.44,2.44,0,0,1,.79,2,3.67,3.67,0,0,1-1.1,2.68A3.64,3.64,0,0,1,254.7,141Z"/><path class="cls-11" d="M258,169,263.56,145h4.51l-1,6-.48-.33a8.2,8.2,0,0,1,3.55-4.62,10.48,10.48,0,0,1,5.6-1.56,8.39,8.39,0,0,1,4.55,1.17,6.3,6.3,0,0,1,2.64,3.36,9.58,9.58,0,0,1,.05,5.29L279.57,169h-5.13l3.35-14.37a5.1,5.1,0,0,0-.52-4.29,4.25,4.25,0,0,0-3.65-1.55,6.74,6.74,0,0,0-3.42.86,7,7,0,0,0-2.52,2.51,15,15,0,0,0-1.62,4.15L263.13,169Z"/><path class="cls-11" d="M299,169.4a11.52,11.52,0,0,1-5.85-1.41,9.81,9.81,0,0,1-3.78-3.86,11.14,11.14,0,0,1-1.34-5.5,16,16,0,0,1,1.53-7,12.37,12.37,0,0,1,4.45-5.1,12.55,12.55,0,0,1,7-1.92,10.53,10.53,0,0,1,5.27,1.24,8.29,8.29,0,0,1,3.36,3.48,11.12,11.12,0,0,1,1.15,5.19,16.65,16.65,0,0,1-.12,2,9.72,9.72,0,0,1-.46,2h-19.3v-3.93h16.52l-1.86,1.34a5.76,5.76,0,0,0,.24-1.12c0-.37,0-.71,0-1a5.94,5.94,0,0,0-.59-2.73,4.21,4.21,0,0,0-1.75-1.77,5.63,5.63,0,0,0-2.74-.63,7.14,7.14,0,0,0-3.66.89,6.84,6.84,0,0,0-2.42,2.39,10.5,10.5,0,0,0-1.29,3.33,17.17,17.17,0,0,0-.39,3.6,7.26,7.26,0,0,0,.79,3.47,5.75,5.75,0,0,0,2.21,2.27,6.47,6.47,0,0,0,3.33.82,6.38,6.38,0,0,0,3.66-1,7.5,7.5,0,0,0,2.28-2.44l4.12,2.2a9.47,9.47,0,0,1-2.52,2.8,11.16,11.16,0,0,1-3.54,1.8A14.81,14.81,0,0,1,299,169.4Z"/><path class="cls-11" d="M325.31,169.5a14.77,14.77,0,0,1-5-.81,11.73,11.73,0,0,1-4-2.35,11.22,11.22,0,0,1-2.63-3.59l3.88-2.35a7.75,7.75,0,0,0,7.62,5.07,5.74,5.74,0,0,0,3.4-.86,2.69,2.69,0,0,0,1.2-2.3,2.3,2.3,0,0,0-.67-1.7,4.87,4.87,0,0,0-2.07-1l-3.83-1.15a9.34,9.34,0,0,1-4.67-2.56,5.79,5.79,0,0,1-1.51-4,6.55,6.55,0,0,1,1.15-3.81,7.76,7.76,0,0,1,3.31-2.61,12.38,12.38,0,0,1,5.08-1,12.81,12.81,0,0,1,6.17,1.44,8.74,8.74,0,0,1,3.93,4.17L333,152.64a6.35,6.35,0,0,0-1.48-2.16,7.1,7.1,0,0,0-5-2,6.21,6.21,0,0,0-3.5.79,2.47,2.47,0,0,0-1.15,2.13,2.07,2.07,0,0,0,.91,1.82,8.3,8.3,0,0,0,2.16,1l4.64,1.38a8.12,8.12,0,0,1,3.89,2.28,5.35,5.35,0,0,1,1.38,3.67,7.33,7.33,0,0,1-1.19,4.21,7.77,7.77,0,0,1-3.35,2.73A12.17,12.17,0,0,1,325.31,169.5Z"/><path class="cls-12" d="M72.47,115V88.91l4.59,12L50,55.48H71.19L89.48,86.53H77.14L95.6,55.48H115L88.12,100.91l4.42-12V115Z"/><path class="cls-12" d="M137.55,115.88a33,33,0,0,1-14.85-3.15,24,24,0,0,1-9.83-8.63,24.11,24.11,0,0,1,0-24.89,23.76,23.76,0,0,1,9.44-8.5,29.25,29.25,0,0,1,13.49-3.07,29.64,29.64,0,0,1,12.72,2.73,22.26,22.26,0,0,1,9.35,8.08q3.54,5.35,3.53,13.27c0,.68,0,1.43-.08,2.25s-.12,1.58-.17,2.26H125.3V87h25.6l-7.23,2.47a10.09,10.09,0,0,0-1-4.63,7.39,7.39,0,0,0-2.68-3,7.51,7.51,0,0,0-4.08-1.06,7.76,7.76,0,0,0-4.13,1.06,7.05,7.05,0,0,0-2.68,3,10.5,10.5,0,0,0-.93,4.63v2.89a10.24,10.24,0,0,0,1.19,5.11,7.55,7.55,0,0,0,3.4,3.19,12.26,12.26,0,0,0,5.36,1.06,14.18,14.18,0,0,0,5.32-.85,21.22,21.22,0,0,0,4.38-2.55l10,10.12A21.94,21.94,0,0,1,149.5,114,33.27,33.27,0,0,1,137.55,115.88Z"/><path class="cls-12" d="M167.4,115V51.91h19.23V115Z"/><path class="cls-12" d="M256.72,67.64a20.34,20.34,0,0,1,9.48,2.18,15.39,15.39,0,0,1,6.64,6.76q2.43,4.59,2.42,11.91V115H256V91.8q0-4.33-1.45-6.16a4.54,4.54,0,0,0-3.74-1.83,5.59,5.59,0,0,0-3.06.85,5.75,5.75,0,0,0-2.17,2.68,12.52,12.52,0,0,0-.81,5V115H225.58V91.8q0-4.33-1.36-6.16a4.48,4.48,0,0,0-3.83-1.83,5.41,5.41,0,0,0-5.22,3.53,12.35,12.35,0,0,0-.81,5V115H195.13V68.49h18.29V81.85l-3.74-3.74a18.27,18.27,0,0,1,7.06-7.87,20,20,0,0,1,20.71.59q4.73,3.19,6.34,10.09L237.92,80a20.58,20.58,0,0,1,7.44-9.06A20,20,0,0,1,256.72,67.64Z"/><path class="cls-12" d="M309,115.88a30.31,30.31,0,0,1-14-3.11,24.07,24.07,0,0,1-9.57-8.55,24.15,24.15,0,0,1,0-25,23.8,23.8,0,0,1,9.57-8.5,30.68,30.68,0,0,1,14-3.07,31,31,0,0,1,14,3.07,23.54,23.54,0,0,1,9.57,8.5,24.45,24.45,0,0,1,0,25,23.8,23.8,0,0,1-9.57,8.55A30.67,30.67,0,0,1,309,115.88Zm0-15a7.32,7.32,0,0,0,3.83-1,7.17,7.17,0,0,0,2.72-3.1,11.44,11.44,0,0,0,1-5.06,11.09,11.09,0,0,0-1-5.06,7.27,7.27,0,0,0-13.1,0,11.09,11.09,0,0,0-1,5.06,11.44,11.44,0,0,0,1,5.06,7.17,7.17,0,0,0,2.72,3.1A7.3,7.3,0,0,0,309,100.91Z"/></g><g id="X"><g class="cls-13"><path class="cls-14" d="M21.65,138.33l12.43-13.24,1.43-.33,8.73-10.15h6.07L38.45,127.42l-1.57.57-9,10.34Zm18.08,0-4.79-10.67-1.19-.57-6.22-12.48h5.65L37.69,125l1,.19,6.64,13.19Z"/></g><g class="cls-13"><path class="cls-14" d="M441,169.9l14.66-16.57-6.32-15h5.65l4.46,11.35,9.67-11.35H475l-13.66,15.57,6.85,16h-5.51l-4.93-12.26L447.18,169.9Z"/></g></g><g id="Circulos"><rect class="cls-1" x="4.76" y="114.93" width="23.08" height="23.08" rx="11.54"/><rect class="cls-1" x="4.76" y="5.61" width="23.08" height="23.08" rx="11.54"/><rect class="cls-1" x="4.76" y="28.69" width="23.08" height="23.08" rx="11.54"/><rect class="cls-1" x="27.85" y="5.61" width="23.08" height="23.08" rx="11.54"/><rect class="cls-1" x="27.85" y="28.69" width="23.08" height="23.08" rx="11.54"/><rect class="cls-1" x="4.76" y="169.71" width="23.08" height="23.08" rx="11.54"/><rect class="cls-1" x="4.76" y="192.79" width="23.08" height="23.08" rx="11.54"/><rect class="cls-1" x="27.85" y="169.71" width="23.08" height="23.08" rx="11.54"/><rect class="cls-1" x="27.85" y="192.79" width="23.08" height="23.08" rx="11.54"/><rect class="cls-1" x="429.41" y="169.97" width="23.08" height="23.08" rx="11.54"/><rect class="cls-1" x="429.41" y="193.06" width="23.08" height="23.08" rx="11.54"/><rect class="cls-1" x="452.5" y="169.97" width="23.08" height="23.08" rx="11.54"/><rect class="cls-1" x="452.5" y="193.06" width="23.08" height="23.08" rx="11.54"/><rect class="cls-1" x="429.41" y="5.71" width="23.08" height="23.08" rx="11.54"/><rect class="cls-1" x="429.41" y="28.79" width="23.08" height="23.08" rx="11.54"/><rect class="cls-1" x="452.5" y="5.71" width="23.08" height="23.08" rx="11.54"/><rect class="cls-1" x="452.5" y="28.79" width="23.08" height="23.08" rx="11.54"/><rect class="cls-1" x="335.9" y="193.16" width="23.08" height="23.08" rx="11.54"/><rect class="cls-1" x="358.98" y="193.02" width="23.08" height="23.08" rx="11.54"/><rect class="cls-1" x="382.07" y="193.02" width="23.08" height="23.08" rx="11.54"/><rect class="cls-1" x="405.15" y="193.02" width="23.08" height="23.08" rx="11.54"/></g><g id="Rectángulo"><rect class="cls-15" x="4.95" y="5.71" width="471.02" height="210.38"/></g></svg>