<svg width="106" height="47" viewBox="0 0 106 47" fill="none" xmlns="http://www.w3.org/2000/svg">
<path d="M15.08 24.4199V18.5799L16.08 21.2599L10.08 11.1199H14.81L18.9 18.0499H16.12L20.25 11.1199H24.58L18.58 21.2599L19.58 18.5799V24.4199H15.08Z" fill="#0F0F14"/>
<path d="M29.61 24.6101C28.4664 24.6346 27.3329 24.3914 26.3 23.9001C25.4056 23.4815 24.6443 22.824 24.1 22.0001C23.5777 21.1721 23.3099 20.2089 23.33 19.2301C23.306 18.2445 23.5739 17.2738 24.1 16.4401C24.6115 15.6254 25.3383 14.9678 26.2 14.5401C27.1306 14.0739 28.1592 13.8373 29.2 13.8501C30.1798 13.8443 31.149 14.0525 32.04 14.4601C32.8906 14.8586 33.614 15.4851 34.13 16.2701C34.6843 17.1695 34.956 18.2146 34.91 19.2701C34.91 19.4201 34.91 19.5901 34.91 19.7701C34.91 19.9501 34.91 20.1301 34.91 20.2801H26.91V18.1501H32.6L31 18.7001C31.0056 18.3542 30.9302 18.0117 30.78 17.7001C30.6475 17.4302 30.4434 17.2019 30.19 17.0401C29.9124 16.8742 29.5932 16.791 29.27 16.8001C28.9469 16.7926 28.6282 16.8757 28.35 17.0401C28.0915 17.1988 27.8834 17.4277 27.75 17.7001C27.6075 18.014 27.5358 18.3554 27.54 18.7001V19.3401C27.5273 19.7373 27.6204 20.1308 27.81 20.4801C27.9818 20.7937 28.2476 21.0455 28.57 21.2001C28.949 21.3614 29.3582 21.4398 29.77 21.4301C30.1752 21.4437 30.5792 21.3792 30.96 21.2401C31.3179 21.0969 31.6544 20.9051 31.96 20.6701L34.2 22.9301C33.6842 23.4887 33.0433 23.9171 32.33 24.1801C31.4573 24.489 30.5353 24.6347 29.61 24.6101Z" fill="#0F0F14"/>
<path d="M36.28 24.4201V10.3201H40.58V24.4201H36.28Z" fill="#0F0F14"/>
<path d="M56.23 13.83C56.9657 13.8214 57.6927 13.9895 58.35 14.32C58.9921 14.6521 59.5108 15.1813 59.83 15.83C60.2266 16.6586 60.4121 17.5724 60.37 18.49V24.42H56.08V19.23C56.1219 18.7477 56.0098 18.2646 55.76 17.85C55.664 17.7184 55.5372 17.6123 55.3908 17.5408C55.2444 17.4693 55.0828 17.4347 54.92 17.44C54.6802 17.4399 54.445 17.5056 54.24 17.63C54.019 17.7751 53.848 17.9845 53.75 18.23C53.6161 18.5841 53.5549 18.9617 53.57 19.34V24.42H49.28V19.23C49.3213 18.7503 49.2167 18.2693 48.98 17.85C48.882 17.7155 48.7521 17.6076 48.6019 17.536C48.4518 17.4644 48.2861 17.4314 48.12 17.44C47.8802 17.4399 47.645 17.5056 47.44 17.63C47.219 17.7751 47.048 17.9845 46.95 18.23C46.8161 18.5841 46.7549 18.9617 46.77 19.34V24.42H42.48V14H46.56V17L45.73 16.16C46.0696 15.4322 46.6156 14.8202 47.3 14.4C47.9722 14.0141 48.7349 13.8139 49.51 13.82C50.3716 13.8048 51.2168 14.0563 51.93 14.54C52.674 15.0804 53.1823 15.8858 53.35 16.79L52 16.59C52.3508 15.7754 52.931 15.0805 53.67 14.59C54.4243 14.0782 55.3186 13.8127 56.23 13.83Z" fill="#0F0F14"/>
<path d="M67.92 24.61C66.8354 24.6331 65.7614 24.3929 64.79 23.91C63.9184 23.4767 63.1792 22.817 62.65 22C62.1239 21.1663 61.856 20.1956 61.88 19.21C61.856 18.2244 62.1239 17.2538 62.65 16.42C63.1768 15.6034 63.9168 14.9464 64.79 14.52C65.7708 14.0652 66.8389 13.8296 67.92 13.8296C69.0011 13.8296 70.0692 14.0652 71.05 14.52C71.927 14.9407 72.6684 15.599 73.19 16.42C73.6939 17.2634 73.9599 18.2276 73.9599 19.21C73.9599 20.1925 73.6939 21.1566 73.19 22C72.6658 22.8213 71.9253 23.4822 71.05 23.91C70.0786 24.3929 69.0046 24.6331 67.92 24.61ZM67.92 21.26C68.2196 21.2671 68.5148 21.1872 68.77 21.03C69.0394 20.8681 69.2523 20.6272 69.38 20.34C69.5406 19.9854 69.6192 19.5992 69.61 19.21C69.6228 18.8205 69.544 18.4335 69.38 18.08C69.249 17.8002 69.0363 17.5666 68.77 17.41C68.5148 17.2528 68.2196 17.1729 67.92 17.18C67.6172 17.1727 67.3187 17.2525 67.06 17.41C66.7985 17.5725 66.5873 17.8044 66.45 18.08C66.2897 18.4344 66.2144 18.8214 66.23 19.21C66.2176 19.5984 66.2928 19.9846 66.45 20.34C66.5842 20.6229 66.7956 20.8622 67.06 21.03C67.3187 21.1875 67.6172 21.2674 67.92 21.26Z" fill="#0F0F14"/>
<path d="M42.07 39.0001C41.9918 39.0046 41.9135 38.9916 41.8409 38.9622C41.7683 38.9328 41.7031 38.8877 41.65 38.8301C41.5928 38.7741 41.5474 38.7071 41.5165 38.6333C41.4856 38.5594 41.4698 38.4802 41.47 38.4001V38.2701C41.4686 38.1899 41.4839 38.1102 41.5149 38.0362C41.5459 37.9622 41.5919 37.8954 41.65 37.8401C41.7662 37.7277 41.9186 37.6603 42.08 37.6501C42.4008 37.6677 42.718 37.5761 42.98 37.3901C43.1478 37.1441 43.2223 36.8462 43.19 36.5501V31.6701C43.1879 31.5907 43.2019 31.5116 43.2311 31.4377C43.2603 31.3639 43.3042 31.2966 43.36 31.2401C43.4142 31.1832 43.4793 31.1379 43.5515 31.107C43.6237 31.0761 43.7014 31.0601 43.78 31.0601H44.4C44.4785 31.0601 44.5563 31.0761 44.6285 31.107C44.7007 31.1379 44.7658 31.1832 44.82 31.2401C44.8785 31.2956 44.9255 31.3622 44.9581 31.4361C44.9907 31.5099 45.0083 31.5894 45.01 31.6701V36.5201C45.0486 36.855 45.0151 37.1943 44.9116 37.5151C44.8081 37.836 44.637 38.1309 44.41 38.3801C43.7161 38.831 42.8962 39.0483 42.07 39.0001ZM44.4 28.6001C44.4785 28.6001 44.5563 28.6161 44.6285 28.647C44.7007 28.6779 44.7658 28.7232 44.82 28.7801C44.8785 28.8356 44.9255 28.9022 44.9581 28.9761C44.9907 29.0499 45.0083 29.1294 45.01 29.2101V29.3801C45.0083 29.4608 44.9907 29.5403 44.9581 29.6141C44.9255 29.6879 44.8785 29.7546 44.82 29.8101C44.7658 29.867 44.7007 29.9123 44.6285 29.9432C44.5563 29.9741 44.4785 29.9901 44.4 29.9901H43.78C43.7014 29.9901 43.6237 29.9741 43.5515 29.9432C43.4793 29.9123 43.4142 29.867 43.36 29.8101C43.3042 29.7536 43.2603 29.6863 43.2311 29.6124C43.2019 29.5386 43.1879 29.4595 43.19 29.3801V29.2101C43.1879 29.1307 43.2019 29.0516 43.2311 28.9778C43.2603 28.9039 43.3042 28.8366 43.36 28.7801C43.4142 28.7232 43.4793 28.6779 43.5515 28.647C43.6237 28.6161 43.7014 28.6001 43.78 28.6001H44.4Z" fill="#0F0F14"/>
<path d="M48.42 36.7299C48.1671 36.7531 47.9123 36.7183 47.6749 36.6282C47.4375 36.5381 47.2238 36.395 47.05 36.2099C46.7201 35.6707 46.5728 35.0394 46.63 34.4099V31.6699C46.6298 31.5898 46.6456 31.5106 46.6765 31.4367C46.7074 31.3629 46.7528 31.2959 46.81 31.2399C46.9238 31.1253 47.0785 31.0606 47.24 31.0599H47.71C47.7902 31.0585 47.8699 31.0738 47.9439 31.1048C48.0179 31.1358 48.0847 31.1818 48.14 31.2399C48.1972 31.2959 48.2425 31.3629 48.2735 31.4367C48.3044 31.5106 48.3202 31.5898 48.32 31.6699V34.2899C48.293 34.5837 48.352 34.8791 48.49 35.1399C48.5581 35.223 48.646 35.2876 48.7456 35.3278C48.8452 35.368 48.9533 35.3825 49.06 35.3699C49.3203 35.3635 49.5678 35.2559 49.75 35.0699C49.9327 34.8968 50.0434 34.6611 50.06 34.4099V31.6699C50.0598 31.5898 50.0756 31.5106 50.1065 31.4367C50.1374 31.3629 50.1828 31.2959 50.24 31.2399C50.2953 31.1818 50.3621 31.1358 50.4361 31.1048C50.5101 31.0738 50.5898 31.0585 50.67 31.0599H51.18C51.3418 31.0599 51.4969 31.1242 51.6113 31.2386C51.7257 31.353 51.79 31.5081 51.79 31.6699V35.9999C51.7914 36.0801 51.7761 36.1598 51.7451 36.2338C51.7141 36.3078 51.6681 36.3746 51.61 36.4299C51.554 36.4871 51.487 36.5325 51.4132 36.5634C51.3393 36.5943 51.2601 36.6101 51.18 36.6099H50.74C50.6604 36.6132 50.581 36.5997 50.507 36.5705C50.4329 36.5412 50.3658 36.4967 50.31 36.4399C50.1921 36.3234 50.1239 36.1656 50.12 35.9999V35.9199C49.9167 36.175 49.6579 36.3806 49.3634 36.5209C49.0689 36.6613 48.7462 36.7327 48.42 36.7299Z" fill="#0F0F14"/>
<path d="M53.8 36.6199C53.7214 36.6199 53.6437 36.6039 53.5715 36.573C53.4993 36.5421 53.4342 36.4968 53.38 36.4399C53.3206 36.3834 53.2739 36.315 53.2428 36.2392C53.2118 36.1633 53.1972 36.0818 53.2 35.9999V31.6699C53.1998 31.5898 53.2156 31.5106 53.2465 31.4367C53.2774 31.3629 53.3228 31.2959 53.38 31.2399C53.4342 31.183 53.4993 31.1377 53.5715 31.1068C53.6437 31.0759 53.7214 31.0599 53.8 31.0599H54.24C54.3203 31.0579 54.4001 31.0729 54.4742 31.1039C54.5483 31.135 54.615 31.1813 54.67 31.2399C54.7864 31.3533 54.8545 31.5074 54.86 31.6699V31.7599C55.0616 31.5111 55.3161 31.3102 55.6049 31.1719C55.8937 31.0335 56.2097 30.9611 56.53 30.9599C56.79 30.9365 57.052 30.974 57.295 31.0695C57.538 31.1649 57.7554 31.3157 57.93 31.5099C58.2683 32.0754 58.4188 32.7335 58.36 33.3899V35.9999C58.3619 36.16 58.3009 36.3144 58.19 36.4299C58.1347 36.488 58.0679 36.534 57.9939 36.565C57.9198 36.596 57.8402 36.6113 57.76 36.6099H57.29C57.1285 36.6092 56.9738 36.5445 56.86 36.4299C56.8019 36.3746 56.7559 36.3078 56.7249 36.2338C56.6939 36.1598 56.6786 36.0801 56.68 35.9999V33.4399C56.7054 33.1333 56.6466 32.8256 56.51 32.5499C56.4341 32.4623 56.3379 32.3947 56.2298 32.3528C56.1217 32.311 56.0051 32.2963 55.89 32.3099C55.6283 32.3189 55.3805 32.4302 55.2 32.6199C55.1033 32.7013 55.0248 32.8021 54.9697 32.9158C54.9146 33.0295 54.884 33.1536 54.88 33.2799V35.9999C54.8813 36.0787 54.8671 36.157 54.8382 36.2303C54.8092 36.3036 54.7661 36.3705 54.7113 36.4271C54.6566 36.4838 54.5911 36.5291 54.5188 36.5604C54.4465 36.5918 54.3688 36.6086 54.29 36.6099L53.8 36.6199Z" fill="#0F0F14"/>
<path d="M60.64 29.9999C60.5598 30.0013 60.4801 29.986 60.4061 29.955C60.3321 29.9241 60.2653 29.8781 60.21 29.8199C60.1528 29.7639 60.1074 29.697 60.0765 29.6231C60.0456 29.5493 60.0298 29.47 60.03 29.3899V29.2199C60.0298 29.1399 60.0456 29.0606 60.0765 28.9868C60.1074 28.9129 60.1528 28.846 60.21 28.7899C60.2653 28.7318 60.3321 28.6858 60.4061 28.6548C60.4801 28.6239 60.5598 28.6086 60.64 28.6099H61.24C61.4002 28.615 61.5524 28.6808 61.6658 28.7942C61.7791 28.9075 61.845 29.0598 61.85 29.2199V29.3899C61.845 29.5501 61.7791 29.7024 61.6658 29.8157C61.5524 29.9291 61.4002 29.9949 61.24 29.9999H60.64ZM60.64 36.6299C60.5557 36.6341 60.4714 36.6208 60.3925 36.5908C60.3137 36.5607 60.2419 36.5146 60.1817 36.4554C60.1216 36.3962 60.0743 36.3252 60.0431 36.2468C60.0118 36.1684 59.9971 36.0843 60 35.9999V31.6699C59.9998 31.5899 60.0156 31.5106 60.0465 31.4368C60.0774 31.3629 60.1228 31.296 60.18 31.2399C60.2353 31.1818 60.3021 31.1358 60.3761 31.1048C60.4501 31.0739 60.5298 31.0586 60.61 31.0599H61.21C61.3702 31.065 61.5224 31.1308 61.6358 31.2442C61.7491 31.3575 61.815 31.5098 61.82 31.6699V35.9999C61.8214 36.0811 61.8051 36.1616 61.7723 36.2358C61.7395 36.3101 61.6909 36.3763 61.63 36.4299C61.5758 36.4868 61.5107 36.5321 61.4385 36.5631C61.3663 36.594 61.2885 36.6099 61.21 36.6099L60.64 36.6299Z" fill="#0F0F14"/>
<path d="M68 36C67.4234 36.4897 66.6915 36.7586 65.935 36.7586C65.1785 36.7586 64.4466 36.4897 63.87 36C63.6116 35.7118 63.4131 35.375 63.2861 35.0093C63.159 34.6437 63.106 34.2564 63.13 33.87C63.0903 33.0908 63.3557 32.3268 63.87 31.74C64.4466 31.2503 65.1785 30.9814 65.935 30.9814C66.6915 30.9814 67.4234 31.2503 68 31.74C68.5142 32.3268 68.7797 33.0908 68.74 33.87C68.764 34.2564 68.7109 34.6437 68.5839 35.0093C68.4568 35.375 68.2584 35.7118 68 36ZM66.73 32.59C66.6367 32.4677 66.5164 32.3686 66.3785 32.3003C66.2406 32.2321 66.0888 32.1966 65.935 32.1966C65.7811 32.1966 65.6294 32.2321 65.4915 32.3003C65.3536 32.3686 65.2333 32.4677 65.14 32.59C64.933 32.9832 64.8428 33.4273 64.88 33.87C64.8448 34.3158 64.9348 34.7626 65.14 35.16C65.2333 35.2823 65.3536 35.3814 65.4915 35.4497C65.6294 35.5179 65.7811 35.5534 65.935 35.5534C66.0888 35.5534 66.2406 35.5179 66.3785 35.4497C66.5164 35.3814 66.6367 35.2823 66.73 35.16C66.9452 34.7552 67.039 34.2968 67 33.84C67.0407 33.3982 66.954 32.954 66.75 32.56L66.73 32.59Z" fill="#0F0F14"/>
<path d="M70.4 36.6201C70.3198 36.6215 70.2401 36.6062 70.1661 36.5752C70.0921 36.5442 70.0253 36.4982 69.97 36.4401C69.9139 36.3817 69.8699 36.3127 69.8407 36.2372C69.8115 36.1616 69.7977 36.081 69.8 36.0001V31.6701C69.8001 31.5104 69.8609 31.3567 69.97 31.2401C70.0253 31.182 70.0921 31.136 70.1661 31.105C70.2401 31.074 70.3198 31.0587 70.4 31.0601H70.92C70.9989 31.0576 71.0774 31.0724 71.15 31.1035C71.2225 31.1346 71.2874 31.1812 71.34 31.2401C71.3972 31.2961 71.4425 31.363 71.4734 31.4369C71.5044 31.5107 71.5202 31.59 71.52 31.6701V32.1201C71.7425 31.8347 72.0218 31.5984 72.3402 31.4263C72.6587 31.2542 73.0093 31.1499 73.37 31.1201C73.4485 31.1084 73.5286 31.116 73.6035 31.1421C73.6784 31.1682 73.7458 31.2121 73.8 31.2701C73.9106 31.3898 73.9714 31.5471 73.97 31.7101V31.8001C73.9693 31.9567 73.9085 32.1071 73.8 32.2201C73.6843 32.3421 73.5276 32.4169 73.36 32.4301C72.8572 32.4605 72.3819 32.6698 72.02 33.0201C71.8579 33.1922 71.7319 33.395 71.6495 33.6165C71.567 33.8381 71.5298 34.0739 71.54 34.3101V36.0001C71.5433 36.0797 71.5298 36.159 71.5005 36.2331C71.4713 36.3072 71.4268 36.3743 71.37 36.4301C71.3147 36.4882 71.2479 36.5342 71.1739 36.5652C71.0999 36.5962 71.0202 36.6115 70.94 36.6101L70.4 36.6201Z" fill="#0F0F14"/>
<path d="M79 18.07C78.9968 17.6714 79.0854 17.2774 79.2588 16.9185C79.4322 16.5595 79.6858 16.2453 80 16C80.0809 15.9374 80.1465 15.8571 80.1916 15.7652C80.2367 15.6733 80.2601 15.5723 80.2601 15.47C80.2601 15.3676 80.2367 15.2667 80.1916 15.1748C80.1465 15.0829 80.0809 15.0026 80 14.94C79.5654 14.6072 79.246 14.1466 79.0866 13.6229C78.9272 13.0993 78.9359 12.5389 79.1113 12.0204C79.2867 11.5019 79.6201 11.0514 80.0646 10.732C80.5092 10.4127 81.0426 10.2406 81.59 10.24C82.2421 10.2454 82.8686 10.4947 83.3461 10.9389C83.8236 11.3831 84.1175 11.9899 84.17 12.64C84.34 15.64 86.79 15.44 86.79 15.44C87.448 15.4458 88.0797 15.699 88.5595 16.1492C89.0394 16.5994 89.3323 17.2137 89.38 17.87C89.53 20.54 91.51 20.68 91.93 20.68H92C92.4541 20.6571 92.9064 20.7529 93.3124 20.9578C93.7183 21.1627 94.0639 21.4698 94.3152 21.8488C94.5665 22.2278 94.7148 22.6656 94.7456 23.1193C94.7764 23.573 94.6886 24.0269 94.4908 24.4364C94.293 24.8458 93.992 25.1967 93.6175 25.4546C93.2429 25.7125 92.8077 25.8685 92.3546 25.9072C91.9015 25.9459 91.4462 25.866 91.0333 25.6754C90.6205 25.4848 90.2644 25.19 90 24.82C89.9338 24.7516 89.8536 24.6984 89.7649 24.6639C89.6763 24.6294 89.5812 24.6145 89.4862 24.6202C89.3912 24.6259 89.2986 24.652 89.2147 24.6969C89.1307 24.7417 89.0575 24.8042 89 24.88C88.7533 25.2112 88.4316 25.4791 88.0613 25.6618C87.6909 25.8445 87.2825 25.9367 86.8696 25.9308C86.4567 25.925 86.0511 25.8212 85.6861 25.6281C85.3211 25.435 85.0071 25.158 84.77 24.82C84.703 24.7531 84.6226 24.7012 84.5341 24.6677C84.4456 24.6341 84.351 24.6197 84.2565 24.6254C84.162 24.631 84.0698 24.6567 83.986 24.7005C83.9021 24.7444 83.8285 24.8056 83.77 24.88C83.529 25.1275 83.2416 25.3252 82.9243 25.4617C82.6069 25.5981 82.2658 25.6708 81.9203 25.6754C81.2227 25.6848 80.5499 25.4167 80.05 24.93C79.8024 24.689 79.6048 24.4016 79.4683 24.0843C79.3318 23.7669 79.2592 23.4258 79.2545 23.0803C79.2452 22.3827 79.5133 21.7099 80 21.21C80.0809 21.1474 80.1465 21.0671 80.1916 20.9752C80.2367 20.8833 80.2601 20.7823 80.2601 20.68C80.2601 20.5776 80.2367 20.4767 80.1916 20.3848C80.1465 20.2929 80.0809 20.2126 80 20.15C79.685 19.9032 79.431 19.5872 79.2576 19.2265C79.0842 18.8659 78.996 18.4702 79 18.07Z" fill="#0F0F14"/>
</svg>
