<svg xmlns="http://www.w3.org/2000/svg" viewBox="0 0 389.63 222.03"><defs><style>.cls-1,.cls-14,.cls-2,.cls-3,.cls-4,.cls-5,.cls-6,.cls-7,.cls-8,.cls-9{fill:none;stroke:#dadada;stroke-miterlimit:10;}.cls-1,.cls-2,.cls-3,.cls-4,.cls-9{stroke-width:0.75px;}.cls-2{stroke-dasharray:6.58 6.58;}.cls-3{stroke-dasharray:6.52 6.52;}.cls-4{stroke-dasharray:6.49 6.49;}.cls-5,.cls-6{stroke-width:0.75px;}.cls-6{stroke-dasharray:6.5 6.5;}.cls-7,.cls-8{stroke-width:0.75px;}.cls-8{stroke-dasharray:6.5 6.5;}.cls-9{stroke-dasharray:6.56 6.56;}.cls-10{fill:#fb3429;}.cls-11{fill:#0f0f14;}.cls-12{opacity:0.6;}.cls-13{fill:#c6c6c5;}.cls-14{stroke-width:1px;}</style></defs><g id="Guias"><line class="cls-1" x1="337.3" y1="5.74" x2="337.3" y2="9.08"/><line class="cls-2" x1="337.3" y1="15.66" x2="337.3" y2="209.87"/><line class="cls-1" x1="337.3" y1="213.16" x2="337.3" y2="216.5"/><line class="cls-1" x1="383.47" y1="115.41" x2="380.2" y2="115.41"/><line class="cls-3" x1="373.68" y1="115.41" x2="11.9" y2="115.42"/><line class="cls-1" x1="8.64" y1="115.42" x2="5.37" y2="115.42"/><line class="cls-1" x1="382.85" y1="170.33" x2="379.59" y2="170.33"/><line class="cls-4" x1="373.1" y1="170.33" x2="12.67" y2="170.33"/><line class="cls-1" x1="9.43" y1="170.33" x2="6.17" y2="170.33"/><line class="cls-5" x1="383.47" y1="145.56" x2="380.21" y2="145.56"/><line class="cls-6" x1="373.7" y1="145.56" x2="12.68" y2="145.57"/><line class="cls-5" x1="9.43" y1="145.57" x2="6.17" y2="145.57"/><line class="cls-5" x1="383.47" y1="138.52" x2="380.21" y2="138.52"/><line class="cls-6" x1="373.7" y1="138.52" x2="12.68" y2="138.52"/><line class="cls-5" x1="9.43" y1="138.52" x2="6.17" y2="138.52"/><line class="cls-7" x1="383.47" y1="52.59" x2="380.2" y2="52.59"/><line class="cls-8" x1="373.7" y1="52.59" x2="12.87" y2="52.6"/><line class="cls-7" x1="9.62" y1="52.6" x2="6.36" y2="52.6"/><line class="cls-1" x1="51.71" y1="6.45" x2="51.71" y2="9.78"/><line class="cls-9" x1="51.71" y1="16.34" x2="51.71" y2="209.89"/><line class="cls-1" x1="51.71" y1="213.17" x2="51.71" y2="216.5"/></g><g id="Logotipo"><path class="cls-10" d="M232.87,169.82a11.5,11.5,0,0,1-5.91-1.44,9.67,9.67,0,0,1-3.79-3.9,11.42,11.42,0,0,1-1.31-5.49,15.65,15.65,0,0,1,1.6-7.21,12.37,12.37,0,0,1,4.5-4.95,12.54,12.54,0,0,1,6.83-1.82,12.1,12.1,0,0,1,5.05,1,8.73,8.73,0,0,1,3.5,2.75,8.39,8.39,0,0,1,1.6,4l-5.12,1a5.27,5.27,0,0,0-1.37-3.4A4.94,4.94,0,0,0,234.6,149a6.08,6.08,0,0,0-3.07.79,8,8,0,0,0-2.42,2.16,10.24,10.24,0,0,0-1.58,3.21,13.61,13.61,0,0,0-.55,3.95,7.81,7.81,0,0,0,.72,3.42,5.52,5.52,0,0,0,2.08,2.37,6.18,6.18,0,0,0,3.38.87,5.86,5.86,0,0,0,3.16-.94,5.08,5.08,0,0,0,2.11-2.7l4.79,1.67a9.36,9.36,0,0,1-4,4.43A12.53,12.53,0,0,1,232.87,169.82Z"/><path class="cls-10" d="M257.3,145.44l-5.56,23.95h-5.12l5.56-23.95Zm-1.2-4a3.3,3.3,0,0,1-2.29-.76,2.44,2.44,0,0,1-.77-2.11,3.45,3.45,0,0,1,1.05-2.59,3.68,3.68,0,0,1,2.54-.91,3.38,3.38,0,0,1,2.32.74,2.44,2.44,0,0,1,.79,2,3.65,3.65,0,0,1-1.1,2.68A3.61,3.61,0,0,1,256.1,141.41Z"/><path class="cls-10" d="M259.41,169.39,265,145.44h4.51l-1,6-.48-.33a8.23,8.23,0,0,1,3.55-4.63,10.57,10.57,0,0,1,5.6-1.55,8.39,8.39,0,0,1,4.55,1.17,6.27,6.27,0,0,1,2.64,3.35,9.52,9.52,0,0,1,.05,5.3L281,169.39h-5.13L279.19,155a5.1,5.1,0,0,0-.52-4.29,4.23,4.23,0,0,0-3.64-1.56,6.75,6.75,0,0,0-3.43.87,7,7,0,0,0-2.52,2.51,14.9,14.9,0,0,0-1.62,4.14l-2.93,12.7Z"/><path class="cls-10" d="M300.37,169.82a11.52,11.52,0,0,1-5.85-1.41,9.81,9.81,0,0,1-3.78-3.86A11.18,11.18,0,0,1,289.4,159a16,16,0,0,1,1.53-7,12.49,12.49,0,0,1,4.45-5.1,12.64,12.64,0,0,1,7.05-1.91,10.5,10.5,0,0,1,5.26,1.24,8.29,8.29,0,0,1,3.36,3.48,11.09,11.09,0,0,1,1.15,5.19,16.65,16.65,0,0,1-.12,2,9.72,9.72,0,0,1-.46,2h-19.3V155h16.52L307,156.31a5.92,5.92,0,0,0,.24-1.12c0-.37,0-.71,0-1a5.91,5.91,0,0,0-.6-2.73,4.29,4.29,0,0,0-1.75-1.78,5.73,5.73,0,0,0-2.73-.62,7.15,7.15,0,0,0-3.67.89,6.92,6.92,0,0,0-2.42,2.39,10.74,10.74,0,0,0-1.29,3.33,17.08,17.08,0,0,0-.39,3.59,7.21,7.21,0,0,0,.8,3.48,5.72,5.72,0,0,0,2.2,2.27,7.34,7.34,0,0,0,7-.14,7.36,7.36,0,0,0,2.27-2.44l4.12,2.2a9.47,9.47,0,0,1-2.52,2.8,11.59,11.59,0,0,1-3.54,1.8A14.81,14.81,0,0,1,300.37,169.82Z"/><path class="cls-10" d="M326.71,169.92a14.77,14.77,0,0,1-5-.82,11.41,11.41,0,0,1-4-2.35,11.26,11.26,0,0,1-2.63-3.59l3.88-2.34a7.75,7.75,0,0,0,7.62,5.07A5.79,5.79,0,0,0,330,165a2.69,2.69,0,0,0,1.2-2.3,2.28,2.28,0,0,0-.67-1.7,4.87,4.87,0,0,0-2.07-1l-3.83-1.15a9.5,9.5,0,0,1-4.67-2.56,5.8,5.8,0,0,1-1.5-3.95,6.54,6.54,0,0,1,1.14-3.81,7.86,7.86,0,0,1,3.31-2.62A12.58,12.58,0,0,1,328,145a12.87,12.87,0,0,1,6.18,1.44,8.72,8.72,0,0,1,3.93,4.16l-3.69,2.49a6.24,6.24,0,0,0-1.49-2.15,7.13,7.13,0,0,0-2.23-1.44,7.24,7.24,0,0,0-2.8-.53,6.22,6.22,0,0,0-3.5.8,2.46,2.46,0,0,0-1.15,2.13,2.1,2.1,0,0,0,.91,1.82,8,8,0,0,0,2.16,1l4.65,1.39a8.05,8.05,0,0,1,3.88,2.28,5.3,5.3,0,0,1,1.38,3.66,7.34,7.34,0,0,1-1.19,4.22A7.77,7.77,0,0,1,331.7,169,12.17,12.17,0,0,1,326.71,169.92Z"/><path class="cls-11" d="M73.87,115.44V89.33l4.59,12-27-45.42H72.59L90.88,87H78.55L97,55.9H116.4L89.52,101.32l4.42-12v26.11Z"/><path class="cls-11" d="M139,116.29a33,33,0,0,1-14.85-3.14,24,24,0,0,1-9.82-8.64,22.52,22.52,0,0,1-3.49-12.38,22.86,22.86,0,0,1,3.45-12.5,23.66,23.66,0,0,1,9.44-8.51,29.23,29.23,0,0,1,13.48-3.06,29.78,29.78,0,0,1,12.72,2.72,22.29,22.29,0,0,1,9.35,8.09q3.54,5.35,3.53,13.26c0,.69,0,1.44-.08,2.26s-.11,1.57-.17,2.25H126.7V87.37h25.6l-7.23,2.47a10,10,0,0,0-1-4.64,7.36,7.36,0,0,0-2.68-3,7.52,7.52,0,0,0-4.08-1.07,7.79,7.79,0,0,0-4.13,1.07,7.08,7.08,0,0,0-2.68,3,10.55,10.55,0,0,0-.93,4.64v2.89a10.18,10.18,0,0,0,1.19,5.1,7.58,7.58,0,0,0,3.4,3.2,12.43,12.43,0,0,0,5.36,1.06,14.38,14.38,0,0,0,5.32-.85,21,21,0,0,0,4.38-2.55l10,10.12a22,22,0,0,1-8.37,5.57A33.46,33.46,0,0,1,139,116.29Z"/><path class="cls-11" d="M168.81,115.44V52.32H188v63.12Z"/><path class="cls-11" d="M258.12,68.06a20.43,20.43,0,0,1,9.48,2.17A15.5,15.5,0,0,1,274.24,77q2.43,4.61,2.42,11.91v26.54H257.44V92.22q0-4.34-1.44-6.17a4.6,4.6,0,0,0-3.75-1.83,5.63,5.63,0,0,0-3.06.86A5.75,5.75,0,0,0,247,87.76a12.49,12.49,0,0,0-.81,5v22.71H227V92.22c0-2.89-.46-5-1.36-6.17a4.53,4.53,0,0,0-3.83-1.83,5.6,5.6,0,0,0-3.06.86,5.69,5.69,0,0,0-2.17,2.68,12.32,12.32,0,0,0-.81,5v22.71H196.53V68.91h18.29V82.27l-3.74-3.74a18.27,18.27,0,0,1,7.06-7.87,19.15,19.15,0,0,1,9.87-2.6,19,19,0,0,1,10.84,3.19q4.72,3.19,6.34,10.08l-5.87-.93a20.54,20.54,0,0,1,7.45-9.06A19.84,19.84,0,0,1,258.12,68.06Z"/><path class="cls-11" d="M310.43,116.29a30.34,30.34,0,0,1-14-3.1,24.13,24.13,0,0,1-9.57-8.55,24.15,24.15,0,0,1,0-25,23.89,23.89,0,0,1,9.57-8.51,33.62,33.62,0,0,1,28,0A23.57,23.57,0,0,1,334,79.63a24.45,24.45,0,0,1,0,25,23.8,23.8,0,0,1-9.57,8.55A30.64,30.64,0,0,1,310.43,116.29Zm0-15a7.32,7.32,0,0,0,3.83-1A7.17,7.17,0,0,0,317,97.2a11.46,11.46,0,0,0,1-5.07,11.14,11.14,0,0,0-1-5.06,7.29,7.29,0,0,0-2.72-3,7.7,7.7,0,0,0-7.66,0,7.29,7.29,0,0,0-2.72,3,11.14,11.14,0,0,0-1,5.06,11.46,11.46,0,0,0,1,5.07,7.17,7.17,0,0,0,2.72,3.1A7.32,7.32,0,0,0,310.43,101.32Z"/></g><g id="X"><g class="cls-12"><path class="cls-13" d="M23.05,138.75l12.43-13.24,1.43-.33L45.64,115h6.07L39.85,127.84l-1.57.57-9,10.34Zm18.08,0-4.79-10.68-1.19-.57L28.94,115h5.64l4.51,10.35,1,.19,6.64,13.19Z"/></g><g class="cls-12"><path class="cls-13" d="M348.84,170.32l14.66-16.57-6.32-15.05h5.65l4.45,11.36L377,138.7h5.89L369.2,154.27l6.85,16h-5.51l-4.93-12.26-10.54,12.26Z"/></g></g><g id="Circulos"><rect class="cls-1" x="6.17" y="115.34" width="23.08" height="23.08" rx="11.54"/><rect class="cls-1" x="6.17" y="6.45" width="23.08" height="23.08" rx="11.54"/><rect class="cls-1" x="6.17" y="29.53" width="23.08" height="23.08" rx="11.54"/><rect class="cls-1" x="29.25" y="6.45" width="23.08" height="23.08" rx="11.54"/><rect class="cls-1" x="29.25" y="29.53" width="23.08" height="23.08" rx="11.54"/><rect class="cls-1" x="6.17" y="170.33" width="23.08" height="23.08" rx="11.54"/><rect class="cls-1" x="6.17" y="193.42" width="23.08" height="23.08" rx="11.54"/><rect class="cls-1" x="29.25" y="170.33" width="23.08" height="23.08" rx="11.54"/><rect class="cls-1" x="29.25" y="193.42" width="23.08" height="23.08" rx="11.54"/><rect class="cls-1" x="336.68" y="170.12" width="23.08" height="23.08" rx="11.54"/><rect class="cls-1" x="336.68" y="193.21" width="23.08" height="23.08" rx="11.54"/><rect class="cls-1" x="359.77" y="170.12" width="23.08" height="23.08" rx="11.54"/><rect class="cls-1" x="359.77" y="193.21" width="23.08" height="23.08" rx="11.54"/><rect class="cls-1" x="337.3" y="6.1" width="23.08" height="23.08" rx="11.54"/><rect class="cls-1" x="337.3" y="29.19" width="23.08" height="23.08" rx="11.54"/><rect class="cls-1" x="360.38" y="6.1" width="23.08" height="23.08" rx="11.54"/><rect class="cls-1" x="360.38" y="29.19" width="23.08" height="23.08" rx="11.54"/></g><g id="Rectángulo"><rect class="cls-14" x="6.36" y="6.13" width="377.11" height="210.38"/></g></svg>