<svg xmlns="http://www.w3.org/2000/svg" viewBox="0 0 105.21 46.99"><defs><style>.cls-1{fill:none;}.cls-2{fill:#0f0f14;}.cls-3{fill:#d617d6;}</style></defs><g id="Logos_Finales" data-name="Logos Finales"><rect class="cls-1" y="0.09" width="105.21" height="46.99"/><path class="cls-2" d="M15.08,24.51V18.68l1,2.68-6-10.15h4.73l4.09,6.94H16.12l4.13-6.94h4.33l-6,10.15,1-2.68v5.83Z"/><path class="cls-2" d="M29.62,24.7A7.35,7.35,0,0,1,26.3,24a5.39,5.39,0,0,1-2.2-1.93,5.13,5.13,0,0,1-.77-2.77,5,5,0,0,1,.77-2.79,5.29,5.29,0,0,1,2.1-1.9,7,7,0,0,1,5.86-.07,5,5,0,0,1,2.09,1.8,5.33,5.33,0,0,1,.78,3c0,.16,0,.32,0,.51s0,.35,0,.5h-8V18.24H32.6L31,18.79a2.18,2.18,0,0,0-.22-1,1.61,1.61,0,0,0-.59-.67,1.7,1.7,0,0,0-.92-.24,1.73,1.73,0,0,0-.92.24,1.56,1.56,0,0,0-.6.67,2.31,2.31,0,0,0-.21,1v.65a2.29,2.29,0,0,0,.27,1.14,1.74,1.74,0,0,0,.76.71,2.73,2.73,0,0,0,1.2.24,3.33,3.33,0,0,0,1.19-.19,4.78,4.78,0,0,0,1-.57L34.15,23a4.87,4.87,0,0,1-1.87,1.24A7.31,7.31,0,0,1,29.62,24.7Z"/><path class="cls-2" d="M36.28,24.51V10.41h4.3v14.1Z"/><path class="cls-2" d="M56.23,13.93a4.59,4.59,0,0,1,2.12.48,3.48,3.48,0,0,1,1.48,1.51,5.72,5.72,0,0,1,.54,2.66v5.93H56.08V19.32A2.28,2.28,0,0,0,55.76,18a1,1,0,0,0-.84-.41,1.22,1.22,0,0,0-.68.19,1.2,1.2,0,0,0-.49.6,2.79,2.79,0,0,0-.18,1.11v5.07H49.28V19.32A2.37,2.37,0,0,0,49,18a1,1,0,0,0-.86-.41,1.22,1.22,0,0,0-.68.19,1.2,1.2,0,0,0-.49.6,2.79,2.79,0,0,0-.18,1.11v5.07H42.48V14.12h4.08v3l-.83-.84a4,4,0,0,1,1.57-1.75,4.49,4.49,0,0,1,4.63.13,3.64,3.64,0,0,1,1.42,2.25L52,16.68a4.62,4.62,0,0,1,1.67-2A4.4,4.4,0,0,1,56.23,13.93Z"/><path class="cls-2" d="M67.92,24.7A6.83,6.83,0,0,1,64.79,24a5.43,5.43,0,0,1-2.14-1.91,5.05,5.05,0,0,1-.77-2.8,5,5,0,0,1,.77-2.79,5.41,5.41,0,0,1,2.14-1.9,7.54,7.54,0,0,1,6.26,0,5.27,5.27,0,0,1,2.14,1.9,5.46,5.46,0,0,1,0,5.59A5.3,5.3,0,0,1,71.05,24,6.83,6.83,0,0,1,67.92,24.7Zm0-3.34a1.64,1.64,0,0,0,.85-.23,1.59,1.59,0,0,0,.61-.69,2.63,2.63,0,0,0,.23-1.14,2.52,2.52,0,0,0-.23-1.13,1.66,1.66,0,0,0-.61-.67,1.7,1.7,0,0,0-1.71,0,1.73,1.73,0,0,0-.61.67,2.53,2.53,0,0,0-.22,1.13,2.64,2.64,0,0,0,.22,1.14,1.57,1.57,0,0,0,1.47.92Z"/><path class="cls-3" d="M27.19,29.66v7.06H25.26V33.89l0-2.27h0l-1.55,5.1H22l-1.53-5.1h0l0,2.27v2.83H18.53V29.66h3.08l1,3.35.35,1.4h0l.35-1.4,1-3.35Z"/><path class="cls-3" d="M35.18,36.72H32.94l-.4-1.47H30.39L30,36.72H27.8l2.38-7.06H32.8Zm-4.43-2.88h1.44l-.72-2.63Z"/><path class="cls-3" d="M42,34.62a2.93,2.93,0,0,1-.65,1.28,2.72,2.72,0,0,1-1.1.71,4.61,4.61,0,0,1-1.43.22,3.88,3.88,0,0,1-1.89-.44,2.92,2.92,0,0,1-1.22-1.24,4.68,4.68,0,0,1,0-3.92A2.94,2.94,0,0,1,36.92,30a3.87,3.87,0,0,1,1.88-.43,4.64,4.64,0,0,1,1.42.21,2.82,2.82,0,0,1,1.09.67,2.28,2.28,0,0,1,.61,1.16L40,32.35a1.49,1.49,0,0,0-.41-.91,1.22,1.22,0,0,0-.76-.22,1.19,1.19,0,0,0-.73.22,1.33,1.33,0,0,0-.46.65,3.95,3.95,0,0,0,0,2.19,1.28,1.28,0,0,0,.45.66,1.38,1.38,0,0,0,.8.22,1.09,1.09,0,0,0,.73-.26,1.3,1.3,0,0,0,.4-.8Z"/><path class="cls-3" d="M46.42,29.66a3.14,3.14,0,0,1,2,.6,2,2,0,0,1,.72,1.61,2.06,2.06,0,0,1-.71,1.7,3.11,3.11,0,0,1-2,.58l-.21.12H44.94v2.45H42.8V29.66Zm-.36,3.12a1.17,1.17,0,0,0,.69-.17.87.87,0,0,0,0-1.18,1.09,1.09,0,0,0-.69-.18H44.94v1.53Zm1.3.46,2.22,3.48H47.2l-1.72-3.09Z"/><path class="cls-3" d="M53.47,29.55a3.88,3.88,0,0,1,1.89.43,3,3,0,0,1,1.21,1.25,4.78,4.78,0,0,1,0,3.92,3,3,0,0,1-1.21,1.24,4.28,4.28,0,0,1-3.78,0,2.92,2.92,0,0,1-1.22-1.24,4.68,4.68,0,0,1,0-3.92A2.94,2.94,0,0,1,51.58,30,3.88,3.88,0,0,1,53.47,29.55Zm0,1.67a1.12,1.12,0,0,0-.72.22,1.35,1.35,0,0,0-.43.65,3.35,3.35,0,0,0-.15,1.1,3.44,3.44,0,0,0,.15,1.1,1.4,1.4,0,0,0,.43.65,1.19,1.19,0,0,0,.72.22,1.23,1.23,0,0,0,.72-.22,1.32,1.32,0,0,0,.42-.65,3.46,3.46,0,0,0,.14-1.1,3.38,3.38,0,0,0-.14-1.1,1.27,1.27,0,0,0-.42-.65A1.16,1.16,0,0,0,53.47,31.22Z"/><path class="cls-3" d="M67.56,36.72H64.93l-1.12-2-1,2H60.28l2.38-3.53L60.4,29.66H63l1,1.94,1-1.94h2.38l-2.25,3.46Z"/><path class="cls-3" d="M68.2,36.72V29.66h5.69v1.63h-3.5v1.15h2.8V34h-2.8v1.12H74v1.64Z"/><rect class="cls-3" x="79.17" y="14.02" width="15.72" height="10.48"/></g></svg>