<svg xmlns="http://www.w3.org/2000/svg" viewBox="0 0 105.21 46.99"><defs><style>.cls-1{fill:none;}.cls-2{fill:#fb3429;}.cls-3{fill:#0f0f14;}</style></defs><g id="Logos_Finales" data-name="Logos Finales"><rect class="cls-1" x="-0.04" width="105.21" height="46.99"/><path class="cls-2" d="M13.71,38.88l1.75-7.59h1l-.27,1.46-.13.08a2.26,2.26,0,0,1,.43-.88,2,2,0,0,1,.72-.56,2.41,2.41,0,0,1,.93-.19,1.83,1.83,0,0,1,1,.27,1.79,1.79,0,0,1,.68.78,2.65,2.65,0,0,1,.25,1.22,3.8,3.8,0,0,1-.2,1.27,3.18,3.18,0,0,1-.57,1,2.63,2.63,0,0,1-.85.71,2.24,2.24,0,0,1-1.06.25,2.06,2.06,0,0,1-.91-.19,1.51,1.51,0,0,1-.63-.57,1.83,1.83,0,0,1-.27-.9l.18-.18-.91,4Zm3.53-3.06a1.27,1.27,0,0,0,.66-.17,1.86,1.86,0,0,0,.55-.5,2.26,2.26,0,0,0,.36-.73,2.86,2.86,0,0,0,.13-.89,1.79,1.79,0,0,0-.15-.77,1.14,1.14,0,0,0-.44-.48,1.3,1.3,0,0,0-.66-.17,1.38,1.38,0,0,0-.7.18,2,2,0,0,0-.54.5,2.41,2.41,0,0,0-.35.74,3.39,3.39,0,0,0-.12.91,1.45,1.45,0,0,0,.32,1A1.14,1.14,0,0,0,17.24,35.82Z"/><path class="cls-2" d="M23.12,36.72a1.91,1.91,0,0,1-1-.28,1.93,1.93,0,0,1-.72-.8,2.67,2.67,0,0,1-.26-1.21,3.93,3.93,0,0,1,.2-1.24,3.36,3.36,0,0,1,.56-1,2.53,2.53,0,0,1,.85-.71,2.37,2.37,0,0,1,1.09-.26,2.07,2.07,0,0,1,.8.15,1.64,1.64,0,0,1,.6.44,1.61,1.61,0,0,1,.33.71l.28-1.19H27l-1.24,5.35h-1l.18-1a2.13,2.13,0,0,1-.73.79A1.87,1.87,0,0,1,23.12,36.72Zm.4-.91a1.28,1.28,0,0,0,.65-.18,1.79,1.79,0,0,0,.53-.5,2.57,2.57,0,0,0,.37-.74,3,3,0,0,0,.13-.89,1.72,1.72,0,0,0-.15-.74,1.29,1.29,0,0,0-.43-.49A1.23,1.23,0,0,0,24,32.1a1.41,1.41,0,0,0-.71.18,1.86,1.86,0,0,0-.55.5,2.62,2.62,0,0,0-.36.73,3,3,0,0,0-.12.86,1.67,1.67,0,0,0,.15.78,1.09,1.09,0,0,0,.43.49A1.33,1.33,0,0,0,23.52,35.81Z"/><path class="cls-2" d="M29.9,36.76a3.33,3.33,0,0,1-1.12-.19,2.5,2.5,0,0,1-.88-.52,2.56,2.56,0,0,1-.59-.8l.86-.53a1.76,1.76,0,0,0,.66.84,1.8,1.8,0,0,0,1.05.3,1.29,1.29,0,0,0,.76-.2.6.6,0,0,0,.26-.51.5.5,0,0,0-.15-.38,1,1,0,0,0-.46-.23l-.85-.26a2.11,2.11,0,0,1-1.05-.57,1.3,1.3,0,0,1-.33-.88,1.44,1.44,0,0,1,.25-.85,1.77,1.77,0,0,1,.74-.59,2.83,2.83,0,0,1,1.14-.21,2.93,2.93,0,0,1,1.38.32,2,2,0,0,1,.87.93l-.82.56a1.48,1.48,0,0,0-.83-.8,1.61,1.61,0,0,0-.63-.12,1.38,1.38,0,0,0-.78.18.53.53,0,0,0-.25.47.45.45,0,0,0,.2.41,1.76,1.76,0,0,0,.48.22l1,.31a1.87,1.87,0,0,1,.87.51A1.23,1.23,0,0,1,32,35a1.62,1.62,0,0,1-.27.94,1.68,1.68,0,0,1-.75.61A2.75,2.75,0,0,1,29.9,36.76Z"/><path class="cls-2" d="M35.41,36.76a3.33,3.33,0,0,1-1.12-.19,2.5,2.5,0,0,1-.88-.52,2.56,2.56,0,0,1-.59-.8l.87-.53a1.68,1.68,0,0,0,.65.84,1.8,1.8,0,0,0,1,.3,1.29,1.29,0,0,0,.76-.2.6.6,0,0,0,.26-.51.5.5,0,0,0-.15-.38,1,1,0,0,0-.46-.23L35,34.28a2.11,2.11,0,0,1-1.05-.57,1.3,1.3,0,0,1-.33-.88,1.44,1.44,0,0,1,.25-.85,1.83,1.83,0,0,1,.74-.59,2.83,2.83,0,0,1,1.14-.21,2.93,2.93,0,0,1,1.38.32,2,2,0,0,1,.87.93l-.82.56a1.48,1.48,0,0,0-.83-.8,1.59,1.59,0,0,0-.62-.12,1.42,1.42,0,0,0-.79.18.53.53,0,0,0-.25.47.47.47,0,0,0,.2.41,1.76,1.76,0,0,0,.48.22l1,.31a1.87,1.87,0,0,1,.87.51,1.23,1.23,0,0,1,.31.82,1.62,1.62,0,0,1-.27.94,1.68,1.68,0,0,1-.75.61A2.75,2.75,0,0,1,35.41,36.76Z"/><path class="cls-2" d="M42.12,32.19l.21-.9H46.1l-.22.9Zm0,4.45,1.43-6.21a2.47,2.47,0,0,1,.41-.94,1.64,1.64,0,0,1,.68-.52,2.49,2.49,0,0,1,.93-.17,2.77,2.77,0,0,1,.61.07,1.15,1.15,0,0,1,.43.19l-.32.84a.68.68,0,0,0-.27-.12,1.13,1.13,0,0,0-.38-.05,1.06,1.06,0,0,0-.68.19,1.31,1.31,0,0,0-.34.7l-.17.76,0,.29-1.15,5Z"/><path class="cls-2" d="M48.23,36.72a1.9,1.9,0,0,1-1.77-1.08,2.67,2.67,0,0,1-.26-1.21,3.93,3.93,0,0,1,.2-1.24,3.36,3.36,0,0,1,.56-1,2.56,2.56,0,0,1,.86-.71,2.33,2.33,0,0,1,1.08-.26,2.07,2.07,0,0,1,.8.15,1.56,1.56,0,0,1,.6.44,1.42,1.42,0,0,1,.33.71l.28-1.19h1.15l-1.24,5.35h-1l.18-1a2.13,2.13,0,0,1-.73.79A1.83,1.83,0,0,1,48.23,36.72Zm.39-.91a1.25,1.25,0,0,0,.65-.18,2,2,0,0,0,.54-.5,2.83,2.83,0,0,0,.36-.74,3,3,0,0,0,.13-.89,1.72,1.72,0,0,0-.15-.74,1.29,1.29,0,0,0-.43-.49,1.23,1.23,0,0,0-.65-.17,1.41,1.41,0,0,0-.71.18,1.71,1.71,0,0,0-.54.5,2.17,2.17,0,0,0-.36.73,2.71,2.71,0,0,0-.13.86,1.81,1.81,0,0,0,.15.78,1.05,1.05,0,0,0,.44.49A1.28,1.28,0,0,0,48.62,35.81Z"/><path class="cls-2" d="M52.53,36.64l1.24-5.35h1l-.22,1.35-.11-.08a1.83,1.83,0,0,1,.78-1,2.36,2.36,0,0,1,1.25-.35,1.8,1.8,0,0,1,1,.26,1.42,1.42,0,0,1,.57.76,2.17,2.17,0,0,1,0,1.19l-.76,3.25H56.1l.75-3.19a1.18,1.18,0,0,0-.09-1,.86.86,0,0,0-.77-.36,1.61,1.61,0,0,0-.76.19,1.59,1.59,0,0,0-.55.57,3.47,3.47,0,0,0-.35.92l-.66,2.84Zm7.16,0,.73-3.19a1.23,1.23,0,0,0-.09-1,.84.84,0,0,0-.75-.36,1.6,1.6,0,0,0-.77.19,1.67,1.67,0,0,0-.55.57,3.16,3.16,0,0,0-.35.92l-.11-1a2.32,2.32,0,0,1,.9-1.18,2.34,2.34,0,0,1,1.34-.4,1.78,1.78,0,0,1,1,.26,1.44,1.44,0,0,1,.58.76,2.17,2.17,0,0,1,0,1.19l-.76,3.25Z"/><path class="cls-2" d="M64.91,31.29l-1.24,5.35H62.52l1.24-5.35Zm-.27-.9a.77.77,0,0,1-.51-.17.53.53,0,0,1-.17-.47.74.74,0,0,1,.23-.58.8.8,0,0,1,.57-.2.77.77,0,0,1,.52.16.55.55,0,0,1,.17.46.83.83,0,0,1-.24.6A.84.84,0,0,1,64.64,30.39Z"/><path class="cls-2" d="M67,36.72a1.24,1.24,0,0,1-1.12-.47A1.53,1.53,0,0,1,65.71,35l1.42-6.13h1.15L66.86,35a.64.64,0,0,0,0,.61.72.72,0,0,0,.56.18h.26a.64.64,0,0,0,.2,0l-.25.84-.33.09Z"/><path class="cls-2" d="M68.46,38.94a2.39,2.39,0,0,1-.75-.1,1.28,1.28,0,0,1-.52-.27l.39-.88a1.23,1.23,0,0,0,.85.33,1,1,0,0,0,.57-.17,2,2,0,0,0,.49-.54l.41-.67L69,31.29h1.15l.38,3,.17,1.33.71-1.26,1.74-3.07h1.27L70.51,37.5a3.6,3.6,0,0,1-.63.83,2.15,2.15,0,0,1-.68.46A1.88,1.88,0,0,1,68.46,38.94Z"/><path class="cls-2" d="M92.41,25.92h0a5.49,5.49,0,0,0-1.58.23h0s-4.62.61-4.14-4.18h0l0-.11a8.24,8.24,0,0,1,1.39-2.48A5.41,5.41,0,0,1,90.31,18a5.5,5.5,0,0,0,4.45-5.4,2.36,2.36,0,0,0-2.36-2.36h0a5.5,5.5,0,0,0-5.31,4.07h0a5.58,5.58,0,0,1-1.39,2.48,5.3,5.3,0,0,1-2.26,1.42A5.5,5.5,0,0,0,79,23.58a2.36,2.36,0,0,0,2.36,2.36h0A5.76,5.76,0,0,0,83,25.72h0s4.65-.66,4.17,4.13h0a5.42,5.42,0,0,0-.23,1.57,2.36,2.36,0,0,0,2.36,2.36,5.51,5.51,0,0,0,5.51-5.5A2.36,2.36,0,0,0,92.41,25.92Z"/><path class="cls-3" d="M15,24.42V18.58l1,2.68L10,11.12h4.73l4.08,6.93H16.09l4.12-6.93h4.33l-6,10.14,1-2.68v5.84Z"/><path class="cls-3" d="M29.58,24.61a7.38,7.38,0,0,1-3.32-.71A5.36,5.36,0,0,1,24.07,22a5.36,5.36,0,0,1,0-5.55,5.18,5.18,0,0,1,2.11-1.9,6.45,6.45,0,0,1,3-.69,6.73,6.73,0,0,1,2.84.61,5,5,0,0,1,2.09,1.81,5.28,5.28,0,0,1,.79,3c0,.15,0,.32,0,.5s0,.36,0,.51h-8V18.15h5.72l-1.62.55a2.35,2.35,0,0,0-.21-1,1.74,1.74,0,0,0-.6-.66,1.69,1.69,0,0,0-.91-.24,1.74,1.74,0,0,0-.93.24,1.57,1.57,0,0,0-.59.66,2.35,2.35,0,0,0-.21,1v.64a2.34,2.34,0,0,0,.26,1.14,1.71,1.71,0,0,0,.76.72,2.89,2.89,0,0,0,1.2.23,3.12,3.12,0,0,0,1.19-.19,4.24,4.24,0,0,0,1-.57l2.24,2.26a5,5,0,0,1-1.87,1.25A7.55,7.55,0,0,1,29.58,24.61Z"/><path class="cls-3" d="M36.25,24.42V10.32h4.29v14.1Z"/><path class="cls-3" d="M56.2,13.83a4.44,4.44,0,0,1,2.11.49,3.4,3.4,0,0,1,1.49,1.51,5.69,5.69,0,0,1,.54,2.66v5.93H56V19.23a2.22,2.22,0,0,0-.32-1.38,1,1,0,0,0-.84-.41,1.31,1.31,0,0,0-.68.19,1.34,1.34,0,0,0-.48.6,2.79,2.79,0,0,0-.18,1.11v5.08h-4.3V19.23a2.39,2.39,0,0,0-.3-1.38,1,1,0,0,0-.86-.41,1.31,1.31,0,0,0-.68.19,1.35,1.35,0,0,0-.49.6,2.79,2.79,0,0,0-.18,1.11v5.08H42.44V14h4.08v3l-.83-.84a4.12,4.12,0,0,1,1.58-1.76,4.3,4.3,0,0,1,2.2-.58,4.18,4.18,0,0,1,2.42.72,3.51,3.51,0,0,1,1.42,2.25L52,16.59a4.63,4.63,0,0,1,1.66-2A4.51,4.51,0,0,1,56.2,13.83Z"/><path class="cls-3" d="M67.88,24.61a6.71,6.71,0,0,1-3.13-.7A5.4,5.4,0,0,1,62.62,22a5.38,5.38,0,0,1,0-5.58,5.3,5.3,0,0,1,2.13-1.9,6.83,6.83,0,0,1,3.13-.69,6.91,6.91,0,0,1,3.14.69,5.18,5.18,0,0,1,2.13,1.9,5,5,0,0,1,.77,2.79A5,5,0,0,1,73.15,22,5.27,5.27,0,0,1,71,23.91,6.78,6.78,0,0,1,67.88,24.61Zm0-3.35a1.57,1.57,0,0,0,1.46-.92,2.59,2.59,0,0,0,.23-1.13,2.49,2.49,0,0,0-.23-1.13,1.59,1.59,0,0,0-1.46-.9,1.57,1.57,0,0,0-1.46.9,2.49,2.49,0,0,0-.23,1.13,2.59,2.59,0,0,0,.23,1.13,1.54,1.54,0,0,0,1.46.92Z"/></g></svg>