<svg xmlns="http://www.w3.org/2000/svg" viewBox="0 0 105.21 46.99"><defs><style>.cls-1{fill:none;}.cls-2{fill:#0f0f14;}.cls-3{fill:#fb3429;}</style></defs><g id="Logos_Finales" data-name="Logos Finales"><rect class="cls-1" width="105.21" height="46.99"/><path class="cls-2" d="M15.08,24.42V18.58l1,2.68-6-10.14h4.73l4.09,6.93H16.12l4.13-6.93h4.33l-6,10.14,1-2.68v5.84Z"/><path class="cls-2" d="M29.62,24.61a7.35,7.35,0,0,1-3.32-.71A5.39,5.39,0,0,1,24.1,22a5,5,0,0,1-.77-2.76,5,5,0,0,1,.77-2.79,5.22,5.22,0,0,1,2.1-1.9,6.52,6.52,0,0,1,3-.69,6.73,6.73,0,0,1,2.84.61,5.08,5.08,0,0,1,2.09,1.81,5.28,5.28,0,0,1,.78,3c0,.15,0,.32,0,.5s0,.36,0,.51h-8V18.15H32.6L31,18.7a2.22,2.22,0,0,0-.22-1,1.64,1.64,0,0,0-.59-.66,1.7,1.7,0,0,0-.92-.24,1.73,1.73,0,0,0-.92.24,1.6,1.6,0,0,0-.6.66,2.35,2.35,0,0,0-.21,1v.64a2.24,2.24,0,0,0,.27,1.14,1.71,1.71,0,0,0,.76.72,2.89,2.89,0,0,0,1.2.23,3.16,3.16,0,0,0,1.19-.19,4,4,0,0,0,1-.57l2.25,2.26a4.93,4.93,0,0,1-1.88,1.25A7.53,7.53,0,0,1,29.62,24.61Z"/><path class="cls-2" d="M36.28,24.42V10.32h4.3v14.1Z"/><path class="cls-2" d="M56.23,13.83a4.48,4.48,0,0,1,2.12.49,3.38,3.38,0,0,1,1.48,1.51,5.57,5.57,0,0,1,.54,2.66v5.93H56.08V19.23a2.29,2.29,0,0,0-.32-1.38,1,1,0,0,0-.84-.41,1.31,1.31,0,0,0-.68.19,1.35,1.35,0,0,0-.49.6,2.79,2.79,0,0,0-.18,1.11v5.08H49.28V19.23a2.39,2.39,0,0,0-.3-1.38,1,1,0,0,0-.86-.41,1.31,1.31,0,0,0-.68.19,1.29,1.29,0,0,0-.49.6,2.79,2.79,0,0,0-.18,1.11v5.08H42.48V14h4.08v3l-.83-.84a4.1,4.1,0,0,1,1.57-1.76,4.37,4.37,0,0,1,2.21-.58,4.18,4.18,0,0,1,2.42.72,3.59,3.59,0,0,1,1.42,2.25L52,16.59a4.65,4.65,0,0,1,1.67-2A4.48,4.48,0,0,1,56.23,13.83Z"/><path class="cls-2" d="M67.92,24.61a6.71,6.71,0,0,1-3.13-.7A5.43,5.43,0,0,1,62.65,22a5,5,0,0,1-.77-2.79,5,5,0,0,1,.77-2.79,5.33,5.33,0,0,1,2.14-1.9,7.44,7.44,0,0,1,6.26,0,5.2,5.2,0,0,1,2.14,1.9,5.44,5.44,0,0,1,0,5.58,5.3,5.3,0,0,1-2.14,1.91A6.71,6.71,0,0,1,67.92,24.61Zm0-3.35a1.55,1.55,0,0,0,.85-.23,1.53,1.53,0,0,0,.61-.69,2.59,2.59,0,0,0,.23-1.13,2.49,2.49,0,0,0-.23-1.13,1.53,1.53,0,0,0-.61-.67,1.55,1.55,0,0,0-.85-.23,1.58,1.58,0,0,0-.86.23,1.66,1.66,0,0,0-.61.67,2.5,2.5,0,0,0-.22,1.13,2.59,2.59,0,0,0,.22,1.13,1.66,1.66,0,0,0,.61.69A1.58,1.58,0,0,0,67.92,21.26Z"/><path class="cls-3" d="M27.2,38.78,29,31.18h1l-.27,1.47-.12.07a2.18,2.18,0,0,1,.42-.88,2,2,0,0,1,.72-.55,2.24,2.24,0,0,1,.93-.19,1.82,1.82,0,0,1,1,.26,1.79,1.79,0,0,1,.68.78,2.71,2.71,0,0,1,.26,1.22,3.76,3.76,0,0,1-.21,1.27,3.15,3.15,0,0,1-.56,1,2.77,2.77,0,0,1-.86.71,2.22,2.22,0,0,1-1.06.26,2.13,2.13,0,0,1-.9-.19,1.49,1.49,0,0,1-.64-.58,1.83,1.83,0,0,1-.27-.9l.18-.17-.91,4Zm3.53-3.06a1.26,1.26,0,0,0,.66-.18,1.73,1.73,0,0,0,.55-.5,2.17,2.17,0,0,0,.36-.73,2.8,2.8,0,0,0,.13-.88,1.81,1.81,0,0,0-.15-.78,1.14,1.14,0,0,0-.44-.48,1.3,1.3,0,0,0-.66-.17,1.38,1.38,0,0,0-.7.19,1.91,1.91,0,0,0-.54.49,2.36,2.36,0,0,0-.35.75,3.34,3.34,0,0,0-.12.91,1.54,1.54,0,0,0,.32,1A1.17,1.17,0,0,0,30.73,35.72Z"/><path class="cls-3" d="M36.62,36.62a1.92,1.92,0,0,1-1-.29,1.9,1.9,0,0,1-.72-.79,2.73,2.73,0,0,1-.26-1.21,3.88,3.88,0,0,1,.2-1.24A3.41,3.41,0,0,1,35.35,32a2.63,2.63,0,0,1,.85-.71,2.4,2.4,0,0,1,1.09-.26,2.07,2.07,0,0,1,.8.15,1.56,1.56,0,0,1,.6.44,1.61,1.61,0,0,1,.33.71l.28-1.19h1.15L39.2,36.53h-1l.18-1a2.1,2.1,0,0,1-.73.78A1.84,1.84,0,0,1,36.62,36.62Zm.39-.91a1.17,1.17,0,0,0,.65-.19,1.67,1.67,0,0,0,.53-.5,2.45,2.45,0,0,0,.37-.74,2.89,2.89,0,0,0,.13-.88,1.73,1.73,0,0,0-.15-.75,1.19,1.19,0,0,0-.43-.48,1.15,1.15,0,0,0-.65-.18,1.33,1.33,0,0,0-.71.19,1.82,1.82,0,0,0-.55.49,2.76,2.76,0,0,0-.36.73,3.08,3.08,0,0,0-.12.86,1.81,1.81,0,0,0,.15.78,1.11,1.11,0,0,0,.43.5A1.43,1.43,0,0,0,37,35.71Z"/><path class="cls-3" d="M43.39,36.65a3.33,3.33,0,0,1-1.12-.18,2.53,2.53,0,0,1-.88-.53,2.45,2.45,0,0,1-.59-.8l.86-.52a1.73,1.73,0,0,0,1.71,1.13,1.3,1.3,0,0,0,.76-.19.62.62,0,0,0,.26-.52.52.52,0,0,0-.15-.38,1.16,1.16,0,0,0-.46-.23l-.85-.25a2.11,2.11,0,0,1-1-.58,1.28,1.28,0,0,1-.33-.88,1.47,1.47,0,0,1,.25-.85,1.73,1.73,0,0,1,.74-.58,2.67,2.67,0,0,1,1.14-.22,2.93,2.93,0,0,1,1.38.32,1.94,1.94,0,0,1,.87.94l-.82.55a1.58,1.58,0,0,0-.33-.48,1.53,1.53,0,0,0-.5-.32,1.59,1.59,0,0,0-.62-.12,1.4,1.4,0,0,0-.79.18.54.54,0,0,0-.25.47.47.47,0,0,0,.2.41,2.14,2.14,0,0,0,.48.23l1,.31a1.78,1.78,0,0,1,.87.5,1.25,1.25,0,0,1,.31.82,1.6,1.6,0,0,1-.27.94,1.68,1.68,0,0,1-.75.61A2.59,2.59,0,0,1,43.39,36.65Z"/><path class="cls-3" d="M48.9,36.65a3.33,3.33,0,0,1-1.12-.18,2.53,2.53,0,0,1-.88-.53,2.45,2.45,0,0,1-.59-.8l.87-.52a1.84,1.84,0,0,0,.65.84,1.88,1.88,0,0,0,1.05.29,1.28,1.28,0,0,0,.76-.19A.6.6,0,0,0,49.9,35a.52.52,0,0,0-.15-.38,1.16,1.16,0,0,0-.46-.23l-.85-.25a2,2,0,0,1-1-.58,1.25,1.25,0,0,1-.34-.88,1.47,1.47,0,0,1,.25-.85,1.73,1.73,0,0,1,.74-.58,2.67,2.67,0,0,1,1.14-.22,2.93,2.93,0,0,1,1.38.32,2,2,0,0,1,.88.94l-.83.55a1.58,1.58,0,0,0-.33-.48,1.53,1.53,0,0,0-.5-.32,1.59,1.59,0,0,0-.62-.12,1.42,1.42,0,0,0-.79.18.54.54,0,0,0-.25.47.47.47,0,0,0,.2.41,2.14,2.14,0,0,0,.48.23l1,.31a1.78,1.78,0,0,1,.87.5,1.25,1.25,0,0,1,.31.82,1.6,1.6,0,0,1-.27.94,1.68,1.68,0,0,1-.75.61A2.59,2.59,0,0,1,48.9,36.65Z"/><path class="cls-3" d="M57.67,36.62a2,2,0,0,1-1.05-.29,2,2,0,0,1-.71-.79,2.73,2.73,0,0,1-.26-1.21,3.88,3.88,0,0,1,.2-1.24A3.62,3.62,0,0,1,56.4,32a2.66,2.66,0,0,1,.86-.71,2.34,2.34,0,0,1,1.09-.26,2,2,0,0,1,.79.15,1.68,1.68,0,0,1,.61.44,1.61,1.61,0,0,1,.33.71l.82-3.6h1.15l-1.79,7.76h-1l.18-1a2.13,2.13,0,0,1-.74.78A1.84,1.84,0,0,1,57.67,36.62Zm.39-.91a1.23,1.23,0,0,0,.66-.19,1.6,1.6,0,0,0,.54-.5,2.41,2.41,0,0,0,.35-.74,2.89,2.89,0,0,0,.14-.88,1.6,1.6,0,0,0-.16-.75,1.06,1.06,0,0,0-.43-.48,1.12,1.12,0,0,0-.64-.18,1.3,1.3,0,0,0-.71.19,1.71,1.71,0,0,0-.55.49,2.76,2.76,0,0,0-.36.73,3.09,3.09,0,0,0-.13.86,1.81,1.81,0,0,0,.15.78,1.13,1.13,0,0,0,.44.5A1.39,1.39,0,0,0,58.06,35.71Z"/><path class="cls-3" d="M64,36.62a2,2,0,0,1-1-.26,1.41,1.41,0,0,1-.62-.74,1.91,1.91,0,0,1,0-1.17l.76-3.27h1.15l-.74,3.18a1.12,1.12,0,0,0,.12,1,1,1,0,0,0,.82.33,1.41,1.41,0,0,0,1.3-.74,3,3,0,0,0,.35-.91l.66-2.84h1.14L66.7,36.53h-1l.22-1.35.11.09a1.79,1.79,0,0,1-.76,1A2.28,2.28,0,0,1,64,36.62Z"/><path class="cls-3" d="M71.2,36.63a2.7,2.7,0,0,1-1.35-.32,2.32,2.32,0,0,1-.85-.88,2.47,2.47,0,0,1-.3-1.21,3.51,3.51,0,0,1,.36-1.62,2.76,2.76,0,0,1,1-1.11,2.72,2.72,0,0,1,1.5-.41,2.54,2.54,0,0,1,1.34.33,2.11,2.11,0,0,1,.84.86A2.5,2.5,0,0,1,74,33.49a3.48,3.48,0,0,1-.35,1.6,2.63,2.63,0,0,1-2.48,1.54Zm0-.9a1.41,1.41,0,0,0,.66-.17,1.85,1.85,0,0,0,.53-.48,2.35,2.35,0,0,0,.35-.73,2.8,2.8,0,0,0,.13-.88,1.84,1.84,0,0,0-.15-.76,1.1,1.1,0,0,0-.45-.53,1.39,1.39,0,0,0-.76-.2,1.35,1.35,0,0,0-.66.17,1.76,1.76,0,0,0-.54.48,2.2,2.2,0,0,0-.35.72,2.82,2.82,0,0,0-.13.89A1.86,1.86,0,0,0,70,35a1.2,1.2,0,0,0,.45.54A1.42,1.42,0,0,0,71.22,35.73Z"/><path class="cls-3" d="M86.73,21.84h0a5.62,5.62,0,0,1,1.38-2.49A5.41,5.41,0,0,1,90.32,18a5.5,5.5,0,0,0,4.45-5.4h0a2.35,2.35,0,0,0-2.36-2.36h0a5.5,5.5,0,0,0-5.31,4.07h0a5.58,5.58,0,0,1-1.39,2.48,5.3,5.3,0,0,1-2.26,1.42,5.5,5.5,0,0,0-4.39,5.39h0a2.36,2.36,0,0,0,2.36,2.36h0A5.51,5.51,0,0,0,86.73,21.84Z"/></g></svg>