<svg xmlns="http://www.w3.org/2000/svg" viewBox="0 0 97.72 46.99"><defs><style>.cls-1{fill:none;}.cls-2{fill:#fb3429;}.cls-3{fill:#0f0f14;}</style></defs><g id="Logos_Finales" data-name="Logos Finales"><rect class="cls-1" width="97.72" height="46.99"/><path class="cls-2" d="M11.64,38.78l1.75-7.6h1l-.27,1.47-.13.07a2.48,2.48,0,0,1,.42-.88,2,2,0,0,1,.73-.55,2.24,2.24,0,0,1,.93-.19,1.75,1.75,0,0,1,1.66,1A2.71,2.71,0,0,1,18,33.36a4,4,0,0,1-.2,1.27,3.53,3.53,0,0,1-.57,1,2.59,2.59,0,0,1-.85.7,2.25,2.25,0,0,1-1.06.26,2.21,2.21,0,0,1-.91-.19,1.49,1.49,0,0,1-.64-.58,1.94,1.94,0,0,1-.26-.9l.18-.17-.91,4Zm3.53-3.06a1.31,1.31,0,0,0,.66-.18,1.73,1.73,0,0,0,.55-.5,2.62,2.62,0,0,0,.36-.73,3.12,3.12,0,0,0,.13-.88,1.67,1.67,0,0,0-.16-.78,1.08,1.08,0,0,0-.44-.48,1.25,1.25,0,0,0-.65-.16,1.38,1.38,0,0,0-.7.18,1.68,1.68,0,0,0-.54.49,2.47,2.47,0,0,0-.35.75,3,3,0,0,0-.13.91,1.47,1.47,0,0,0,.33,1A1.16,1.16,0,0,0,15.17,35.72Z"/><path class="cls-2" d="M21.05,36.62A2,2,0,0,1,20,36.33a2,2,0,0,1-.71-.79A2.6,2.6,0,0,1,19,34.33a3.62,3.62,0,0,1,.2-1.24A3.39,3.39,0,0,1,19.78,32a2.66,2.66,0,0,1,.86-.71,2.34,2.34,0,0,1,1.09-.26,2,2,0,0,1,.79.15,1.52,1.52,0,0,1,.94,1.15l.28-1.19h1.14l-1.24,5.35h-1l.19-1a2.13,2.13,0,0,1-.74.78A1.84,1.84,0,0,1,21.05,36.62Zm.4-.91a1.21,1.21,0,0,0,.64-.18,1.74,1.74,0,0,0,.54-.51,2.68,2.68,0,0,0,.36-.74,2.89,2.89,0,0,0,.14-.88,1.73,1.73,0,0,0-.16-.75,1.06,1.06,0,0,0-.43-.48A1.12,1.12,0,0,0,21.9,32a1.43,1.43,0,0,0-.72.19,1.68,1.68,0,0,0-.54.49,2.74,2.74,0,0,0-.49,1.59,1.81,1.81,0,0,0,.15.78,1.13,1.13,0,0,0,.44.5A1.41,1.41,0,0,0,21.45,35.71Z"/><path class="cls-2" d="M27.82,36.65a3.27,3.27,0,0,1-1.11-.18,2.57,2.57,0,0,1-.89-.53,2.6,2.6,0,0,1-.59-.8l.87-.52a1.73,1.73,0,0,0,1.7,1.13,1.28,1.28,0,0,0,.76-.19.61.61,0,0,0,.27-.52.52.52,0,0,0-.15-.38,1.16,1.16,0,0,0-.46-.23l-.86-.25a2.08,2.08,0,0,1-1-.58,1.29,1.29,0,0,1-.34-.88,1.47,1.47,0,0,1,.26-.85,1.75,1.75,0,0,1,.74-.58,3,3,0,0,1,2.51.11,1.94,1.94,0,0,1,.88.93l-.82.55a1.45,1.45,0,0,0-.34-.48,1.66,1.66,0,0,0-.49-.32,1.61,1.61,0,0,0-.63-.12,1.36,1.36,0,0,0-.78.18.56.56,0,0,0-.26.48.45.45,0,0,0,.21.4,1.79,1.79,0,0,0,.48.23l1,.31a1.7,1.7,0,0,1,.86.5,1.2,1.2,0,0,1,.31.82,1.73,1.73,0,0,1-.26.95,1.82,1.82,0,0,1-.75.61A2.8,2.8,0,0,1,27.82,36.65Z"/><path class="cls-2" d="M33.33,36.65a3.31,3.31,0,0,1-1.11-.18,2.57,2.57,0,0,1-.89-.53,2.42,2.42,0,0,1-.58-.8l.86-.52a1.73,1.73,0,0,0,1.7,1.13,1.28,1.28,0,0,0,.76-.19.61.61,0,0,0,.27-.52.52.52,0,0,0-.15-.38,1.16,1.16,0,0,0-.46-.23l-.86-.25a2.08,2.08,0,0,1-1-.58,1.29,1.29,0,0,1-.34-.88,1.47,1.47,0,0,1,.26-.85,1.75,1.75,0,0,1,.74-.58A3,3,0,0,1,35,31.4a1.89,1.89,0,0,1,.88.93l-.82.55a1.58,1.58,0,0,0-.33-.48,1.86,1.86,0,0,0-.5-.32A1.61,1.61,0,0,0,33.6,32a1.36,1.36,0,0,0-.78.18.56.56,0,0,0-.26.48.45.45,0,0,0,.21.4,1.79,1.79,0,0,0,.48.23l1,.31a1.7,1.7,0,0,1,.86.5,1.2,1.2,0,0,1,.31.82,1.73,1.73,0,0,1-.26.95,1.82,1.82,0,0,1-.75.61A2.76,2.76,0,0,1,33.33,36.65Z"/><path class="cls-2" d="M41.87,36.62a2,2,0,0,1-1-.26,1.46,1.46,0,0,1-.62-.74,2,2,0,0,1,0-1.16L41,31.18h1.15l-.74,3.18a1.12,1.12,0,0,0,.12,1,1,1,0,0,0,.82.34,1.56,1.56,0,0,0,.76-.19,1.64,1.64,0,0,0,.55-.56A2.93,2.93,0,0,0,44,34l.66-2.84h1.15l-1.24,5.35h-1l.23-1.35.1.09a1.74,1.74,0,0,1-.75,1A2.32,2.32,0,0,1,41.87,36.62Z"/><path class="cls-2" d="M46.25,36.53l1.24-5.35h1l-.23,1.35-.11-.08a1.85,1.85,0,0,1,.8-1,2.33,2.33,0,0,1,1.25-.35,1.85,1.85,0,0,1,1,.27,1.38,1.38,0,0,1,.58.75,2,2,0,0,1,0,1.18l-.76,3.26H49.92l.75-3.21a1.16,1.16,0,0,0-.12-1,.94.94,0,0,0-.81-.34,1.52,1.52,0,0,0-.77.19,1.58,1.58,0,0,0-.56.56,3.34,3.34,0,0,0-.36.93l-.66,2.83Z"/><path class="cls-2" d="M55.09,31.18l-1.24,5.35H52.7l1.24-5.35Zm-.27-.9a.7.7,0,0,1-.51-.17.52.52,0,0,1-.17-.47.75.75,0,0,1,.23-.58.84.84,0,0,1,.57-.2.73.73,0,0,1,.52.17.54.54,0,0,1,.17.45.83.83,0,0,1-.24.6A.84.84,0,0,1,54.82,30.28Z"/><path class="cls-2" d="M58.8,38.78l.84-3.61h.07a2,2,0,0,1-.72,1,1.78,1.78,0,0,1-1.13.39,2,2,0,0,1-1-.28,1.9,1.9,0,0,1-.72-.79,2.61,2.61,0,0,1-.26-1.22,3.78,3.78,0,0,1,.2-1.26,3.46,3.46,0,0,1,.56-1,2.51,2.51,0,0,1,.86-.7,2.32,2.32,0,0,1,1.07-.26,2,2,0,0,1,.9.2,1.65,1.65,0,0,1,.62.55,1.77,1.77,0,0,1,.25.85l-.14.15.38-1.64h1.15l-1.76,7.6Zm-.56-3.07a1.27,1.27,0,0,0,.67-.18,1.86,1.86,0,0,0,.54-.51,2.68,2.68,0,0,0,.36-.74,3.22,3.22,0,0,0,.12-.88,1.73,1.73,0,0,0-.15-.75,1.12,1.12,0,0,0-.43-.48A1.15,1.15,0,0,0,58.7,32a1.42,1.42,0,0,0-.71.19,1.68,1.68,0,0,0-.54.49,2.26,2.26,0,0,0-.36.73,2.76,2.76,0,0,0-.13.86,1.81,1.81,0,0,0,.15.78,1.2,1.2,0,0,0,.44.5A1.36,1.36,0,0,0,58.24,35.71Z"/><path class="cls-2" d="M64.23,36.62a2,2,0,0,1-1-.26,1.46,1.46,0,0,1-.62-.74,2,2,0,0,1,0-1.16l.76-3.28h1.14l-.74,3.18a1.08,1.08,0,0,0,.13,1,1,1,0,0,0,.81.34A1.45,1.45,0,0,0,66,34.93a2.93,2.93,0,0,0,.34-.91L67,31.18h1.14l-1.24,5.35h-1l.23-1.35.1.09a1.74,1.74,0,0,1-.75,1A2.31,2.31,0,0,1,64.23,36.62Z"/><path class="cls-2" d="M71.34,36.63A2.59,2.59,0,0,1,70,36.31a2.24,2.24,0,0,1-.84-.86,2.49,2.49,0,0,1-.3-1.23,3.57,3.57,0,0,1,.34-1.57,2.73,2.73,0,0,1,2.57-1.57,2.42,2.42,0,0,1,1.18.28,1.88,1.88,0,0,1,.75.78A2.51,2.51,0,0,1,74,33.3c0,.14,0,.29,0,.44a2.46,2.46,0,0,1-.11.45H69.54v-.88h3.69l-.41.3a1.23,1.23,0,0,0,.05-.25,1.85,1.85,0,0,0,0-.23,1.28,1.28,0,0,0-.13-.61,1,1,0,0,0-.39-.4,1.31,1.31,0,0,0-.61-.14,1.61,1.61,0,0,0-.82.2,1.4,1.4,0,0,0-.54.54,2.29,2.29,0,0,0-.29.74,3.7,3.7,0,0,0-.09.8,1.61,1.61,0,0,0,.18.78,1.27,1.27,0,0,0,.49.51,1.49,1.49,0,0,0,.75.18,1.43,1.43,0,0,0,.81-.21,1.78,1.78,0,0,0,.51-.55l.92.49a2.23,2.23,0,0,1-.56.63,2.56,2.56,0,0,1-.79.4A3.36,3.36,0,0,1,71.34,36.63Z"/><path class="cls-2" d="M81.45,18.12h0A5.51,5.51,0,0,1,87,23.62v0A2.36,2.36,0,0,1,84.6,26h0a5.51,5.51,0,0,1-5.51-5.51v0a2.36,2.36,0,0,1,2.36-2.36Z" transform="matrix(-0.01, 1, -1, -0.01, 106.03, -60.72)"/><path class="cls-3" d="M15.08,24.42V18.58l1,2.68-6-10.14h4.73l4.09,6.93H16.12l4.13-6.93h4.33l-6,10.14,1-2.68v5.84Z"/><path class="cls-3" d="M29.62,24.61a7.35,7.35,0,0,1-3.32-.71A5.36,5.36,0,0,1,24.1,22a5.13,5.13,0,0,1-.77-2.77,5,5,0,0,1,.77-2.79,5.22,5.22,0,0,1,2.1-1.9,6.52,6.52,0,0,1,3-.69,6.73,6.73,0,0,1,2.84.61,5.08,5.08,0,0,1,2.09,1.81,5.28,5.28,0,0,1,.78,3c0,.15,0,.32,0,.5s0,.36,0,.51h-8V18.15H32.6L31,18.7a2.35,2.35,0,0,0-.21-1,1.74,1.74,0,0,0-.6-.66,1.7,1.7,0,0,0-.92-.24,1.73,1.73,0,0,0-.92.24,1.6,1.6,0,0,0-.6.66,2.35,2.35,0,0,0-.21,1v.64a2.24,2.24,0,0,0,.27,1.14,1.71,1.71,0,0,0,.76.72,2.89,2.89,0,0,0,1.2.23,3.12,3.12,0,0,0,1.19-.19,4,4,0,0,0,1-.57l2.25,2.26a4.93,4.93,0,0,1-1.88,1.25A7.53,7.53,0,0,1,29.62,24.61Z"/><path class="cls-3" d="M36.28,24.42V10.32h4.3v14.1Z"/><path class="cls-3" d="M56.23,13.83a4.57,4.57,0,0,1,2.12.49,3.38,3.38,0,0,1,1.48,1.51,5.56,5.56,0,0,1,.55,2.66v5.93h-4.3V19.23a2.29,2.29,0,0,0-.32-1.38,1,1,0,0,0-.84-.41,1.31,1.31,0,0,0-.68.19,1.35,1.35,0,0,0-.49.6,2.79,2.79,0,0,0-.18,1.11v5.08H49.28V19.23a2.39,2.39,0,0,0-.3-1.38,1,1,0,0,0-.86-.41,1.31,1.31,0,0,0-.68.19,1.29,1.29,0,0,0-.49.6,2.79,2.79,0,0,0-.18,1.11v5.08H42.48V14h4.08v3l-.83-.84a4.1,4.1,0,0,1,1.57-1.76,4.37,4.37,0,0,1,2.21-.58,4.18,4.18,0,0,1,2.42.72,3.59,3.59,0,0,1,1.42,2.25L52,16.59a4.65,4.65,0,0,1,1.67-2A4.5,4.5,0,0,1,56.23,13.83Z"/><path class="cls-3" d="M67.92,24.61a6.71,6.71,0,0,1-3.13-.7A5.43,5.43,0,0,1,62.65,22a5.44,5.44,0,0,1,0-5.58,5.33,5.33,0,0,1,2.14-1.9,7.44,7.44,0,0,1,6.26,0A5.3,5.3,0,0,1,73.19,22a5.23,5.23,0,0,1-2.14,1.91A6.71,6.71,0,0,1,67.92,24.61Zm0-3.35a1.55,1.55,0,0,0,.85-.23,1.53,1.53,0,0,0,.61-.69,2.59,2.59,0,0,0,.23-1.13,2.49,2.49,0,0,0-.23-1.13,1.53,1.53,0,0,0-.61-.67,1.55,1.55,0,0,0-.85-.23,1.58,1.58,0,0,0-.86.23,1.66,1.66,0,0,0-.61.67,2.5,2.5,0,0,0-.22,1.13,2.59,2.59,0,0,0,.22,1.13,1.66,1.66,0,0,0,.61.69A1.58,1.58,0,0,0,67.92,21.26Z"/></g></svg>