<svg xmlns="http://www.w3.org/2000/svg" viewBox="0 0 105.21 46.99"><defs><style>.cls-1{fill:none;}.cls-2{fill:#959595;}.cls-3{fill:#0f0f14;}</style></defs><g id="Logos_Finales" data-name="Logos Finales"><rect class="cls-1" width="105.21" height="46.99"/><path class="cls-2" d="M52.4,38.78l1.75-7.6h1l-.27,1.46-.13.08a2.34,2.34,0,0,1,.43-.88,1.78,1.78,0,0,1,.72-.55,2.25,2.25,0,0,1,.93-.2,1.83,1.83,0,0,1,1,.27,1.86,1.86,0,0,1,.68.78,2.68,2.68,0,0,1,.25,1.22,3.8,3.8,0,0,1-.2,1.27,3.09,3.09,0,0,1-.57,1,2.63,2.63,0,0,1-.85.71,2.25,2.25,0,0,1-1.06.26,2.06,2.06,0,0,1-.91-.2,1.45,1.45,0,0,1-.63-.57,1.83,1.83,0,0,1-.27-.9l.18-.17-.91,4Zm3.53-3.06a1.31,1.31,0,0,0,.66-.18,1.73,1.73,0,0,0,.55-.5,2.26,2.26,0,0,0,.36-.73,2.84,2.84,0,0,0,.13-.88,1.67,1.67,0,0,0-.16-.78,1.12,1.12,0,0,0-.43-.48,1.3,1.3,0,0,0-.66-.17,1.38,1.38,0,0,0-.7.18,2.12,2.12,0,0,0-.54.5,2.36,2.36,0,0,0-.35.75,3.28,3.28,0,0,0-.12.91,1.48,1.48,0,0,0,.32,1A1.16,1.16,0,0,0,55.93,35.72Z"/><path class="cls-2" d="M61.12,36.61A1.26,1.26,0,0,1,60,36.14a1.49,1.49,0,0,1-.13-1.24l1.42-6.13h1.14L61,34.91a.7.7,0,0,0,0,.61.74.74,0,0,0,.56.19l.26,0a.6.6,0,0,0,.2,0l-.25.84-.32.09A2.18,2.18,0,0,1,61.12,36.61Z"/><path class="cls-2" d="M64.91,36.61a2,2,0,0,1-1-.25,1.46,1.46,0,0,1-.62-.74,2,2,0,0,1,0-1.17L64,31.18h1.14l-.74,3.18a1.09,1.09,0,0,0,.13,1,1,1,0,0,0,.81.33,1.41,1.41,0,0,0,1.31-.74A3,3,0,0,0,67,34l.67-2.83h1.14l-1.24,5.35h-1l.23-1.35.1.09a1.77,1.77,0,0,1-.75,1A2.3,2.3,0,0,1,64.91,36.61Z"/><path class="cls-2" d="M71.75,36.65a3.37,3.37,0,0,1-1.12-.18,2.79,2.79,0,0,1-.88-.53,2.6,2.6,0,0,1-.59-.8l.87-.53a1.76,1.76,0,0,0,.66.84,1.79,1.79,0,0,0,1,.3,1.35,1.35,0,0,0,.76-.19.61.61,0,0,0,.27-.52.5.5,0,0,0-.15-.38,1.16,1.16,0,0,0-.46-.23l-.86-.26a2,2,0,0,1-1-.57,1.29,1.29,0,0,1-.34-.88,1.47,1.47,0,0,1,.26-.85,1.68,1.68,0,0,1,.74-.58A2.65,2.65,0,0,1,72,31.07a2.93,2.93,0,0,1,1.38.32,2,2,0,0,1,.88.93l-.82.56a1.36,1.36,0,0,0-.34-.48,1.49,1.49,0,0,0-.49-.32A1.61,1.61,0,0,0,72,32a1.36,1.36,0,0,0-.78.18.54.54,0,0,0-.26.47.46.46,0,0,0,.21.41,1.52,1.52,0,0,0,.48.22l1,.31a1.78,1.78,0,0,1,.86.51,1.18,1.18,0,0,1,.31.82,1.6,1.6,0,0,1-1,1.55A2.63,2.63,0,0,1,71.75,36.65Z"/><path class="cls-2" d="M93.31,15.5H92a2.63,2.63,0,0,1-2.39-2.56V12a1.58,1.58,0,0,0-1.58-1.58H86A1.58,1.58,0,0,0,84.41,12v1.12a2.57,2.57,0,0,1-2.34,2.42H80.76a1.59,1.59,0,0,0-1.59,1.58v2.08a1.59,1.59,0,0,0,1.59,1.58h1a2.58,2.58,0,0,1,2.6,2.31V24.4A1.58,1.58,0,0,0,86,26h2.08a1.58,1.58,0,0,0,1.58-1.58V23.12a2.65,2.65,0,0,1,2.52-2.38h1.14a1.58,1.58,0,0,0,1.58-1.58V17.08A1.58,1.58,0,0,0,93.31,15.5Z"/><path class="cls-3" d="M15.08,24.42V18.58l1,2.68-6-10.14h4.73l4.09,6.93H16.12l4.13-6.93h4.33l-6,10.14,1-2.68v5.84Z"/><path class="cls-3" d="M29.62,24.61a7.35,7.35,0,0,1-3.32-.71A5.39,5.39,0,0,1,24.1,22a5.39,5.39,0,0,1,0-5.55,5.22,5.22,0,0,1,2.1-1.9,6.52,6.52,0,0,1,3-.69,6.73,6.73,0,0,1,2.84.61,5.08,5.08,0,0,1,2.09,1.81,5.28,5.28,0,0,1,.78,3c0,.15,0,.32,0,.5s0,.36,0,.51h-8V18.15H32.6L31,18.7a2.22,2.22,0,0,0-.22-1,1.64,1.64,0,0,0-.59-.66,1.7,1.7,0,0,0-.92-.24,1.73,1.73,0,0,0-.92.24,1.6,1.6,0,0,0-.6.66,2.35,2.35,0,0,0-.21,1v.64a2.24,2.24,0,0,0,.27,1.14,1.71,1.71,0,0,0,.76.72,2.89,2.89,0,0,0,1.2.23,3.12,3.12,0,0,0,1.19-.19,4,4,0,0,0,1-.57l2.25,2.26a4.93,4.93,0,0,1-1.88,1.25A7.53,7.53,0,0,1,29.62,24.61Z"/><path class="cls-3" d="M36.28,24.42V10.32h4.3v14.1Z"/><path class="cls-3" d="M56.23,13.83a4.48,4.48,0,0,1,2.12.49,3.38,3.38,0,0,1,1.48,1.51,5.56,5.56,0,0,1,.55,2.66v5.93h-4.3V19.23a2.29,2.29,0,0,0-.32-1.38,1,1,0,0,0-.84-.41,1.31,1.31,0,0,0-.68.19,1.35,1.35,0,0,0-.49.6,2.79,2.79,0,0,0-.18,1.11v5.08H49.28V19.23a2.39,2.39,0,0,0-.3-1.38,1,1,0,0,0-.86-.41,1.31,1.31,0,0,0-.68.19,1.29,1.29,0,0,0-.49.6,2.79,2.79,0,0,0-.18,1.11v5.08H42.48V14h4.08v3l-.83-.84a4,4,0,0,1,1.57-1.76,4.37,4.37,0,0,1,2.21-.58,4.18,4.18,0,0,1,2.42.72,3.59,3.59,0,0,1,1.42,2.25L52,16.59a4.65,4.65,0,0,1,1.67-2A4.5,4.5,0,0,1,56.23,13.83Z"/><path class="cls-3" d="M67.92,24.61a6.71,6.71,0,0,1-3.13-.7A5.43,5.43,0,0,1,62.65,22a5,5,0,0,1-.77-2.79,5,5,0,0,1,.77-2.79,5.33,5.33,0,0,1,2.14-1.9,7.44,7.44,0,0,1,6.26,0A5.3,5.3,0,0,1,73.19,22a5.23,5.23,0,0,1-2.14,1.91A6.71,6.71,0,0,1,67.92,24.61Zm0-3.35a1.55,1.55,0,0,0,.85-.23,1.53,1.53,0,0,0,.61-.69,2.59,2.59,0,0,0,.23-1.13,2.49,2.49,0,0,0-.23-1.13,1.53,1.53,0,0,0-.61-.67,1.55,1.55,0,0,0-.85-.23,1.58,1.58,0,0,0-.86.23,1.66,1.66,0,0,0-.61.67,2.5,2.5,0,0,0-.22,1.13,2.59,2.59,0,0,0,.22,1.13,1.66,1.66,0,0,0,.61.69A1.58,1.58,0,0,0,67.92,21.26Z"/></g></svg>