<svg xmlns="http://www.w3.org/2000/svg" viewBox="0 0 125.94 118.17"><defs><style>.cls-1,.cls-2,.cls-3,.cls-4,.cls-5,.cls-6,.cls-8{fill:none;stroke:#dadada;stroke-miterlimit:10;}.cls-1,.cls-2{stroke-width:0.75px;}.cls-2{stroke-dasharray:3.64 3.64;}.cls-3,.cls-4,.cls-5,.cls-6{stroke-width:0.75px;}.cls-4{stroke-dasharray:3.66 3.66;}.cls-5{stroke-dasharray:5.01 5.01;}.cls-6{stroke-dasharray:5.01 5.01;}.cls-7{fill:#fb3429;}</style></defs><g id="Guias"><line class="cls-1" x1="121.27" y1="90.98" x2="119.46" y2="90.98"/><line class="cls-2" x1="115.81" y1="90.98" x2="8.31" y2="90.98"/><line class="cls-1" x1="6.49" y1="90.98" x2="4.67" y2="90.98"/><line class="cls-3" x1="121.27" y1="28.15" x2="119.45" y2="28.15"/><line class="cls-4" x1="115.79" y1="28.15" x2="7.74" y2="28.16"/><line class="cls-3" x1="5.91" y1="28.16" x2="4.09" y2="28.16"/><line class="cls-3" x1="27.76" y1="4.38" x2="27.76" y2="6.79"/><line class="cls-5" x1="27.76" y1="11.8" x2="27.76" y2="109.4"/><line class="cls-3" x1="27.76" y1="111.9" x2="27.76" y2="114.31"/><line class="cls-3" x1="97.8" y1="4.38" x2="97.8" y2="6.79"/><line class="cls-6" x1="97.8" y1="11.8" x2="97.8" y2="109.4"/><line class="cls-3" x1="97.8" y1="111.9" x2="97.8" y2="114.31"/></g><g id="Logotipo"><polygon class="cls-7" points="85.31 90.04 99 56.81 77.07 28.34 41.44 33.1 27.76 66.33 49.69 94.8 85.31 90.04"/></g><g id="Circulos"><rect class="cls-3" x="98.19" y="90.9" width="23.08" height="23.08" rx="11.54"/><rect class="cls-3" x="4.67" y="90.9" width="23.08" height="23.08" rx="11.54"/><rect class="cls-3" x="4.67" y="4.88" width="23.08" height="23.08" rx="11.54"/><rect class="cls-3" x="98.19" y="4.99" width="23.08" height="23.08" rx="11.54"/></g><g id="Rectángulo"><rect class="cls-8" x="4.67" y="4.38" width="116.6" height="109.4"/></g></svg>