<svg width="377" height="470" viewBox="0 0 377 470" fill="none" xmlns="http://www.w3.org/2000/svg">
<g clip-path="url(#clip0_834_1582)">
<path d="M324.75 0H220.25L168 90.5L220.25 181H324.75L377 90.5L324.75 0Z" fill="#E73B33"/>
<path d="M231.423 86L230.023 82.76H223.023L221.643 86H218.962L225.263 72H227.823L234.143 86H231.423ZM223.903 80.72H229.162L226.523 74.6L223.903 80.72ZM248.163 75.2C250.743 75.2 252.543 76.66 252.543 79.88V86H250.043V80.2C250.043 78.3 249.163 77.38 247.643 77.38C246.003 77.38 244.863 78.46 244.863 80.58V86H242.363V80.2C242.363 78.3 241.483 77.38 239.963 77.38C238.303 77.38 237.183 78.46 237.183 80.58V86H234.683V75.32H237.063V76.68C237.863 75.72 239.103 75.2 240.563 75.2C242.123 75.2 243.423 75.78 244.163 76.98C245.023 75.88 246.463 75.2 248.163 75.2ZM255.998 73.56C255.078 73.56 254.398 72.9 254.398 72.06C254.398 71.22 255.078 70.56 255.998 70.56C256.918 70.56 257.598 71.18 257.598 72C257.598 72.88 256.938 73.56 255.998 73.56ZM254.738 86V75.32H257.238V86H254.738ZM267.739 75.32H270.119V84.38C270.119 88.26 268.099 90.02 264.359 90.02C262.359 90.02 260.379 89.5 259.159 88.5L260.279 86.62C261.219 87.4 262.739 87.9 264.219 87.9C266.579 87.9 267.619 86.82 267.619 84.66V84.1C266.739 85.06 265.479 85.52 264.039 85.52C260.979 85.52 258.639 83.44 258.639 80.34C258.639 77.24 260.979 75.2 264.039 75.2C265.539 75.2 266.859 75.68 267.739 76.74V75.32ZM264.419 83.4C266.299 83.4 267.659 82.16 267.659 80.34C267.659 78.54 266.299 77.32 264.419 77.32C262.519 77.32 261.159 78.54 261.159 80.34C261.159 82.16 262.519 83.4 264.419 83.4ZM276.486 75.2C279.566 75.2 281.346 76.66 281.346 79.74V86H278.986V84.7C278.386 85.62 277.226 86.14 275.626 86.14C273.186 86.14 271.646 84.8 271.646 82.94C271.646 81.16 272.846 79.76 276.086 79.76H278.846V79.6C278.846 78.14 277.966 77.28 276.186 77.28C274.986 77.28 273.746 77.68 272.946 78.34L271.966 76.52C273.106 75.64 274.766 75.2 276.486 75.2ZM276.146 84.32C277.366 84.32 278.426 83.76 278.846 82.66V81.42H276.266C274.566 81.42 274.106 82.06 274.106 82.84C274.106 83.74 274.866 84.32 276.146 84.32ZM289.474 75.2C292.594 75.2 294.894 77.34 294.894 80.66C294.894 83.98 292.594 86.14 289.474 86.14C288.014 86.14 286.774 85.64 285.934 84.62V86H283.554V71.16H286.054V76.62C286.914 75.66 288.114 75.2 289.474 75.2ZM289.194 84C290.994 84 292.354 82.7 292.354 80.66C292.354 78.62 290.994 77.32 289.194 77.32C287.394 77.32 286.014 78.62 286.014 80.66C286.014 82.7 287.394 84 289.194 84ZM296.265 86V71.16H298.765V86H296.265ZM311.086 80.72C311.086 80.92 311.066 81.22 311.046 81.46H302.666C302.966 83.02 304.266 84.02 306.126 84.02C307.326 84.02 308.266 83.64 309.026 82.86L310.366 84.4C309.406 85.54 307.906 86.14 306.066 86.14C302.486 86.14 300.166 83.84 300.166 80.66C300.166 77.48 302.506 75.2 305.686 75.2C308.806 75.2 311.086 77.38 311.086 80.72ZM305.686 77.2C304.066 77.2 302.886 78.24 302.646 79.8H308.706C308.506 78.26 307.326 77.2 305.686 77.2ZM324.615 75.32H327.015L322.015 86.86C321.035 89.28 319.675 90.02 317.895 90.02C316.835 90.02 315.715 89.66 315.035 89.04L316.035 87.2C316.515 87.66 317.195 87.94 317.875 87.94C318.755 87.94 319.275 87.52 319.755 86.46L319.935 86.04L315.275 75.32H317.875L321.235 83.22L324.615 75.32ZM227.32 108.82H235.22V111H224.72V97H234.94V99.18H227.32V102.82H234.08V104.96H227.32V108.82ZM242.938 100.2C245.498 100.2 247.398 101.66 247.398 104.88V111H244.898V105.2C244.898 103.3 243.958 102.38 242.358 102.38C240.578 102.38 239.378 103.46 239.378 105.6V111H236.878V100.32H239.258V101.7C240.078 100.72 241.378 100.2 242.938 100.2ZM255.29 108.64L255.99 110.42C255.39 110.9 254.49 111.14 253.59 111.14C251.25 111.14 249.91 109.9 249.91 107.54V102.4H248.15V100.4H249.91V97.96H252.41V100.4H255.27V102.4H252.41V107.48C252.41 108.52 252.93 109.08 253.89 109.08C254.41 109.08 254.91 108.94 255.29 108.64ZM264.886 100.32H267.386V111H265.006V109.64C264.206 110.62 262.946 111.14 261.566 111.14C258.826 111.14 256.966 109.64 256.966 106.42V100.32H259.466V106.08C259.466 108.02 260.386 108.94 261.966 108.94C263.706 108.94 264.886 107.86 264.886 105.72V100.32ZM272.96 111.14C271.18 111.14 269.4 110.62 268.44 109.94L269.4 108.04C270.34 108.66 271.78 109.1 273.12 109.1C274.7 109.1 275.36 108.66 275.36 107.92C275.36 105.88 268.76 107.8 268.76 103.54C268.76 101.52 270.58 100.2 273.46 100.2C274.88 100.2 276.5 100.54 277.46 101.12L276.5 103.02C275.48 102.42 274.46 102.22 273.44 102.22C271.92 102.22 271.2 102.72 271.2 103.42C271.2 105.58 277.8 103.66 277.8 107.84C277.8 109.84 275.96 111.14 272.96 111.14ZM280.213 98.56C279.293 98.56 278.613 97.9 278.613 97.06C278.613 96.22 279.293 95.56 280.213 95.56C281.133 95.56 281.813 96.18 281.813 97C281.813 97.88 281.153 98.56 280.213 98.56ZM278.953 111V100.32H281.453V111H278.953ZM287.814 100.2C290.894 100.2 292.674 101.66 292.674 104.74V111H290.314V109.7C289.714 110.62 288.554 111.14 286.954 111.14C284.514 111.14 282.974 109.8 282.974 107.94C282.974 106.16 284.174 104.76 287.414 104.76H290.174V104.6C290.174 103.14 289.294 102.28 287.514 102.28C286.314 102.28 285.074 102.68 284.274 103.34L283.294 101.52C284.434 100.64 286.094 100.2 287.814 100.2ZM287.474 109.32C288.694 109.32 289.754 108.76 290.174 107.66V106.42H287.594C285.894 106.42 285.434 107.06 285.434 107.84C285.434 108.74 286.194 109.32 287.474 109.32ZM298.182 111.14C296.402 111.14 294.622 110.62 293.662 109.94L294.622 108.04C295.562 108.66 297.002 109.1 298.342 109.1C299.922 109.1 300.582 108.66 300.582 107.92C300.582 105.88 293.982 107.8 293.982 103.54C293.982 101.52 295.802 100.2 298.682 100.2C300.102 100.2 301.722 100.54 302.682 101.12L301.722 103.02C300.702 102.42 299.682 102.22 298.662 102.22C297.142 102.22 296.422 102.72 296.422 103.42C296.422 105.58 303.022 103.66 303.022 107.84C303.022 109.84 301.182 111.14 298.182 111.14ZM309.895 108.64L310.595 110.42C309.995 110.9 309.095 111.14 308.195 111.14C305.855 111.14 304.515 109.9 304.515 107.54V102.4H302.755V100.4H304.515V97.96H307.015V100.4H309.875V102.4H307.015V107.48C307.015 108.52 307.535 109.08 308.495 109.08C309.015 109.08 309.515 108.94 309.895 108.64ZM315.732 100.2C318.812 100.2 320.592 101.66 320.592 104.74V111H318.232V109.7C317.632 110.62 316.472 111.14 314.872 111.14C312.432 111.14 310.892 109.8 310.892 107.94C310.892 106.16 312.092 104.76 315.332 104.76H318.092V104.6C318.092 103.14 317.212 102.28 315.432 102.28C314.232 102.28 312.992 102.68 312.192 103.34L311.212 101.52C312.352 100.64 314.012 100.2 315.732 100.2ZM315.392 109.32C316.612 109.32 317.672 108.76 318.092 107.66V106.42H315.512C313.812 106.42 313.352 107.06 313.352 107.84C313.352 108.74 314.112 109.32 315.392 109.32Z" fill="white"/>
</g>
<g clip-path="url(#clip1_834_1582)">
<path d="M324.75 194H220.25L168 284L220.25 374H324.75L377 284L324.75 194Z" fill="#E73B33"/>
<path d="M231.022 279L229.622 275.76H222.622L221.242 279H218.562L224.862 265H227.422L233.742 279H231.022ZM223.502 273.72H228.762L226.122 267.6L223.502 273.72ZM239.085 279.14C235.705 279.14 233.305 276.86 233.305 273.66C233.305 270.46 235.705 268.2 239.085 268.2C241.165 268.2 242.825 269.06 243.645 270.68L241.725 271.8C241.085 270.78 240.125 270.32 239.065 270.32C237.225 270.32 235.825 271.6 235.825 273.66C235.825 275.74 237.225 277 239.065 277C240.125 277 241.085 276.54 241.725 275.52L243.645 276.64C242.825 278.24 241.165 279.14 239.085 279.14ZM249.45 279.14C246.17 279.14 243.77 276.86 243.77 273.66C243.77 270.46 246.17 268.2 249.45 268.2C252.77 268.2 255.15 270.46 255.15 273.66C255.15 276.86 252.77 279.14 249.45 279.14ZM249.45 277C251.27 277 252.63 275.7 252.63 273.66C252.63 271.62 251.27 270.32 249.45 270.32C247.65 270.32 246.29 271.62 246.29 273.66C246.29 275.7 247.65 277 249.45 277ZM264.76 268.32H267.14V277.38C267.14 281.26 265.12 283.02 261.38 283.02C259.38 283.02 257.4 282.5 256.18 281.5L257.3 279.62C258.24 280.4 259.76 280.9 261.24 280.9C263.6 280.9 264.64 279.82 264.64 277.66V277.1C263.76 278.06 262.5 278.52 261.06 278.52C258 278.52 255.66 276.44 255.66 273.34C255.66 270.24 258 268.2 261.06 268.2C262.56 268.2 263.88 268.68 264.76 269.74V268.32ZM261.44 276.4C263.32 276.4 264.68 275.16 264.68 273.34C264.68 271.54 263.32 270.32 261.44 270.32C259.54 270.32 258.18 271.54 258.18 273.34C258.18 275.16 259.54 276.4 261.44 276.4ZM279.467 273.72C279.467 273.92 279.447 274.22 279.427 274.46H271.047C271.347 276.02 272.647 277.02 274.507 277.02C275.707 277.02 276.647 276.64 277.407 275.86L278.747 277.4C277.787 278.54 276.287 279.14 274.447 279.14C270.867 279.14 268.547 276.84 268.547 273.66C268.547 270.48 270.887 268.2 274.067 268.2C277.187 268.2 279.467 270.38 279.467 273.72ZM274.067 270.2C272.447 270.2 271.267 271.24 271.027 272.8H277.087C276.887 271.26 275.707 270.2 274.067 270.2ZM288.829 264.16H291.329V279H288.929V277.62C288.089 278.64 286.849 279.14 285.389 279.14C282.289 279.14 279.989 276.98 279.989 273.66C279.989 270.34 282.289 268.2 285.389 268.2C286.769 268.2 287.989 268.66 288.829 269.64V264.16ZM285.689 277C287.489 277 288.869 275.7 288.869 273.66C288.869 271.62 287.489 270.32 285.689 270.32C283.889 270.32 282.509 271.62 282.509 273.66C282.509 275.7 283.889 277 285.689 277ZM298.399 279.14C295.119 279.14 292.719 276.86 292.719 273.66C292.719 270.46 295.119 268.2 298.399 268.2C301.719 268.2 304.099 270.46 304.099 273.66C304.099 276.86 301.719 279.14 298.399 279.14ZM298.399 277C300.219 277 301.579 275.7 301.579 273.66C301.579 271.62 300.219 270.32 298.399 270.32C296.599 270.32 295.239 271.62 295.239 273.66C295.239 275.7 296.599 277 298.399 277ZM307.87 269.88C308.59 268.76 309.89 268.2 311.67 268.2V270.58C311.45 270.54 311.27 270.52 311.09 270.52C309.19 270.52 307.99 271.64 307.99 273.82V279H305.49V268.32H307.87V269.88ZM325.015 268.32H327.415L322.415 279.86C321.435 282.28 320.075 283.02 318.295 283.02C317.235 283.02 316.115 282.66 315.435 282.04L316.435 280.2C316.915 280.66 317.595 280.94 318.275 280.94C319.155 280.94 319.675 280.52 320.155 279.46L320.335 279.04L315.675 268.32H318.275L321.635 276.22L325.015 268.32ZM228.247 304L226.847 300.76H219.847L218.467 304H215.787L222.087 290H224.647L230.967 304H228.247ZM220.727 298.72H225.987L223.347 292.6L220.727 298.72ZM237.427 293.2C240.547 293.2 242.847 295.36 242.847 298.66C242.847 301.98 240.547 304.14 237.427 304.14C236.067 304.14 234.867 303.68 234.007 302.7V307.88H231.507V293.32H233.887V294.72C234.727 293.7 235.967 293.2 237.427 293.2ZM237.147 302C238.947 302 240.307 300.7 240.307 298.66C240.307 296.62 238.947 295.32 237.147 295.32C235.347 295.32 233.967 296.62 233.967 298.66C233.967 300.7 235.347 302 237.147 302ZM248.161 293.2C251.241 293.2 253.021 294.66 253.021 297.74V304H250.661V302.7C250.061 303.62 248.901 304.14 247.301 304.14C244.861 304.14 243.321 302.8 243.321 300.94C243.321 299.16 244.521 297.76 247.761 297.76H250.521V297.6C250.521 296.14 249.641 295.28 247.861 295.28C246.661 295.28 245.421 295.68 244.621 296.34L243.641 294.52C244.781 293.64 246.441 293.2 248.161 293.2ZM247.821 302.32C249.041 302.32 250.101 301.76 250.521 300.66V299.42H247.941C246.241 299.42 245.781 300.06 245.781 300.84C245.781 301.74 246.541 302.32 247.821 302.32ZM258.53 304.14C256.75 304.14 254.97 303.62 254.01 302.94L254.97 301.04C255.91 301.66 257.35 302.1 258.69 302.1C260.27 302.1 260.93 301.66 260.93 300.92C260.93 298.88 254.33 300.8 254.33 296.54C254.33 294.52 256.15 293.2 259.03 293.2C260.45 293.2 262.07 293.54 263.03 294.12L262.07 296.02C261.05 295.42 260.03 295.22 259.01 295.22C257.49 295.22 256.77 295.72 256.77 296.42C256.77 298.58 263.37 296.66 263.37 300.84C263.37 302.84 261.53 304.14 258.53 304.14ZM265.783 291.56C264.863 291.56 264.183 290.9 264.183 290.06C264.183 289.22 264.863 288.56 265.783 288.56C266.703 288.56 267.383 289.18 267.383 290C267.383 290.88 266.723 291.56 265.783 291.56ZM264.523 304V293.32H267.023V304H264.523ZM274.104 304.14C270.824 304.14 268.424 301.86 268.424 298.66C268.424 295.46 270.824 293.2 274.104 293.2C277.424 293.2 279.804 295.46 279.804 298.66C279.804 301.86 277.424 304.14 274.104 304.14ZM274.104 302C275.924 302 277.284 300.7 277.284 298.66C277.284 296.62 275.924 295.32 274.104 295.32C272.304 295.32 270.944 296.62 270.944 298.66C270.944 300.7 272.304 302 274.104 302ZM287.255 293.2C289.815 293.2 291.715 294.66 291.715 297.88V304H289.215V298.2C289.215 296.3 288.275 295.38 286.675 295.38C284.895 295.38 283.695 296.46 283.695 298.6V304H281.195V293.32H283.575V294.7C284.395 293.72 285.695 293.2 287.255 293.2ZM297.966 293.2C301.046 293.2 302.826 294.66 302.826 297.74V304H300.466V302.7C299.866 303.62 298.706 304.14 297.106 304.14C294.666 304.14 293.126 302.8 293.126 300.94C293.126 299.16 294.326 297.76 297.566 297.76H300.326V297.6C300.326 296.14 299.446 295.28 297.666 295.28C296.466 295.28 295.226 295.68 294.426 296.34L293.446 294.52C294.586 293.64 296.246 293.2 297.966 293.2ZM297.626 302.32C298.846 302.32 299.906 301.76 300.326 300.66V299.42H297.746C296.046 299.42 295.586 300.06 295.586 300.84C295.586 301.74 296.346 302.32 297.626 302.32ZM313.092 289.16H315.592V304H313.192V302.62C312.352 303.64 311.112 304.14 309.652 304.14C306.552 304.14 304.252 301.98 304.252 298.66C304.252 295.34 306.552 293.2 309.652 293.2C311.032 293.2 312.252 293.66 313.092 294.64V289.16ZM309.952 302C311.752 302 313.132 300.7 313.132 298.66C313.132 296.62 311.752 295.32 309.952 295.32C308.152 295.32 306.772 296.62 306.772 298.66C306.772 300.7 308.152 302 309.952 302ZM322.663 304.14C319.383 304.14 316.983 301.86 316.983 298.66C316.983 295.46 319.383 293.2 322.663 293.2C325.983 293.2 328.363 295.46 328.363 298.66C328.363 301.86 325.983 304.14 322.663 304.14ZM322.663 302C324.483 302 325.843 300.7 325.843 298.66C325.843 296.62 324.483 295.32 322.663 295.32C320.863 295.32 319.503 296.62 319.503 298.66C319.503 300.7 320.863 302 322.663 302Z" fill="white"/>
</g>
<g clip-path="url(#clip2_834_1582)">
<path d="M155.057 96H51.0574L-0.942627 186L51.0574 276H155.057L207.057 186L155.057 96Z" fill="#E73B33"/>
</g>
<g clip-path="url(#clip3_834_1582)">
<path d="M156 289H52L0 379.5L52 470H156L208 379.5L156 289Z" fill="#E73B33"/>
<path d="M64.7902 375V361H70.9102C75.4502 361 78.5502 363.8 78.5502 368C78.5502 372.2 75.4502 375 70.9102 375H64.7902ZM67.3902 372.8H70.7902C73.9102 372.8 75.9302 370.9 75.9302 368C75.9302 365.1 73.9102 363.2 70.7902 363.2H67.3902V372.8ZM90.1136 369.72C90.1136 369.92 90.0936 370.22 90.0736 370.46H81.6936C81.9936 372.02 83.2936 373.02 85.1536 373.02C86.3536 373.02 87.2936 372.64 88.0536 371.86L89.3936 373.4C88.4336 374.54 86.9336 375.14 85.0936 375.14C81.5136 375.14 79.1936 372.84 79.1936 369.66C79.1936 366.48 81.5336 364.2 84.7136 364.2C87.8336 364.2 90.1136 366.38 90.1136 369.72ZM84.7136 366.2C83.0936 366.2 81.9136 367.24 81.6736 368.8H87.7336C87.5336 367.26 86.3536 366.2 84.7136 366.2ZM94.815 375.14C93.035 375.14 91.255 374.62 90.295 373.94L91.255 372.04C92.195 372.66 93.635 373.1 94.975 373.1C96.555 373.1 97.215 372.66 97.215 371.92C97.215 369.88 90.615 371.8 90.615 367.54C90.615 365.52 92.435 364.2 95.315 364.2C96.735 364.2 98.355 364.54 99.315 365.12L98.355 367.02C97.335 366.42 96.315 366.22 95.295 366.22C93.775 366.22 93.055 366.72 93.055 367.42C93.055 369.58 99.655 367.66 99.655 371.84C99.655 373.84 97.815 375.14 94.815 375.14ZM108.768 360.16H111.268V375H108.868V373.62C108.028 374.64 106.788 375.14 105.328 375.14C102.228 375.14 99.928 372.98 99.928 369.66C99.928 366.34 102.228 364.2 105.328 364.2C106.708 364.2 107.928 364.66 108.768 365.64V360.16ZM105.628 373C107.428 373 108.808 371.7 108.808 369.66C108.808 367.62 107.428 366.32 105.628 366.32C103.828 366.32 102.448 367.62 102.448 369.66C102.448 371.7 103.828 373 105.628 373ZM123.578 369.72C123.578 369.92 123.558 370.22 123.538 370.46H115.158C115.458 372.02 116.758 373.02 118.618 373.02C119.818 373.02 120.758 372.64 121.518 371.86L122.858 373.4C121.898 374.54 120.398 375.14 118.558 375.14C114.978 375.14 112.658 372.84 112.658 369.66C112.658 366.48 114.998 364.2 118.178 364.2C121.298 364.2 123.578 366.38 123.578 369.72ZM118.178 366.2C116.558 366.2 115.378 367.24 115.138 368.8H121.198C120.998 367.26 119.818 366.2 118.178 366.2ZM139.547 369.72C139.547 369.92 139.527 370.22 139.507 370.46H131.127C131.427 372.02 132.727 373.02 134.587 373.02C135.787 373.02 136.727 372.64 137.487 371.86L138.827 373.4C137.867 374.54 136.367 375.14 134.527 375.14C130.947 375.14 128.627 372.84 128.627 369.66C128.627 366.48 130.967 364.2 134.147 364.2C137.267 364.2 139.547 366.38 139.547 369.72ZM134.147 366.2C132.527 366.2 131.347 367.24 131.107 368.8H137.167C136.967 367.26 135.787 366.2 134.147 366.2ZM140.949 375V360.16H143.449V375H140.949ZM71.4673 390.88C72.1873 389.76 73.4873 389.2 75.2673 389.2V391.58C75.0473 391.54 74.8673 391.52 74.6873 391.52C72.7873 391.52 71.5873 392.64 71.5873 394.82V400H69.0873V389.32H71.4673V390.88ZM86.3304 394.72C86.3304 394.92 86.3104 395.22 86.2904 395.46H77.9104C78.2104 397.02 79.5104 398.02 81.3704 398.02C82.5704 398.02 83.5104 397.64 84.2704 396.86L85.6104 398.4C84.6504 399.54 83.1504 400.14 81.3104 400.14C77.7304 400.14 75.4104 397.84 75.4104 394.66C75.4104 391.48 77.7504 389.2 80.9304 389.2C84.0504 389.2 86.3304 391.38 86.3304 394.72ZM80.9304 391.2C79.3104 391.2 78.1304 392.24 77.8904 393.8H83.9504C83.7504 392.26 82.5704 391.2 80.9304 391.2ZM91.0318 400.14C89.2518 400.14 87.4718 399.62 86.5118 398.94L87.4718 397.04C88.4118 397.66 89.8518 398.1 91.1918 398.1C92.7718 398.1 93.4318 397.66 93.4318 396.92C93.4318 394.88 86.8318 396.8 86.8318 392.54C86.8318 390.52 88.6518 389.2 91.5318 389.2C92.9518 389.2 94.5718 389.54 95.5318 390.12L94.5718 392.02C93.5518 391.42 92.5318 391.22 91.5118 391.22C89.9918 391.22 89.2718 391.72 89.2718 392.42C89.2718 394.58 95.8718 392.66 95.8718 396.84C95.8718 398.84 94.0318 400.14 91.0318 400.14ZM102.945 389.2C106.065 389.2 108.365 391.36 108.365 394.66C108.365 397.98 106.065 400.14 102.945 400.14C101.585 400.14 100.385 399.68 99.5248 398.7V403.88H97.0248V389.32H99.4048V390.72C100.245 389.7 101.485 389.2 102.945 389.2ZM102.665 398C104.465 398 105.825 396.7 105.825 394.66C105.825 392.62 104.465 391.32 102.665 391.32C100.865 391.32 99.4848 392.62 99.4848 394.66C99.4848 396.7 100.865 398 102.665 398ZM119.776 394.72C119.776 394.92 119.756 395.22 119.736 395.46H111.356C111.656 397.02 112.956 398.02 114.816 398.02C116.016 398.02 116.956 397.64 117.716 396.86L119.056 398.4C118.096 399.54 116.596 400.14 114.756 400.14C111.176 400.14 108.856 397.84 108.856 394.66C108.856 391.48 111.196 389.2 114.376 389.2C117.496 389.2 119.776 391.38 119.776 394.72ZM114.376 391.2C112.756 391.2 111.576 392.24 111.336 393.8H117.396C117.196 392.26 116.016 391.2 114.376 391.2ZM126.897 397.64L127.597 399.42C126.997 399.9 126.097 400.14 125.197 400.14C122.857 400.14 121.517 398.9 121.517 396.54V391.4H119.757V389.4H121.517V386.96H124.017V389.4H126.877V391.4H124.017V396.48C124.017 397.52 124.537 398.08 125.497 398.08C126.017 398.08 126.517 397.94 126.897 397.64ZM133.102 400.14C129.822 400.14 127.422 397.86 127.422 394.66C127.422 391.46 129.822 389.2 133.102 389.2C136.422 389.2 138.802 391.46 138.802 394.66C138.802 397.86 136.422 400.14 133.102 400.14ZM133.102 398C134.922 398 136.282 396.7 136.282 394.66C136.282 392.62 134.922 391.32 133.102 391.32C131.302 391.32 129.942 392.62 129.942 394.66C129.942 396.7 131.302 398 133.102 398Z" fill="white"/>
</g>
<path d="M66.765 168C70.445 168 72.725 169.88 72.725 172.98C72.725 176.06 70.445 177.96 66.765 177.96H63.605V182H61.005V168H66.765ZM66.645 175.76C68.925 175.76 70.105 174.74 70.105 172.98C70.105 171.22 68.925 170.2 66.645 170.2H63.605V175.76H66.645ZM78.8423 182.14C75.5623 182.14 73.1623 179.86 73.1623 176.66C73.1623 173.46 75.5623 171.2 78.8423 171.2C82.1623 171.2 84.5423 173.46 84.5423 176.66C84.5423 179.86 82.1623 182.14 78.8423 182.14ZM78.8423 180C80.6623 180 82.0223 178.7 82.0223 176.66C82.0223 174.62 80.6623 173.32 78.8423 173.32C77.0423 173.32 75.6823 174.62 75.6823 176.66C75.6823 178.7 77.0423 180 78.8423 180ZM89.233 182.14C87.453 182.14 85.673 181.62 84.713 180.94L85.673 179.04C86.613 179.66 88.053 180.1 89.393 180.1C90.973 180.1 91.633 179.66 91.633 178.92C91.633 176.88 85.033 178.8 85.033 174.54C85.033 172.52 86.853 171.2 89.733 171.2C91.153 171.2 92.773 171.54 93.733 172.12L92.773 174.02C91.753 173.42 90.733 173.22 89.713 173.22C88.193 173.22 87.473 173.72 87.473 174.42C87.473 176.58 94.073 174.66 94.073 178.84C94.073 180.84 92.233 182.14 89.233 182.14ZM96.4859 169.56C95.5659 169.56 94.8859 168.9 94.8859 168.06C94.8859 167.22 95.5659 166.56 96.4859 166.56C97.4059 166.56 98.0859 167.18 98.0859 168C98.0859 168.88 97.4259 169.56 96.4859 169.56ZM95.2259 182V171.32H97.7259V182H95.2259ZM105.727 179.64L106.427 181.42C105.827 181.9 104.927 182.14 104.027 182.14C101.687 182.14 100.347 180.9 100.347 178.54V173.4H98.5872V171.4H100.347V168.96H102.847V171.4H105.707V173.4H102.847V178.48C102.847 179.52 103.367 180.08 104.327 180.08C104.847 180.08 105.347 179.94 105.727 179.64ZM108.744 169.56C107.824 169.56 107.144 168.9 107.144 168.06C107.144 167.22 107.824 166.56 108.744 166.56C109.664 166.56 110.344 167.18 110.344 168C110.344 168.88 109.684 169.56 108.744 169.56ZM107.484 182V171.32H109.984V182H107.484ZM119.865 171.32H122.265L117.685 182H115.105L110.525 171.32H113.125L116.445 179.24L119.865 171.32ZM127.335 182.14C124.055 182.14 121.655 179.86 121.655 176.66C121.655 173.46 124.055 171.2 127.335 171.2C130.655 171.2 133.035 173.46 133.035 176.66C133.035 179.86 130.655 182.14 127.335 182.14ZM127.335 180C129.155 180 130.515 178.7 130.515 176.66C130.515 174.62 129.155 173.32 127.335 173.32C125.535 173.32 124.175 174.62 124.175 176.66C124.175 178.7 125.535 180 127.335 180ZM146.553 171.32H148.953L143.953 182.86C142.973 185.28 141.613 186.02 139.833 186.02C138.773 186.02 137.653 185.66 136.972 185.04L137.972 183.2C138.453 183.66 139.133 183.94 139.812 183.94C140.693 183.94 141.213 183.52 141.693 182.46L141.873 182.04L137.212 171.32H139.812L143.173 179.22L146.553 171.32ZM70.7035 192.16H73.2035V207H70.8035V205.62C69.9635 206.64 68.7235 207.14 67.2635 207.14C64.1635 207.14 61.8635 204.98 61.8635 201.66C61.8635 198.34 64.1635 196.2 67.2635 196.2C68.6435 196.2 69.8635 196.66 70.7035 197.64V192.16ZM67.5635 205C69.3635 205 70.7435 203.7 70.7435 201.66C70.7435 199.62 69.3635 198.32 67.5635 198.32C65.7635 198.32 64.3835 199.62 64.3835 201.66C64.3835 203.7 65.7635 205 67.5635 205ZM76.734 194.56C75.814 194.56 75.134 193.9 75.134 193.06C75.134 192.22 75.814 191.56 76.734 191.56C77.654 191.56 78.334 192.18 78.334 193C78.334 193.88 77.674 194.56 76.734 194.56ZM75.474 207V196.32H77.974V207H75.474ZM87.8552 196.32H90.2552L85.6752 207H83.0952L78.5152 196.32H81.1152L84.4352 204.24L87.8552 196.32ZM100.565 201.72C100.565 201.92 100.545 202.22 100.525 202.46H92.1448C92.4448 204.02 93.7448 205.02 95.6048 205.02C96.8048 205.02 97.7448 204.64 98.5048 203.86L99.8448 205.4C98.8848 206.54 97.3848 207.14 95.5448 207.14C91.9648 207.14 89.6448 204.84 89.6448 201.66C89.6448 198.48 91.9848 196.2 95.1648 196.2C98.2848 196.2 100.565 198.38 100.565 201.72ZM95.1648 198.2C93.5448 198.2 92.3648 199.24 92.1248 200.8H98.1848C97.9848 199.26 96.8048 198.2 95.1648 198.2ZM104.346 197.88C105.066 196.76 106.366 196.2 108.146 196.2V198.58C107.926 198.54 107.746 198.52 107.566 198.52C105.666 198.52 104.466 199.64 104.466 201.82V207H101.966V196.32H104.346V197.88ZM115.378 204.64L116.078 206.42C115.478 206.9 114.578 207.14 113.678 207.14C111.338 207.14 109.998 205.9 109.998 203.54V198.4H108.238V196.4H109.998V193.96H112.498V196.4H115.358V198.4H112.498V203.48C112.498 204.52 113.018 205.08 113.978 205.08C114.498 205.08 114.998 204.94 115.378 204.64ZM118.394 194.56C117.474 194.56 116.794 193.9 116.794 193.06C116.794 192.22 117.474 191.56 118.394 191.56C119.314 191.56 119.994 192.18 119.994 193C119.994 193.88 119.334 194.56 118.394 194.56ZM117.134 207V196.32H119.634V207H117.134ZM129.875 192.16H132.375V207H129.975V205.62C129.135 206.64 127.895 207.14 126.435 207.14C123.335 207.14 121.035 204.98 121.035 201.66C121.035 198.34 123.335 196.2 126.435 196.2C127.815 196.2 129.035 196.66 129.875 197.64V192.16ZM126.735 205C128.535 205 129.915 203.7 129.915 201.66C129.915 199.62 128.535 198.32 126.735 198.32C124.935 198.32 123.555 199.62 123.555 201.66C123.555 203.7 124.935 205 126.735 205ZM139.446 207.14C136.166 207.14 133.766 204.86 133.766 201.66C133.766 198.46 136.166 196.2 139.446 196.2C142.766 196.2 145.146 198.46 145.146 201.66C145.146 204.86 142.766 207.14 139.446 207.14ZM139.446 205C141.266 205 142.626 203.7 142.626 201.66C142.626 199.62 141.266 198.32 139.446 198.32C137.646 198.32 136.286 199.62 136.286 201.66C136.286 203.7 137.646 205 139.446 205Z" fill="white"/>
<defs>
<clipPath id="clip0_834_1582">
<rect width="209" height="181" fill="white" transform="translate(168)"/>
</clipPath>
<clipPath id="clip1_834_1582">
<rect width="209" height="180" fill="white" transform="translate(168 194)"/>
</clipPath>
<clipPath id="clip2_834_1582">
<rect width="208" height="180" fill="white" transform="translate(0 96)"/>
</clipPath>
<clipPath id="clip3_834_1582">
<rect width="208" height="181" fill="white" transform="translate(0 289)"/>
</clipPath>
</defs>
</svg>
