<svg width="1920" height="1080" viewBox="0 0 1920 1080" fill="none" xmlns="http://www.w3.org/2000/svg">
<rect width="1920" height="1080" fill="white"/>
<path d="M1531.72 418.404V523.502L1315.66 577.906V364L1531.72 418.404Z" fill="#A1F400"/>
<path d="M438.775 552.353V472.258L452.519 509.077L370.054 369.633H434.377L490.453 464.977H453.206L509.833 369.633H569.345L486.88 509.077L500.624 472.258V552.353H438.775Z" fill="#0F0F14"/>
<path d="M638.616 554.963C622.865 555.344 607.242 552.051 592.985 545.346C580.691 539.462 570.271 530.283 562.885 518.831C555.684 507.51 551.957 494.328 552.165 480.914C551.92 467.341 555.594 453.985 562.748 442.446C569.87 431.28 579.894 422.257 591.748 416.343C604.288 410.395 617.966 407.23 631.845 407.064C645.723 406.898 659.474 409.735 672.152 415.382C683.911 420.685 693.886 429.273 700.877 440.111C708.56 452.445 712.344 466.809 711.735 481.326C711.735 483.386 711.735 485.722 711.735 488.195C711.735 490.668 711.735 493.003 711.735 495.064H601.781V466.214H680.399L658.27 473.77C658.368 469.015 657.331 464.306 655.247 460.031C653.374 456.279 650.526 453.099 647 450.827C643.233 448.552 638.892 447.407 634.493 447.529C630.05 447.404 625.663 448.548 621.848 450.827C618.255 453.019 615.387 456.22 613.602 460.031C611.626 464.338 610.639 469.032 610.715 473.77V482.7C610.145 488.034 610.95 493.425 613.052 498.361C615.421 502.629 619.076 506.042 623.497 508.115C628.627 510.446 634.221 511.574 639.853 511.413C645.418 511.544 650.961 510.66 656.209 508.802C661.086 506.749 665.7 504.12 669.953 500.972L700.74 532.02C693.593 539.594 684.799 545.423 675.038 549.056C663.365 553.249 651.017 555.252 638.616 554.963Z" fill="#0F0F14"/>
<path d="M730.29 552.353V358.643H789.253V552.353H730.29Z" fill="#0F0F14"/>
<path d="M1004.49 407.551C1014.59 407.401 1024.58 409.662 1033.63 414.145C1042.38 418.864 1049.48 426.152 1053.97 435.027C1059.34 446.437 1061.88 458.971 1061.39 471.572V553.04H1002.43V481.051C1002.96 474.541 1001.37 468.034 997.89 462.504C996.584 460.716 994.864 459.27 992.878 458.289C990.891 457.308 988.697 456.822 986.482 456.871C983.135 456.807 979.841 457.714 976.999 459.482C973.982 461.462 971.672 464.348 970.402 467.725C968.55 472.587 967.708 477.776 967.928 482.974V552.628H908.827V481.051C909.384 474.505 907.947 467.944 904.704 462.229C903.371 460.402 901.607 458.932 899.569 457.949C897.531 456.966 895.282 456.502 893.022 456.597C889.538 456.475 886.105 457.46 883.216 459.41C880.327 461.36 878.13 464.174 876.941 467.45C874.996 472.293 874.06 477.482 874.192 482.7V552.353H815.092V409.612H871.306V450.827L860.448 439.149C865.083 429.085 872.652 420.657 882.164 414.969C891.326 409.603 901.783 406.847 912.401 407.001C924.26 406.837 935.894 410.235 945.799 416.755C955.974 424.205 962.909 435.266 965.179 447.667L947.174 444.782C951.978 433.621 959.9 424.081 969.989 417.305C980.256 410.682 992.271 407.285 1004.49 407.551Z" fill="#0F0F14"/>
<path d="M1165.02 554.963C1149.94 555.193 1135.04 551.751 1121.59 544.934C1109.58 539.021 1099.41 529.949 1092.18 518.694C1085.17 507.111 1081.46 493.832 1081.46 480.295C1081.46 466.758 1085.17 453.479 1092.18 441.897C1099.5 430.885 1109.66 422.056 1121.59 416.343C1135.17 410.02 1150.05 407.007 1165.02 407.551C1179.94 407.278 1194.71 410.476 1208.18 416.893C1220.17 422.757 1230.34 431.782 1237.59 442.996C1244.51 454.609 1248.17 467.876 1248.17 481.394C1248.17 494.913 1244.51 508.18 1237.59 519.793C1230.2 530.644 1220.05 539.324 1208.18 544.934C1194.79 551.647 1180 555.084 1165.02 554.963ZM1165.02 509.077C1169.17 509.106 1173.26 508.014 1176.84 505.917C1180.47 503.611 1183.38 500.325 1185.22 496.438C1187.38 491.555 1188.42 486.25 1188.25 480.914C1188.46 475.53 1187.42 470.171 1185.22 465.252C1183.3 461.494 1180.4 458.316 1176.84 456.047C1173.26 453.951 1169.17 452.859 1165.02 452.887C1160.91 452.856 1156.87 453.949 1153.34 456.047C1149.71 458.238 1146.8 461.436 1144.95 465.252C1142.7 470.158 1141.62 475.519 1141.79 480.914C1141.67 486.26 1142.75 491.566 1144.95 496.438C1146.71 500.383 1149.64 503.693 1153.34 505.917C1156.87 508.016 1160.91 509.108 1165.02 509.077Z" fill="#0F0F14"/>
<path d="M437.125 552.353V472.258L450.87 509.077L368.404 369.633H433.415L489.354 464.977H451.557L508.183 369.633H567.696L485.23 509.077L498.975 472.258V552.353H437.125Z" fill="#0F0F14"/>
<path d="M636.967 554.963C621.216 555.344 605.592 552.051 591.336 545.346C579.042 539.462 568.622 530.283 561.236 518.831C554.035 507.51 550.308 494.328 550.515 480.914C550.271 467.341 553.945 453.985 561.098 442.446C568.221 431.28 578.245 422.257 590.099 416.343C602.638 410.395 616.317 407.23 630.195 407.064C644.074 406.898 657.824 409.735 670.503 415.382C682.237 420.725 692.202 429.304 699.228 440.111C706.91 452.445 710.694 466.809 710.086 481.326C710.086 483.386 710.086 485.722 710.086 488.195C710.086 490.668 710.086 493.003 710.086 495.064H599.307V466.213H677.924L655.796 473.77C655.834 469.021 654.8 464.325 652.772 460.031C650.9 456.279 648.052 453.099 644.526 450.827C640.759 448.552 636.418 447.407 632.019 447.529C627.576 447.404 623.189 448.548 619.374 450.827C615.781 453.019 612.913 456.22 611.127 460.031C609.151 464.338 608.165 469.032 608.241 473.77V482.7C608.099 488.153 609.377 493.551 611.952 498.361C614.283 502.659 617.949 506.083 622.398 508.115C627.522 510.46 633.12 511.588 638.753 511.413C644.323 511.613 649.879 510.727 655.109 508.802C659.986 506.749 664.6 504.12 668.853 500.972L699.64 532.02C692.494 539.594 683.7 545.423 673.939 549.056C662.092 553.317 649.552 555.321 636.967 554.963Z" fill="#0F0F14"/>
<path d="M728.641 552.353V358.643H787.603V552.353H728.641Z" fill="#0F0F14"/>
<path d="M1002.84 407.551C1012.94 407.402 1022.93 409.662 1031.98 414.146C1040.94 418.774 1048.24 426.071 1052.87 435.028C1058.24 446.438 1060.78 458.972 1060.29 471.572V553.04H1000.78V481.051C1001.31 474.542 999.718 468.035 996.241 462.505C994.935 460.716 993.215 459.27 991.229 458.289C989.242 457.309 987.048 456.822 984.833 456.872C981.486 456.807 978.192 457.714 975.35 459.482C972.393 461.527 970.1 464.393 968.753 467.725C966.901 472.588 966.059 477.776 966.279 482.975V552.628H907.179V481.051C907.679 474.597 906.244 468.14 903.055 462.505C901.709 460.657 899.923 459.174 897.86 458.191C895.796 457.207 893.519 456.754 891.235 456.872C887.931 456.802 884.679 457.71 881.889 459.482C878.932 461.527 876.639 464.393 875.292 467.725C873.44 472.588 872.599 477.776 872.818 482.975V552.628H813.718V409.612H869.932V450.827L858.387 439.424C863.021 429.36 870.591 420.932 880.102 415.245C889.845 409.731 900.909 406.983 912.1 407.298C923.292 407.613 934.184 410.978 943.601 417.031C953.859 424.426 960.853 435.504 963.118 447.942L945.113 445.057C949.917 433.896 957.839 424.356 967.928 417.58C978.28 410.781 990.454 407.283 1002.84 407.551Z" fill="#0F0F14"/>
<path d="M1162.82 554.964C1148.12 555.017 1133.61 551.58 1120.49 544.935C1108.48 539.021 1098.31 529.95 1091.08 518.695C1084.07 507.112 1080.36 493.833 1080.36 480.296C1080.36 466.759 1084.07 453.48 1091.08 441.897C1098.32 430.683 1108.49 421.658 1120.49 415.794C1133.78 409.829 1148.26 407.008 1162.82 407.551C1177.74 407.279 1192.51 410.477 1205.98 416.893C1217.98 422.757 1228.14 431.783 1235.39 442.996C1242.5 454.547 1246.13 467.904 1245.84 481.464C1246.11 494.978 1242.48 508.286 1235.39 519.794C1228.15 530.57 1218.2 539.243 1206.53 544.935C1192.97 551.733 1177.98 555.172 1162.82 554.964ZM1162.82 509.078C1166.97 509.106 1171.06 508.015 1174.64 505.918C1178.27 503.612 1181.18 500.325 1183.02 496.438C1185.19 491.556 1186.22 486.25 1186.05 480.914C1186.28 475.574 1185.24 470.254 1183.02 465.39C1181.24 461.569 1178.37 458.352 1174.79 456.132C1171.2 453.911 1167.04 452.784 1162.82 452.888C1158.71 452.857 1154.67 453.95 1151.14 456.048C1147.47 458.256 1144.55 461.509 1142.75 465.39C1140.49 470.243 1139.41 475.563 1139.59 480.914C1139.47 486.261 1140.55 491.567 1142.75 496.438C1144.51 500.384 1147.44 503.694 1151.14 505.918C1154.67 508.016 1158.71 509.109 1162.82 509.078Z" fill="#0F0F14"/>
<path d="M808.22 752.246C807.143 752.328 806.061 752.159 805.06 751.754C804.058 751.349 803.164 750.718 802.447 749.911C801.648 749.15 801.016 748.233 800.59 747.216C800.165 746.199 799.954 745.105 799.973 744.003V742.354C799.928 741.249 800.126 740.147 800.553 739.126C800.981 738.105 801.627 737.19 802.447 736.447C804.016 734.841 806.118 733.864 808.357 733.699C812.775 734.023 817.162 732.756 820.727 730.127C822.953 726.715 823.924 722.636 823.476 718.587V652.093C823.457 650.991 823.667 649.897 824.093 648.88C824.519 647.863 825.151 646.946 825.95 646.186C826.694 645.405 827.59 644.782 828.582 644.357C829.574 643.932 830.643 643.713 831.722 643.713H840.106C841.207 643.71 842.296 643.928 843.311 644.352C844.326 644.777 845.246 645.4 846.016 646.186C846.815 646.946 847.447 647.863 847.873 648.88C848.299 649.897 848.509 650.991 848.49 652.093V718.587C848.998 723.197 848.54 727.863 847.143 732.286C845.747 736.71 843.444 740.794 840.381 744.278C830.761 750.236 819.511 753.024 808.22 752.246ZM840.106 609.779C841.215 609.802 842.309 610.044 843.323 610.493C844.338 610.941 845.253 611.585 846.016 612.39C846.798 613.134 847.421 614.029 847.846 615.021C848.271 616.013 848.49 617.081 848.49 618.16V620.633C848.422 622.833 847.516 624.925 845.958 626.482C844.401 628.039 842.308 628.944 840.106 629.013H831.722C830.629 629.021 829.546 628.792 828.549 628.342C827.553 627.891 826.666 627.229 825.95 626.403C825.168 625.659 824.546 624.763 824.12 623.771C823.695 622.78 823.476 621.712 823.476 620.633V618.16C823.476 617.081 823.695 616.013 824.12 615.021C824.546 614.029 825.168 613.134 825.95 612.39C826.688 611.59 827.579 610.946 828.571 610.498C829.562 610.049 830.634 609.805 831.722 609.779H840.106Z" fill="#FF9500"/>
<path d="M895.358 721.609C891.893 721.91 888.404 721.41 885.163 720.147C881.922 718.885 879.014 716.894 876.666 714.328C872.132 706.92 870.108 698.248 870.894 689.599V652.093C870.894 649.871 871.777 647.739 873.349 646.167C874.921 644.596 877.054 643.713 879.278 643.713H885.737C887.957 643.723 890.083 644.612 891.647 646.186C892.446 646.946 893.078 647.863 893.504 648.88C893.93 649.897 894.14 650.991 894.121 652.093V688.088C893.761 692.109 894.522 696.151 896.32 699.765C897.293 700.899 898.527 701.779 899.916 702.329C901.305 702.88 902.807 703.084 904.292 702.925C906.06 702.9 907.803 702.509 909.412 701.775C911.021 701.042 912.46 699.984 913.638 698.666C914.949 697.541 916.006 696.152 916.74 694.589C917.475 693.026 917.869 691.325 917.899 689.599V652.093C917.88 650.991 918.09 649.897 918.516 648.88C918.942 647.863 919.574 646.946 920.373 646.186C921.143 645.4 922.063 644.777 923.078 644.352C924.093 643.928 925.183 643.71 926.283 643.713H933.292C935.516 643.713 937.648 644.596 939.221 646.167C940.793 647.739 941.676 649.871 941.676 652.093V711.718C941.679 712.818 941.462 713.907 941.037 714.922C940.612 715.936 939.988 716.855 939.202 717.625C938.442 718.424 937.524 719.056 936.507 719.481C935.49 719.907 934.395 720.117 933.292 720.098H927.382C926.258 720.128 925.14 719.923 924.098 719.497C923.057 719.072 922.116 718.434 921.335 717.625C919.769 716.043 918.839 713.941 918.724 711.718V710.481C915.936 713.994 912.381 716.824 908.331 718.752C904.282 720.681 899.844 721.658 895.358 721.609Z" fill="#FF9500"/>
<path d="M969.44 720.098C968.337 720.117 967.242 719.907 966.225 719.481C965.208 719.056 964.29 718.424 963.53 717.625C962.03 716.023 961.195 713.912 961.193 711.718V652.093C961.166 649.894 962.005 647.772 963.53 646.186C964.29 645.387 965.208 644.755 966.225 644.33C967.242 643.904 968.337 643.694 969.44 643.713H975.35C976.465 643.657 977.58 643.836 978.622 644.238C979.663 644.641 980.609 645.257 981.397 646.048C983.018 647.649 983.954 649.816 984.008 652.093V653.192C986.774 649.777 990.273 647.028 994.246 645.149C998.22 643.27 1002.57 642.31 1006.96 642.339C1010.54 641.995 1014.14 642.501 1017.49 643.814C1020.83 645.127 1023.82 647.21 1026.2 649.895C1030.81 657.682 1032.87 666.709 1032.11 675.723V711.855C1032.12 712.955 1031.9 714.044 1031.47 715.059C1031.05 716.073 1030.43 716.993 1029.64 717.763C1028.89 718.544 1028 719.166 1027.01 719.591C1026.01 720.016 1024.95 720.236 1023.87 720.236H1017.41C1016.3 720.254 1015.21 720.044 1014.19 719.619C1013.18 719.193 1012.26 718.561 1011.5 717.763C1010.71 716.993 1010.09 716.073 1009.66 715.059C1009.24 714.044 1009.02 712.955 1009.02 711.855V676.273C1009.38 672.104 1008.57 667.918 1006.69 664.183C1005.64 662.989 1004.31 662.066 1002.83 661.492C1001.35 660.919 999.746 660.71 998.165 660.886C994.54 660.937 991.082 662.419 988.544 665.007C987.259 666.154 986.22 667.548 985.488 669.106C984.755 670.664 984.346 672.354 984.283 674.075V711.718C984.286 712.818 984.069 713.907 983.644 714.922C983.219 715.936 982.595 716.855 981.809 717.625C981.075 718.42 980.182 719.051 979.187 719.477C978.192 719.903 977.119 720.115 976.037 720.098H969.44Z" fill="#FF9500"/>
<path d="M1063.31 629.013C1062.2 629.006 1061.1 628.771 1060.09 628.322C1059.07 627.873 1058.16 627.219 1057.4 626.403C1056.62 625.659 1056 624.763 1055.57 623.771C1055.15 622.78 1054.93 621.712 1054.93 620.633V618.16C1054.93 617.081 1055.15 616.013 1055.57 615.021C1056 614.029 1056.62 613.134 1057.4 612.39C1058.96 610.79 1061.08 609.855 1063.31 609.779H1071.56C1072.67 609.786 1073.77 610.022 1074.79 610.471C1075.8 610.92 1076.72 611.573 1077.47 612.39C1078.25 613.134 1078.87 614.029 1079.3 615.021C1079.72 616.013 1079.94 617.081 1079.94 618.16V620.633C1079.94 621.712 1079.72 622.78 1079.3 623.771C1078.87 624.763 1078.25 625.659 1077.47 626.403C1076.73 627.24 1075.82 627.907 1074.8 628.358C1073.78 628.808 1072.67 629.032 1071.56 629.013H1063.31ZM1063.31 720.098C1061.09 720.089 1058.97 719.199 1057.4 717.625C1056.62 716.856 1055.99 715.936 1055.57 714.922C1055.14 713.907 1054.93 712.818 1054.93 711.718V652.093C1054.91 650.991 1055.12 649.897 1055.55 648.88C1055.97 647.863 1056.6 646.946 1057.4 646.186C1058.97 644.612 1061.09 643.723 1063.31 643.713H1071.56C1073.78 643.713 1075.92 644.596 1077.49 646.168C1079.06 647.739 1079.94 649.871 1079.94 652.093V711.718C1079.95 712.818 1079.73 713.907 1079.3 714.922C1078.88 715.936 1078.26 716.856 1077.47 717.625C1076.71 718.424 1075.79 719.056 1074.77 719.481C1073.76 719.907 1072.66 720.117 1071.56 720.098H1063.31Z" fill="#FF9500"/>
<path d="M1164.88 711.168C1156.96 717.896 1146.9 721.59 1136.5 721.59C1126.1 721.59 1116.04 717.896 1108.12 711.168C1101.04 703.28 1097.38 692.902 1097.95 682.318C1097.49 676.959 1098.14 671.564 1099.84 666.462C1101.54 661.359 1104.26 656.658 1107.84 652.643C1115.77 645.915 1125.83 642.222 1136.23 642.222C1146.62 642.222 1156.68 645.915 1164.61 652.643C1168.24 656.637 1171.03 661.326 1172.8 666.426C1174.57 671.526 1175.29 676.932 1174.92 682.318C1175.39 692.864 1171.8 703.191 1164.88 711.168ZM1147.43 664.183C1146.15 662.477 1144.49 661.092 1142.58 660.138C1140.67 659.185 1138.57 658.688 1136.43 658.688C1134.3 658.688 1132.19 659.185 1130.29 660.138C1128.38 661.092 1126.72 662.477 1125.44 664.183C1122.51 669.759 1121.18 676.034 1121.59 682.318C1121.15 688.396 1122.39 694.477 1125.16 699.903C1126.44 701.609 1128.1 702.994 1130.01 703.948C1131.92 704.902 1134.02 705.398 1136.16 705.398C1138.29 705.398 1140.4 704.902 1142.3 703.948C1144.21 702.994 1145.87 701.609 1147.15 699.903C1150.02 694.504 1151.35 688.421 1151 682.318C1151.5 676.06 1150.26 669.786 1147.43 664.183Z" fill="#FF9500"/>
<path d="M1197.46 720.098C1196.38 720.098 1195.31 719.879 1194.32 719.454C1193.32 719.029 1192.43 718.407 1191.68 717.625C1190.9 716.855 1190.27 715.936 1189.85 714.921C1189.42 713.907 1189.21 712.818 1189.21 711.718V652.093C1189.19 650.991 1189.4 649.897 1189.83 648.88C1190.25 647.863 1190.89 646.946 1191.68 646.186C1192.43 645.404 1193.32 644.782 1194.32 644.357C1195.31 643.932 1196.38 643.713 1197.46 643.713H1204.74C1205.82 643.713 1206.89 643.932 1207.88 644.357C1208.87 644.782 1209.77 645.404 1210.51 646.186C1211.31 646.946 1211.94 647.863 1212.37 648.88C1212.8 649.897 1213.01 650.991 1212.99 652.093V658.276C1216.02 654.329 1219.86 651.066 1224.24 648.699C1228.62 646.332 1233.45 644.914 1238.41 644.537C1239.47 644.388 1240.55 644.498 1241.55 644.857C1242.56 645.216 1243.46 645.813 1244.19 646.598C1245 647.379 1245.63 648.32 1246.06 649.36C1246.49 650.401 1246.69 651.519 1246.66 652.643V653.742C1246.68 654.844 1246.47 655.938 1246.04 656.955C1245.62 657.972 1244.99 658.889 1244.19 659.649C1242.64 661.288 1240.53 662.271 1238.28 662.397C1231.34 662.803 1224.79 665.735 1219.86 670.64C1217.63 673.004 1215.9 675.79 1214.77 678.834C1213.63 681.878 1213.12 685.118 1213.26 688.363V712.267C1213.27 713.367 1213.05 714.456 1212.62 715.471C1212.2 716.486 1211.57 717.405 1210.79 718.175C1210.04 718.956 1209.15 719.578 1208.16 720.003C1207.16 720.428 1206.1 720.648 1205.02 720.648L1197.46 720.098Z" fill="#FF9500"/>
</svg>
