<svg xmlns="http://www.w3.org/2000/svg" viewBox="0 0 105.21 46.99"><defs><style>.cls-1{fill:#4154a1;stroke:#1d1d1b;stroke-miterlimit:10;}.cls-2{fill:none;}.cls-3{fill:#0f0f14;}.cls-4{fill:#1628f4;}</style></defs><g id="Logos_Finales" data-name="Logos Finales"><rect class="cls-1" x="-1.66" y="-4.28" width="112.85" height="58.47"/><rect class="cls-2" width="105.21" height="46.99"/><path class="cls-3" d="M15.08,36.46V30.63l1,2.68-6-10.15h4.73l4.09,6.94H16.12l4.13-6.94h4.33l-6,10.15,1-2.68v5.83Z"/><path class="cls-3" d="M29.62,36.65A7.35,7.35,0,0,1,26.3,36,5.39,5.39,0,0,1,24.1,34a5.4,5.4,0,0,1,0-5.56,5.29,5.29,0,0,1,2.1-1.9,7,7,0,0,1,5.86-.07,5,5,0,0,1,2.09,1.8,5.34,5.34,0,0,1,.78,3c0,.15,0,.32,0,.5s0,.35,0,.5h-8V30.19H32.6L31,30.74a2.18,2.18,0,0,0-.22-1,1.61,1.61,0,0,0-.59-.67,1.7,1.7,0,0,0-.92-.23,1.72,1.72,0,0,0-.92.23,1.56,1.56,0,0,0-.6.67,2.31,2.31,0,0,0-.21,1v.65a2.29,2.29,0,0,0,.27,1.14,1.69,1.69,0,0,0,.76.71,2.73,2.73,0,0,0,1.2.24,3.12,3.12,0,0,0,1.19-.19,4.78,4.78,0,0,0,1-.57L34.16,35a4.91,4.91,0,0,1-1.88,1.24A7.31,7.31,0,0,1,29.62,36.65Z"/><path class="cls-3" d="M36.28,36.46V22.36h4.3v14.1Z"/><path class="cls-3" d="M56.23,25.88a4.59,4.59,0,0,1,2.12.48,3.48,3.48,0,0,1,1.48,1.51,5.59,5.59,0,0,1,.55,2.66v5.93h-4.3V31.27a2.28,2.28,0,0,0-.32-1.37,1,1,0,0,0-.84-.41,1.22,1.22,0,0,0-.68.19,1.35,1.35,0,0,0-.49.6,2.79,2.79,0,0,0-.18,1.11v5.07H49.28V31.27A2.37,2.37,0,0,0,49,29.9a1,1,0,0,0-.86-.41,1.22,1.22,0,0,0-.68.19,1.29,1.29,0,0,0-.49.6,2.79,2.79,0,0,0-.18,1.11v5.07H42.48V26.07h4.08v3l-.83-.83a4,4,0,0,1,1.57-1.76,4.49,4.49,0,0,1,4.63.13,3.64,3.64,0,0,1,1.42,2.25L52,28.63a4.62,4.62,0,0,1,1.67-2A4.4,4.4,0,0,1,56.23,25.88Z"/><path class="cls-3" d="M67.92,36.65A6.83,6.83,0,0,1,64.79,36a5.43,5.43,0,0,1-2.14-1.91,5.46,5.46,0,0,1,0-5.59,5.41,5.41,0,0,1,2.14-1.9,7.54,7.54,0,0,1,6.26,0,5.27,5.27,0,0,1,2.14,1.9,5.46,5.46,0,0,1,0,5.59A5.3,5.3,0,0,1,71.05,36,6.83,6.83,0,0,1,67.92,36.65Zm0-3.34a1.64,1.64,0,0,0,.85-.23,1.53,1.53,0,0,0,.61-.69,2.59,2.59,0,0,0,.23-1.13,2.47,2.47,0,0,0-.23-1.13,1.56,1.56,0,0,0-.61-.68,1.64,1.64,0,0,0-.85-.23,1.58,1.58,0,0,0-1.47.91,2.47,2.47,0,0,0-.22,1.13,2.59,2.59,0,0,0,.22,1.13,1.66,1.66,0,0,0,.61.69A1.68,1.68,0,0,0,67.92,33.31Z"/><path class="cls-4" d="M23.23,17.86c.05,0,.11-.06.16-.17a1.41,1.41,0,0,0,.08-.55V11.38a1.21,1.21,0,0,0-.09-.55c-.05-.1-.11-.16-.16-.17h3.93a4.19,4.19,0,0,1,1.7.29,1.92,1.92,0,0,1,.91.84A2.78,2.78,0,0,1,30,13.05a2.77,2.77,0,0,1-.28,1.3,1.92,1.92,0,0,1-.91.84,4,4,0,0,1-1.69.29H25v1.66a1.41,1.41,0,0,0,.08.55c.06.11.12.17.17.17Zm2.24-3.44h1.26a3,3,0,0,0,1.14-.17.92.92,0,0,0,.52-.48,1.6,1.6,0,0,0,.14-.72,1.54,1.54,0,0,0-.15-.72,1,1,0,0,0-.54-.43,3.38,3.38,0,0,0-1.07-.14h-1.3a1,1,0,0,0-.43.05s-.06.12-.06.28v2c0,.16,0,.26.06.29A1,1,0,0,0,25.47,14.42Z"/><path class="cls-4" d="M31,17.86c.06,0,.11-.06.16-.17a1.41,1.41,0,0,0,.08-.55V13.08a1.39,1.39,0,0,0-.08-.54c-.05-.11-.1-.17-.16-.18a5.82,5.82,0,0,0,1-.07,3.77,3.77,0,0,0,.66-.17v.57l0,.2,0,0a1.74,1.74,0,0,1,.38-.39,1.85,1.85,0,0,1,.56-.29,2.09,2.09,0,0,1,.74-.12,2.79,2.79,0,0,1,1,.17,1.61,1.61,0,0,1,.61.33l-.28,1.21v.36a2.47,2.47,0,0,0-.46-.45,3.14,3.14,0,0,0-.67-.38,2,2,0,0,0-.77-.16,1,1,0,0,0-.79.36,1.79,1.79,0,0,0-.32,1.18v2.4a1.41,1.41,0,0,0,.08.55c0,.11.11.17.16.17Z"/><path class="cls-4" d="M39.63,18a4.61,4.61,0,0,1-1.56-.22,2.16,2.16,0,0,1-1.49-1.52,4.71,4.71,0,0,1-.14-1.18,2.94,2.94,0,0,1,.77-2.14,3.06,3.06,0,0,1,2.3-.8,3.67,3.67,0,0,1,1.45.25,1.94,1.94,0,0,1,.84.65,2.27,2.27,0,0,1,.4.88,4.47,4.47,0,0,1,.11.95v.56s-.11-.05-.33-.08-.59,0-1.11,0h-3a1.61,1.61,0,0,0,.49,1.26,2.08,2.08,0,0,0,1.49.46,4.29,4.29,0,0,0,1.44-.21,2.53,2.53,0,0,0,.82-.42v.29l.12.83a3.9,3.9,0,0,1-.91.32A7,7,0,0,1,39.63,18ZM38.3,14.42h2.64a1.49,1.49,0,0,0-.13-.61,1.12,1.12,0,0,0-.43-.52,1.51,1.51,0,0,0-.87-.21,1.89,1.89,0,0,0-.83.17,1.3,1.3,0,0,0-.53.4.84.84,0,0,0-.19.53.22.22,0,0,0,.08.18A.39.39,0,0,0,38.3,14.42Z"/><path class="cls-4" d="M43.24,17.86c.06,0,.11-.06.17-.17a1.45,1.45,0,0,0,.07-.55V13.08a1.43,1.43,0,0,0-.07-.54c-.06-.11-.11-.17-.17-.18a5.94,5.94,0,0,0,1-.07,4.34,4.34,0,0,0,.66-.17v.74l0,.15,0,0a2.77,2.77,0,0,1,.34-.39,1.76,1.76,0,0,1,.57-.37,2.36,2.36,0,0,1,.91-.16,2.25,2.25,0,0,1,1.71.64,2.82,2.82,0,0,1,.59,2v2.39a1.41,1.41,0,0,0,.08.55c.05.11.11.17.16.17H47.38c.06,0,.11-.06.17-.17a1.45,1.45,0,0,0,.07-.55V14.79a2.58,2.58,0,0,0-.16-1,1,1,0,0,0-.44-.53,1.4,1.4,0,0,0-.66-.15,1.6,1.6,0,0,0-.75.18,1.39,1.39,0,0,0-.54.58,2.42,2.42,0,0,0-.19,1.06v2.24a1.45,1.45,0,0,0,.07.55c.06.11.11.17.17.17Zm8.26,0c.06,0,.11-.06.16-.17a1.41,1.41,0,0,0,.08-.55V14.82a2.79,2.79,0,0,0-.15-1,1.06,1.06,0,0,0-.43-.55,1.25,1.25,0,0,0-.68-.18,1.4,1.4,0,0,0-1.07.44A2,2,0,0,0,49,14.93l-.62-.8a2.12,2.12,0,0,1,.18-.62,2.45,2.45,0,0,1,.44-.66,2.24,2.24,0,0,1,.74-.52,2.54,2.54,0,0,1,1.08-.21,2.72,2.72,0,0,1,1.26.28,1.78,1.78,0,0,1,.78.86,3.86,3.86,0,0,1,.26,1.53v2.35a1.41,1.41,0,0,0,.08.55c0,.11.1.17.16.17Z"/><path class="cls-4" d="M55.1,11.18a.82.82,0,0,1-.6-.22.69.69,0,0,1-.22-.53.72.72,0,0,1,.21-.53.82.82,0,0,1,.61-.21.81.81,0,0,1,.6.21.77.77,0,0,1,0,1.06A.85.85,0,0,1,55.1,11.18Zm-.82,6.68c.06,0,.11-.06.17-.17a1.41,1.41,0,0,0,.08-.55V13a1.39,1.39,0,0,0-.08-.54c-.05-.11-.1-.17-.16-.18h1.62v4.9a1.41,1.41,0,0,0,.08.55c0,.11.1.17.16.17Z"/><path class="cls-4" d="M59.56,18a2.7,2.7,0,0,1-1.21-.25,1.6,1.6,0,0,1-.78-.85,4,4,0,0,1-.28-1.68V13a1.27,1.27,0,0,0-.08-.55c-.05-.11-.1-.17-.16-.17h1.89c-.06,0-.12.06-.18.17a1.24,1.24,0,0,0-.09.55v2.4A1.83,1.83,0,0,0,59,16.65a1.11,1.11,0,0,0,.85.36,1.55,1.55,0,0,0,1-.28A1.82,1.82,0,0,0,61.4,16a2.69,2.69,0,0,0,.2-1.05V13a1.39,1.39,0,0,0-.08-.54c-.05-.11-.1-.17-.16-.18H63v4.9a1.41,1.41,0,0,0,.08.55c0,.11.1.17.16.17H61.6v-.64l0-.24,0,0a1.68,1.68,0,0,1-.26.33,2.22,2.22,0,0,1-.43.34,2.44,2.44,0,0,1-.59.25A2.59,2.59,0,0,1,59.56,18Z"/><path class="cls-4" d="M64.18,17.86s.11-.06.16-.17a1.41,1.41,0,0,0,.08-.55V13.08a1.39,1.39,0,0,0-.08-.54c0-.11-.11-.17-.16-.18a5.9,5.9,0,0,0,1-.07,3.77,3.77,0,0,0,.66-.17v.74l0,.15,0,0a3.62,3.62,0,0,1,.34-.39,1.76,1.76,0,0,1,.57-.37,2.39,2.39,0,0,1,.91-.16,2.22,2.22,0,0,1,1.71.64,2.82,2.82,0,0,1,.6,2v2.39a1.24,1.24,0,0,0,.08.55c0,.11.1.17.16.17H68.32c.06,0,.11-.06.16-.17a1.41,1.41,0,0,0,.08-.55V14.79a2.77,2.77,0,0,0-.16-1,1,1,0,0,0-.45-.53,1.36,1.36,0,0,0-.65-.15,1.6,1.6,0,0,0-.75.18,1.27,1.27,0,0,0-.54.58,2.41,2.41,0,0,0-.2,1.06v2.24a1.41,1.41,0,0,0,.08.55c0,.11.1.17.16.17Zm8.25,0c.06,0,.11-.06.17-.17a1.45,1.45,0,0,0,.07-.55V14.82a2.59,2.59,0,0,0-.15-1,1.06,1.06,0,0,0-.43-.55,1.22,1.22,0,0,0-.67-.18,1.39,1.39,0,0,0-1.07.44,2,2,0,0,0-.41,1.41l-.63-.8a1.89,1.89,0,0,1,.19-.62,2.45,2.45,0,0,1,.44-.66,2.14,2.14,0,0,1,.74-.52,2.52,2.52,0,0,1,1.07-.21A2.67,2.67,0,0,1,73,12.4a1.78,1.78,0,0,1,.78.86,3.69,3.69,0,0,1,.26,1.53v2.35a1.41,1.41,0,0,0,.08.55c.05.11.11.17.16.17Z"/><polygon class="cls-4" points="79.12 27.37 94.94 31.19 81.76 40.38 79.12 27.37"/></g></svg>