<svg width="1920" height="1080" viewBox="0 0 1920 1080" fill="none" xmlns="http://www.w3.org/2000/svg">
<rect width="1920" height="1080" fill="white"/>
<g clip-path="url(#clip0_624_1377)">
<path d="M736.541 552.275V471.616L750.331 508.631L667.586 368.583H732.817L789.084 464.296H751.021L807.84 368.583H867.554L784.809 508.631L798.6 471.616V552.275H736.541Z" fill="#0F0F14"/>
<path d="M937.06 554.9C921.477 555.133 906.048 551.778 891.964 545.094C879.416 539.417 868.712 530.325 861.072 518.852C853.91 507.302 850.268 493.911 850.591 480.318C850.365 466.719 854.051 453.342 861.21 441.784C868.319 430.527 878.387 421.447 890.309 415.543C903.13 409.069 917.325 405.799 931.682 406.013C945.195 405.919 958.565 408.795 970.848 414.438C982.611 419.892 992.601 428.556 999.671 439.437C1007.43 451.816 1011.23 466.271 1010.57 480.871C1010.57 482.943 1010.57 485.291 1010.57 487.777C1010.57 490.263 1010.57 492.749 1010.57 494.82H900.239V465.678H979.123L956.919 473.275C956.934 468.503 955.898 463.788 953.885 459.463C951.965 455.756 949.113 452.614 945.611 450.348C941.831 448.061 937.475 446.91 933.061 447.033C928.381 446.575 923.672 447.538 919.546 449.795C915.981 451.987 913.111 455.148 911.271 458.911C909.306 463.246 908.317 467.961 908.375 472.722V481.561C908.221 487.029 909.455 492.447 911.961 497.306C914.367 501.609 918.022 505.077 922.442 507.251C927.669 509.479 933.312 510.562 938.991 510.427C944.58 510.629 950.154 509.738 955.402 507.803C960.354 505.859 964.999 503.207 969.193 499.931L1000.08 531.145C992.909 538.786 984.09 544.69 974.296 548.409C962.383 552.829 949.764 555.03 937.06 554.9Z" fill="#0F0F14"/>
<path d="M1029.05 552.276V357.534H1088.21V552.276H1029.05Z" fill="#0F0F14"/>
<path d="M1304.17 406.012C1314.32 405.91 1324.34 408.23 1333.41 412.78C1342.24 417.405 1349.38 424.704 1353.82 433.635C1359.09 445.135 1361.5 457.739 1360.86 470.373V552.275H1301.55V480.594C1302.2 473.928 1300.65 467.234 1297.14 461.534C1295.83 459.736 1294.11 458.282 1292.11 457.296C1290.12 456.31 1287.92 455.821 1285.7 455.871C1282.34 455.852 1279.05 456.76 1276.18 458.495C1273.21 460.551 1270.91 463.432 1269.56 466.782C1267.71 471.674 1266.87 476.888 1267.08 482.113V552.275H1207.78V480.594C1208.35 473.968 1206.9 467.325 1203.64 461.534C1202.29 459.677 1200.5 458.186 1198.43 457.197C1196.35 456.208 1194.07 455.753 1191.78 455.871C1188.47 455.87 1185.23 456.778 1182.4 458.495C1179.43 460.551 1177.13 463.432 1175.78 466.782C1173.87 471.656 1173.02 476.884 1173.3 482.113V552.275H1114V408.36H1170.4V449.794L1158.82 438.193C1163.83 428.049 1171.76 419.633 1181.57 414.023C1190.79 408.692 1201.27 405.926 1211.91 406.012C1223.8 405.802 1235.45 409.275 1245.29 415.956C1255.43 423.44 1262.25 434.588 1264.32 447.032L1246.25 444.132C1251.04 432.89 1259 423.291 1269.15 416.509C1279.48 409.519 1291.7 405.856 1304.17 406.012Z" fill="#0F0F14"/>
<path d="M1465.25 554.9C1450.34 555.236 1435.57 551.917 1422.23 545.232C1410.18 539.287 1399.97 530.167 1392.71 518.852C1385.68 507.234 1381.96 493.906 1381.96 480.318C1381.96 466.73 1385.68 453.402 1392.71 441.784C1399.94 430.478 1410.16 421.396 1422.23 415.543C1435.6 408.968 1450.36 405.7 1465.25 406.013C1480.23 405.736 1495.07 409.001 1508.56 415.543C1520.61 421.362 1530.79 430.455 1537.93 441.784C1545.19 453.3 1548.88 466.706 1548.55 480.318C1548.88 493.93 1545.19 507.337 1537.93 518.852C1530.76 530.19 1520.59 539.32 1508.56 545.232C1495.11 551.887 1480.25 555.203 1465.25 554.9ZM1465.25 508.632C1469.42 508.687 1473.52 507.511 1477.02 505.251C1480.53 502.992 1483.3 499.748 1484.97 495.925C1487.26 491.05 1488.34 485.699 1488.15 480.318C1488.39 474.934 1487.3 469.573 1484.97 464.711C1483.18 460.907 1480.33 457.706 1476.75 455.499C1473.18 453.292 1469.04 452.174 1464.84 452.281C1460.65 452.209 1456.52 453.341 1452.95 455.544C1449.39 457.747 1446.52 460.929 1444.7 464.711C1442.44 469.593 1441.36 474.939 1441.53 480.318C1441.41 485.693 1442.49 491.028 1444.7 495.925C1446.45 499.781 1449.29 503.039 1452.87 505.297C1456.45 507.556 1460.61 508.715 1464.84 508.632H1465.25Z" fill="#0F0F14"/>
<path d="M1148.34 694.396L1141.17 719.671H1082.69V718.704L1087.38 707.24V633.763L1082.69 622.3V621.333H1113.58V622.3L1107.24 633.763V713.455C1122.56 712.379 1136.84 705.28 1146.96 693.705L1148.34 694.396Z" fill="#7458BC"/>
<path d="M1236.74 707.379C1235.99 711.187 1233.97 714.627 1231.01 717.137C1228.06 719.646 1224.34 721.075 1220.46 721.19C1212.74 721.19 1208.74 715.942 1208.05 705.859C1206.02 710.446 1202.72 714.354 1198.54 717.12C1194.36 719.887 1189.48 721.395 1184.47 721.466C1168.33 721.466 1160.34 709.312 1160.34 690.529V662.353L1155.78 651.304V650.337L1178.54 644.122H1179.37V687.766C1179.37 700.749 1184.06 707.102 1193.16 707.102C1198.32 706.76 1203.21 704.609 1206.95 701.025V662.353L1202.4 651.304V650.337L1225.15 644.122H1225.98V698.401C1225.98 704.754 1227.5 707.931 1231.22 707.931C1232.4 708.015 1233.58 707.672 1234.53 706.964L1236.74 707.379Z" fill="#7458BC"/>
<path d="M1307.9 659.867L1290.66 681.413L1319.48 718.703V719.67H1286.66V718.703L1290.11 708.207L1276.32 689.561L1263.49 707.931L1266.94 718.703V719.67H1242.53V718.703L1256.32 704.892L1272.18 684.589L1243.49 647.022V646.193H1276.45V647.022L1272.87 658.071L1286.66 676.302L1299.62 657.795L1296.18 647.022V646.193H1320.31V647.022L1307.9 659.867Z" fill="#7458BC"/>
<path d="M1410.36 707.379C1409.57 711.187 1407.51 714.617 1404.54 717.121C1401.56 719.624 1397.84 721.057 1393.95 721.19C1386.37 721.19 1382.23 715.942 1381.68 705.859C1379.63 710.457 1376.3 714.37 1372.1 717.136C1367.89 719.901 1362.99 721.404 1357.96 721.466C1341.82 721.466 1333.96 709.312 1333.96 690.529V662.353L1329.27 651.304V650.337L1352.03 644.122H1352.99V687.766C1352.99 700.749 1357.68 707.102 1366.79 707.102C1372.19 706.923 1377.35 704.76 1381.27 701.025V662.353L1376.58 651.304V650.337L1399.33 644.122H1400.3V698.401C1400.3 704.754 1401.68 707.931 1405.4 707.931C1406.62 707.991 1407.83 707.652 1408.85 706.964L1410.36 707.379Z" fill="#7458BC"/>
<path d="M1467.46 662.353H1466.49C1464.11 660.686 1461.26 659.816 1458.36 659.867C1453.27 660.298 1448.44 662.328 1444.57 665.668V707.102L1451.05 718.565V719.532H1420.43V718.565L1424.98 707.102V662.353L1420.43 651.304V650.337L1443.6 644.122H1444.43V660.281C1446.13 655.952 1448.96 652.159 1452.62 649.293C1456.29 646.428 1460.65 644.595 1465.25 643.984C1468.3 643.85 1471.29 644.832 1473.67 646.746L1467.46 662.353Z" fill="#7458BC"/>
<path d="M1556 647.022L1549.65 658.486L1532 713.731C1529.87 720.629 1527.15 727.329 1523.86 733.758C1521.55 738.796 1517.77 743.019 1513.02 745.876C1508.27 748.734 1502.78 750.094 1497.25 749.779C1491.56 749.88 1485.96 748.346 1481.11 745.36L1487.59 730.167H1488.42C1492.45 732.19 1496.88 733.275 1501.38 733.344C1511.59 733.344 1518.62 729.615 1523.59 716.079V714.698L1508.83 718.289H1507.87L1484.97 659.038L1477.8 647.022V646.193H1507.04V647.022L1504.14 658.347L1524.55 709.035H1526.35L1538.76 658.209L1534.76 647.022V646.193H1556.55L1556 647.022Z" fill="#7458BC"/>
<path d="M458.24 358.363L361.841 505.455L385.975 542.056V542.194L410.11 578.932L432.589 613.184L482.374 689.286L532.159 613.184L554.638 578.932L578.635 542.194L554.638 505.455L530.504 468.717L506.508 431.978L482.374 395.24V395.102L458.24 358.363Z" fill="#7458BC"/>
</g>
<defs>
<clipPath id="clip0_624_1377">
<rect width="1450.94" height="649" fill="white" transform="translate(230 215)"/>
</clipPath>
</defs>
</svg>
