<svg width="187" height="77" viewBox="0 0 187 77" fill="none" xmlns="http://www.w3.org/2000/svg">
<path d="M118.642 76.7217C117.289 76.7635 115.95 76.4314 114.773 75.7618C113.723 75.1729 112.863 74.2943 112.297 73.2305C111.73 72.1302 111.441 70.9077 111.454 69.6696C111.418 68.0445 111.777 66.4349 112.499 64.9786C113.149 63.6478 114.159 62.5266 115.416 61.7428C116.745 60.926 118.281 60.5094 119.841 60.543C120.972 60.5343 122.093 60.7528 123.137 61.1854C124.036 61.5875 124.819 62.2107 125.412 62.9969C125.995 63.7587 126.357 64.6668 126.457 65.6211L123.106 66.2868C123.106 65.4749 122.788 64.6954 122.219 64.1162C121.65 63.5371 120.877 63.2046 120.066 63.1904H119.756C119.051 63.1846 118.357 63.3663 117.744 63.7168C117.148 64.0831 116.624 64.5553 116.197 65.1102C115.732 65.7443 115.386 66.4577 115.176 67.2157C114.936 68.0484 114.819 68.9115 114.828 69.778C114.806 70.5423 114.965 71.3009 115.292 71.9919C115.567 72.6339 116.035 73.1748 116.63 73.5401C117.3 73.9424 118.07 74.1439 118.851 74.1207C119.575 74.1218 120.282 73.909 120.886 73.5092C121.54 73.0979 122.025 72.4665 122.255 71.7287L125.35 72.8357C124.829 74.0759 123.905 75.104 122.727 75.7541C121.475 76.4323 120.065 76.7661 118.642 76.7217Z" fill="#FB3429"/>
<path d="M134.519 60.8374L130.883 76.4356H127.556L131.169 60.8374H134.519ZM133.745 58.2132C133.206 58.2361 132.677 58.0598 132.26 57.7177C132.067 57.5511 131.92 57.3375 131.833 57.0975C131.746 56.8575 131.723 56.5993 131.765 56.3476C131.747 56.0348 131.797 55.7219 131.912 55.4305C132.027 55.1391 132.203 54.8762 132.43 54.66C132.892 54.2644 133.486 54.0571 134.094 54.0794C134.649 54.0367 135.201 54.2022 135.641 54.5439C135.819 54.715 135.957 54.9245 136.043 55.1565C136.128 55.3885 136.16 55.6369 136.136 55.8831C136.154 56.1928 136.106 56.5028 135.996 56.7927C135.886 57.0826 135.715 57.3459 135.496 57.5652C135.277 57.7845 135.014 57.955 134.724 58.0653C134.434 58.1757 134.125 58.2234 133.815 58.2054L133.745 58.2132Z" fill="#FB3429"/>
<path d="M135.888 76.4345L139.618 60.8363H142.535L141.862 64.7765L141.544 64.5365C141.946 63.3201 142.769 62.2877 143.865 61.6259C144.958 60.944 146.222 60.5894 147.51 60.6041C148.533 60.5848 149.541 60.853 150.419 61.3782C151.228 61.8859 151.837 62.6568 152.144 63.5611C152.477 64.6932 152.477 65.8971 152.144 67.0291L149.924 76.5351H146.573L148.763 67.1762C148.929 66.6963 148.983 66.185 148.923 65.6809C148.863 65.1768 148.689 64.6929 148.415 64.2656C148.136 63.9145 147.774 63.6376 147.363 63.4594C146.951 63.2812 146.502 63.2071 146.055 63.2438C145.269 63.2355 144.495 63.4359 143.811 63.8243C143.137 64.2207 142.575 64.7829 142.179 65.4577C141.691 66.2931 141.336 67.1993 141.126 68.1438L139.208 76.419L135.888 76.4345Z" fill="#FB3429"/>
<path d="M162.551 76.7224C161.22 76.7584 159.903 76.4377 158.737 75.7935C157.706 75.1972 156.857 74.3298 156.284 73.2854C155.688 72.1862 155.387 70.9515 155.41 69.7013C155.391 68.1211 155.729 66.5571 156.4 65.1264C157.057 63.7083 158.119 62.5164 159.452 61.7009C160.785 60.8854 162.329 60.4828 163.89 60.5437C165.079 60.5213 166.253 60.8038 167.302 61.3642C168.239 61.8896 168.998 62.6818 169.484 63.6401C170.009 64.6865 170.274 65.8443 170.257 67.0152C170.288 67.443 170.288 67.8724 170.257 68.3002C170.218 68.7499 170.119 69.1923 169.963 69.6162H157.329V67.0461H168.083L166.853 67.9209C166.94 67.6858 166.999 67.4417 167.031 67.1932V66.5197C167.047 65.9036 166.906 65.2937 166.621 64.7471C166.373 64.2506 165.979 63.8425 165.491 63.5782C164.939 63.3013 164.329 63.1606 163.712 63.1679C162.877 63.1518 162.053 63.3547 161.321 63.7562C160.682 64.1324 160.15 64.6652 159.774 65.3044C159.374 65.9699 159.096 66.7012 158.953 67.4642C158.785 68.227 158.697 69.0053 158.69 69.7865C158.674 70.5771 158.855 71.3593 159.217 72.0623C159.55 72.6782 160.045 73.1919 160.648 73.5486C161.307 73.9072 162.048 74.0885 162.799 74.075C163.643 74.1144 164.479 73.8899 165.19 73.4325C165.795 73.0344 166.302 72.5053 166.675 71.8843L169.36 73.3164C168.935 74.0245 168.381 74.6467 167.727 75.151C167.017 75.6557 166.235 76.0498 165.406 76.3199C164.48 76.5962 163.518 76.7319 162.551 76.7224Z" fill="#FB3429"/>
<path d="M179.68 76.7831C178.57 76.7904 177.467 76.6125 176.415 76.2567C175.47 75.9107 174.6 75.385 173.854 74.7085C173.139 74.0511 172.556 73.2628 172.137 72.3862L174.667 70.838C175.04 71.8426 175.72 72.7041 176.61 73.3002C177.5 73.8963 178.556 74.1968 179.626 74.1589C180.402 74.1966 181.171 74.0055 181.839 73.6093C182.089 73.4384 182.291 73.2065 182.427 72.9356C182.562 72.6647 182.626 72.3637 182.613 72.0611C182.621 71.8566 182.587 71.6527 182.512 71.4621C182.438 71.2716 182.324 71.0986 182.18 70.9541C181.787 70.6363 181.33 70.4067 180.841 70.2806L178.334 69.553C177.216 69.288 176.201 68.6982 175.417 67.8577C174.766 67.1655 174.41 66.246 174.427 65.2954C174.423 64.4096 174.693 63.5442 175.201 62.8183C175.742 62.059 176.492 61.4729 177.359 61.1307C178.322 60.7065 179.363 60.4877 180.415 60.4882C181.812 60.4628 183.194 60.7818 184.439 61.4172C185.566 62.0158 186.465 62.9675 187 64.1265L184.578 65.7986C184.375 65.2636 184.046 64.7856 183.619 64.4052C182.739 63.6158 181.589 63.197 180.408 63.2363C179.616 63.1793 178.826 63.3627 178.141 63.7627C177.901 63.901 177.703 64.1011 177.567 64.3421C177.431 64.5831 177.362 64.8561 177.367 65.1329C177.353 65.3648 177.399 65.5964 177.5 65.8053C177.602 66.0142 177.756 66.1932 177.947 66.325C178.386 66.6106 178.866 66.8273 179.371 66.9675L182.288 67.8732C183.257 68.1192 184.137 68.6345 184.826 69.3595C185.417 70.0143 185.738 70.8692 185.723 71.7514C185.752 72.7099 185.489 73.6544 184.969 74.4602C184.45 75.266 183.698 75.8951 182.814 76.2645C181.817 76.6536 180.75 76.8303 179.68 76.7831Z" fill="#FB3429"/>
<path d="M14.5691 41.1359V24.1057L17.4861 31.9241L0 2.36108H13.7799L25.703 22.5652H17.6021L29.6644 2.36108H42.276L24.7668 31.9241L27.6837 24.1057V41.1359H14.5691Z" fill="white"/>
<path d="M56.9303 41.6853C53.5895 41.7607 50.2774 41.0528 47.2588 39.6184C44.654 38.3891 42.4376 36.4662 40.8525 34.0603C39.3845 31.6176 38.6089 28.8212 38.6089 25.971C38.6089 23.1207 39.3845 20.3243 40.8525 17.8816C42.34 15.5073 44.4556 13.5916 46.9648 12.3467C49.6762 10.9856 52.6745 10.2954 55.7079 10.3341C58.5641 10.3171 61.3896 10.9248 63.9867 12.1145C66.4623 13.278 68.5693 15.1021 70.0758 17.3861C71.6881 20.0098 72.4777 23.0566 72.3428 26.1335V29.0751H49.0074V22.8513H65.5883L60.9459 24.4615C60.9638 23.4517 60.7438 22.452 60.3038 21.5431C59.9176 20.7559 59.3237 20.0893 58.5861 19.6156C57.7765 19.1372 56.849 18.8958 55.909 18.9189C54.9669 18.8984 54.0376 19.1396 53.2242 19.6156C52.4696 20.0782 51.8629 20.747 51.4756 21.5431C51.0611 22.4595 50.8525 23.4557 50.8644 24.4615V26.3193C50.8213 27.4755 51.0884 28.6222 51.6381 29.6402C52.1433 30.5582 52.9261 31.2925 53.8741 31.738C54.9794 32.2068 56.1712 32.4363 57.3714 32.4115C58.5517 32.448 59.7281 32.2588 60.8376 31.8541C61.8854 31.4438 62.868 30.8831 63.7545 30.1898L70.3079 36.7774C68.7882 38.4001 66.9131 39.6482 64.83 40.4235C62.2962 41.3245 59.6186 41.7522 56.9303 41.6853Z" fill="white"/>
<path d="M76.3353 41.1359V0H88.8696V41.1049L76.3353 41.1359Z" fill="white"/>
<path d="M134.465 10.2647C136.614 10.2229 138.74 10.7122 140.654 11.689C142.519 12.6606 144.024 14.2042 144.949 16.0937C146.096 18.5063 146.628 21.166 146.496 23.8347V41.1282H134.024V26.0022C134.147 24.596 133.822 23.187 133.095 21.9768C132.814 21.5953 132.445 21.2876 132.019 21.08C131.593 20.8724 131.124 20.7711 130.65 20.7847C129.949 20.7868 129.262 20.9795 128.662 21.3421C128.024 21.7709 127.529 22.3799 127.238 23.0916C126.844 24.1229 126.665 25.2241 126.712 26.3273V41.1359H114.216V26.0022C114.333 24.6032 114.029 23.2012 113.342 21.9768C113.055 21.587 112.676 21.2742 112.238 21.0662C111.801 20.8582 111.319 20.7615 110.835 20.7847C110.137 20.7855 109.451 20.9783 108.855 21.3421C108.208 21.7635 107.708 22.3746 107.423 23.0916C107.032 24.1239 106.854 25.2243 106.897 26.3273V41.1359H94.4015V10.7601H106.263V19.4997L103.872 17.0303C104.848 14.9001 106.441 13.1122 108.445 11.898C110.403 10.776 112.625 10.1937 114.882 10.2105C117.394 10.1653 119.858 10.898 121.938 12.3083C124.103 13.8848 125.581 16.2312 126.07 18.8649L122.139 18.2844C123.162 15.9103 124.853 13.8851 127.006 12.4554C129.205 10.9695 131.812 10.204 134.465 10.2647Z" fill="white"/>
<path d="M168.524 41.6853C165.363 41.7536 162.232 41.0523 159.402 39.6416C156.861 38.3741 154.707 36.4464 153.166 34.0603C151.633 31.6315 150.853 28.8037 150.922 25.9323C150.854 23.0609 151.634 20.2334 153.166 17.8042C154.699 15.4232 156.856 13.5088 159.402 12.2693C162.26 10.9419 165.373 10.2542 168.524 10.2542C171.675 10.2542 174.788 10.9419 177.646 12.2693C180.2 13.4936 182.358 15.4115 183.875 17.8042C185.343 20.2609 186.118 23.0698 186.118 25.9323C186.118 28.7947 185.343 31.6036 183.875 34.0603C182.351 36.4548 180.196 38.3811 177.646 39.6261C174.817 41.0412 171.687 41.7479 168.524 41.6853ZM168.524 31.9238C169.397 31.9403 170.256 31.7066 171 31.2503C171.785 30.777 172.406 30.0746 172.78 29.2377C173.246 28.2051 173.474 27.0805 173.445 25.9477C173.482 24.8117 173.254 23.6827 172.78 22.6501C172.394 21.8371 171.774 21.1578 171 20.6993C170.244 20.2579 169.384 20.0254 168.509 20.0254C167.633 20.0254 166.773 20.2579 166.017 20.6993C165.255 21.1728 164.64 21.848 164.238 22.6501C163.775 23.6858 163.555 24.8139 163.595 25.9477C163.564 27.0784 163.783 28.2021 164.238 29.2377C164.63 30.0623 165.247 30.7597 166.017 31.2503C166.772 31.7087 167.641 31.9424 168.524 31.9238Z" fill="white"/>
</svg>
